<svg width="349" height="733" viewBox="0 0 349 733" fill="none" xmlns="http://www.w3.org/2000/svg">
<path d="M329.487 656.856C254.127 637.147 101.857 622.527 31.3415 661.394C-32.1586 696.394 15.1825 723.395 47.8415 723.395C168.842 723.395 119.158 724.605 198 731.5C268.73 737.685 309.342 723.394 324.387 712.828C364.842 684.416 346.842 661.394 329.487 656.856Z" fill="#E9E7F4"/>
<path d="M240.317 274.126C241.388 274.022 242.372 273.988 243.439 274.003C243.904 274.003 243.904 274.003 244.377 274.007C245.028 274.007 245.683 274.015 246.333 274.022C247.34 274.033 248.343 274.037 249.345 274.041C249.977 274.041 250.613 274.048 251.245 274.052C251.547 274.052 251.846 274.055 252.16 274.055C254.272 274.081 254.272 274.081 254.695 274.498C254.729 275.242 254.737 275.986 254.733 276.73C254.729 277.411 254.729 277.411 254.729 278.103C254.726 278.813 254.726 278.813 254.718 279.542C254.718 280.022 254.714 280.498 254.714 280.989C254.711 282.172 254.703 283.359 254.695 284.542C254.196 284.664 253.697 284.787 253.182 284.914C253.152 288.585 253.14 292.253 253.152 295.924C253.159 297.628 253.159 299.332 253.14 301.039C253.125 302.687 253.129 304.331 253.14 305.979C253.144 306.608 253.14 307.233 253.129 307.858C253.061 312.136 253.061 312.136 255.221 315.77C255.789 316.287 256.368 316.793 256.966 317.276C257.495 317.753 257.495 317.753 258.033 318.24C258.464 318.593 258.464 318.593 258.903 318.95C263.776 323.183 266.221 329.221 266.803 335.504C266.856 336.802 266.86 338.1 266.86 339.402C266.86 339.785 266.86 340.168 266.864 340.563C266.868 341.842 266.868 343.122 266.871 344.398C266.871 345.317 266.875 346.239 266.879 347.158C266.886 349.911 266.89 352.663 266.894 355.416C266.894 356.714 266.898 358.012 266.898 359.311C266.905 363.626 266.909 367.944 266.913 372.259C266.913 373.379 266.913 374.495 266.917 375.615C266.917 375.894 266.917 376.169 266.917 376.455C266.917 380.964 266.928 385.469 266.939 389.973C266.955 394.605 266.958 399.236 266.962 403.867C266.962 406.463 266.966 409.06 266.974 411.66C266.985 414.104 266.985 416.544 266.981 418.988C266.981 419.885 266.985 420.781 266.989 421.678C266.996 422.902 266.992 424.122 266.989 425.345C266.992 425.703 266.996 426.056 267 426.42C266.97 429.352 266.039 431.688 264.022 433.894C258.57 438.782 251.366 439.15 244.37 438.964C239.235 438.726 233.915 437.074 230.264 433.362C228.467 430.806 227.99 428.749 228.017 425.654C228.017 425.264 228.013 424.873 228.009 424.471C228.005 423.169 228.009 421.867 228.013 420.562C228.013 419.628 228.009 418.691 228.005 417.753C227.998 415.477 228.001 413.2 228.005 410.924C228.009 409.067 228.009 407.215 228.005 405.362C228.005 405.098 228.005 404.834 228.005 404.563C228.005 404.027 228.005 403.488 228.005 402.952C228.001 397.919 228.005 392.886 228.013 387.853C228.02 383.549 228.02 379.242 228.013 374.934C228.005 369.923 228.001 364.913 228.005 359.902C228.005 359.366 228.005 358.831 228.005 358.295C228.009 357.901 228.009 357.901 228.009 357.495C228.009 355.65 228.005 353.802 228.001 351.957C227.998 349.461 228.001 346.968 228.009 344.472C228.013 343.561 228.013 342.649 228.009 341.738C227.983 333.443 228.785 326.308 234.865 320.01C236.118 318.809 237.415 317.66 238.743 316.536C240.015 315.372 240.643 314.769 240.84 313.013C240.847 312.493 240.847 311.972 240.843 311.451C240.843 311.168 240.847 310.882 240.847 310.588C240.855 309.647 240.851 308.706 240.847 307.765C240.847 307.114 240.847 306.459 240.851 305.804C240.851 304.435 240.851 303.063 240.843 301.694C240.836 299.938 240.84 298.179 240.847 296.423C240.851 295.073 240.851 293.722 240.847 292.372C240.847 291.725 240.847 291.077 240.851 290.43C240.855 289.523 240.847 288.619 240.843 287.715C240.843 287.447 240.847 287.179 240.851 286.9C240.847 285.453 240.847 285.453 240.128 284.237C239.939 284.092 239.754 283.947 239.561 283.798C239.421 282.905 239.421 282.905 239.424 281.856C239.424 281.48 239.424 281.101 239.424 280.714C239.428 280.32 239.436 279.925 239.443 279.52C239.44 278.928 239.44 278.928 239.44 278.326C239.459 275.391 239.459 275.391 240.317 274.126Z" fill="#6C55F9"/>
<path d="M240.317 484.126C241.388 484.022 242.372 483.988 243.439 484.003C243.904 484.003 243.904 484.003 244.377 484.007C245.028 484.007 245.683 484.015 246.333 484.022C247.34 484.033 248.343 484.037 249.345 484.041C249.977 484.041 250.613 484.048 251.245 484.052C251.547 484.052 251.846 484.055 252.16 484.055C254.272 484.081 254.272 484.081 254.695 484.498C254.729 485.242 254.737 485.986 254.733 486.73C254.729 487.411 254.729 487.411 254.729 488.103C254.726 488.813 254.726 488.813 254.718 489.542C254.718 490.022 254.714 490.498 254.714 490.989C254.711 492.172 254.703 493.359 254.695 494.542C254.196 494.664 253.697 494.787 253.182 494.914C253.152 498.585 253.14 502.253 253.152 505.924C253.159 507.628 253.159 509.332 253.14 511.039C253.125 512.687 253.129 514.331 253.14 515.979C253.144 516.608 253.14 517.233 253.129 517.858C253.061 522.136 253.061 522.136 255.221 525.77C255.789 526.287 256.368 526.793 256.966 527.276C257.495 527.753 257.495 527.753 258.033 528.24C258.464 528.593 258.464 528.593 258.903 528.95C263.776 533.183 266.221 539.221 266.803 545.504C266.856 546.802 266.86 548.1 266.86 549.402C266.86 549.785 266.86 550.168 266.864 550.563C266.868 551.842 266.868 553.122 266.871 554.398C266.871 555.317 266.875 556.239 266.879 557.158C266.886 559.911 266.89 562.663 266.894 565.416C266.894 566.714 266.898 568.012 266.898 569.311C266.905 573.626 266.909 577.944 266.913 582.259C266.913 583.379 266.913 584.495 266.917 585.615C266.917 585.894 266.917 586.169 266.917 586.455C266.917 590.964 266.928 595.469 266.939 599.973C266.955 604.605 266.958 609.236 266.962 613.867C266.962 616.463 266.966 619.06 266.974 621.66C266.985 624.104 266.985 626.544 266.981 628.988C266.981 629.885 266.985 630.781 266.989 631.678C266.996 632.902 266.992 634.122 266.989 635.345C266.992 635.703 266.996 636.056 267 636.42C266.97 639.352 266.039 641.688 264.022 643.894C258.57 648.782 251.366 649.15 244.37 648.964C239.235 648.726 233.915 647.074 230.264 643.362C228.467 640.806 227.99 638.749 228.017 635.654C228.017 635.264 228.013 634.873 228.009 634.471C228.005 633.169 228.009 631.867 228.013 630.562C228.013 629.628 228.009 628.691 228.005 627.753C227.998 625.477 228.001 623.2 228.005 620.924C228.009 619.067 228.009 617.215 228.005 615.362C228.005 615.098 228.005 614.834 228.005 614.563C228.005 614.027 228.005 613.488 228.005 612.952C228.001 607.919 228.005 602.886 228.013 597.853C228.02 593.549 228.02 589.242 228.013 584.934C228.005 579.923 228.001 574.913 228.005 569.902C228.005 569.366 228.005 568.831 228.005 568.295C228.009 567.901 228.009 567.901 228.009 567.495C228.009 565.65 228.005 563.802 228.001 561.957C227.998 559.461 228.001 556.968 228.009 554.472C228.013 553.561 228.013 552.649 228.009 551.738C227.983 543.443 228.785 536.308 234.865 530.01C236.118 528.809 237.415 527.66 238.743 526.536C240.015 525.372 240.643 524.769 240.84 523.013C240.847 522.493 240.847 521.972 240.843 521.451C240.843 521.168 240.847 520.882 240.847 520.588C240.855 519.647 240.851 518.706 240.847 517.765C240.847 517.114 240.847 516.459 240.851 515.804C240.851 514.435 240.851 513.063 240.843 511.694C240.836 509.938 240.84 508.179 240.847 506.423C240.851 505.073 240.851 503.722 240.847 502.372C240.847 501.725 240.847 501.077 240.851 500.43C240.855 499.523 240.847 498.619 240.843 497.715C240.843 497.447 240.847 497.179 240.851 496.9C240.847 495.453 240.847 495.453 240.128 494.237C239.939 494.092 239.754 493.947 239.561 493.798C239.421 492.905 239.421 492.905 239.424 491.856C239.424 491.48 239.424 491.101 239.424 490.714C239.428 490.32 239.436 489.925 239.443 489.52C239.44 488.928 239.44 488.928 239.44 488.326C239.459 485.391 239.459 485.391 240.317 484.126Z" fill="#6C55F9"/>
<path d="M123.317 484.126C124.388 484.022 125.372 483.988 126.439 484.003C126.904 484.003 126.904 484.003 127.377 484.007C128.028 484.007 128.683 484.015 129.333 484.022C130.34 484.033 131.343 484.037 132.345 484.041C132.977 484.041 133.613 484.048 134.245 484.052C134.547 484.052 134.846 484.055 135.16 484.055C137.272 484.081 137.272 484.081 137.695 484.498C137.729 485.242 137.737 485.986 137.733 486.73C137.729 487.411 137.729 487.411 137.729 488.103C137.726 488.813 137.726 488.813 137.718 489.542C137.718 490.022 137.714 490.498 137.714 490.989C137.711 492.172 137.703 493.359 137.695 494.542C137.196 494.664 136.697 494.787 136.182 494.914C136.152 498.585 136.14 502.253 136.152 505.924C136.159 507.628 136.159 509.332 136.14 511.039C136.125 512.687 136.129 514.331 136.14 515.979C136.144 516.608 136.14 517.233 136.129 517.858C136.061 522.136 136.061 522.136 138.221 525.77C138.789 526.287 139.368 526.793 139.966 527.276C140.495 527.753 140.495 527.753 141.033 528.24C141.464 528.593 141.464 528.593 141.903 528.95C146.776 533.183 149.221 539.221 149.803 545.504C149.856 546.802 149.86 548.1 149.86 549.402C149.86 549.785 149.86 550.168 149.864 550.563C149.868 551.842 149.868 553.122 149.871 554.398C149.871 555.317 149.875 556.239 149.879 557.158C149.886 559.911 149.89 562.663 149.894 565.416C149.894 566.714 149.898 568.012 149.898 569.311C149.905 573.626 149.909 577.944 149.913 582.259C149.913 583.379 149.913 584.495 149.917 585.615C149.917 585.894 149.917 586.169 149.917 586.455C149.917 590.964 149.928 595.469 149.939 599.973C149.955 604.605 149.958 609.236 149.962 613.867C149.962 616.463 149.966 619.06 149.974 621.66C149.985 624.104 149.985 626.544 149.981 628.988C149.981 629.885 149.985 630.781 149.989 631.678C149.996 632.902 149.992 634.122 149.989 635.345C149.992 635.703 149.996 636.056 150 636.42C149.97 639.352 149.039 641.688 147.022 643.894C141.57 648.782 134.366 649.15 127.37 648.964C122.235 648.726 116.915 647.074 113.264 643.362C111.467 640.806 110.99 638.749 111.017 635.654C111.017 635.264 111.013 634.873 111.009 634.471C111.005 633.169 111.009 631.867 111.013 630.562C111.013 629.628 111.009 628.691 111.005 627.753C110.998 625.477 111.001 623.2 111.005 620.924C111.009 619.067 111.009 617.215 111.005 615.362C111.005 615.098 111.005 614.834 111.005 614.563C111.005 614.027 111.005 613.488 111.005 612.952C111.001 607.919 111.005 602.886 111.013 597.853C111.02 593.549 111.02 589.242 111.013 584.934C111.005 579.923 111.001 574.913 111.005 569.902C111.005 569.366 111.005 568.831 111.005 568.295C111.009 567.901 111.009 567.901 111.009 567.495C111.009 565.65 111.005 563.802 111.001 561.957C110.998 559.461 111.001 556.968 111.009 554.472C111.013 553.561 111.013 552.649 111.009 551.738C110.983 543.443 111.785 536.308 117.865 530.01C119.118 528.809 120.415 527.66 121.743 526.536C123.015 525.372 123.643 524.769 123.84 523.013C123.847 522.493 123.847 521.972 123.843 521.451C123.843 521.168 123.847 520.882 123.847 520.588C123.855 519.647 123.851 518.706 123.847 517.765C123.847 517.114 123.847 516.459 123.851 515.804C123.851 514.435 123.851 513.063 123.843 511.694C123.836 509.938 123.84 508.179 123.847 506.423C123.851 505.073 123.851 503.722 123.847 502.372C123.847 501.725 123.847 501.077 123.851 500.43C123.855 499.523 123.847 498.619 123.843 497.715C123.843 497.447 123.847 497.179 123.851 496.9C123.847 495.453 123.847 495.453 123.128 494.237C122.939 494.092 122.754 493.947 122.561 493.798C122.421 492.905 122.421 492.905 122.424 491.856C122.424 491.48 122.424 491.101 122.424 490.714C122.428 490.32 122.436 489.925 122.443 489.52C122.44 488.928 122.44 488.928 122.44 488.326C122.459 485.391 122.459 485.391 123.317 484.126Z" fill="#6C55F9"/>
<path d="M170.317 484.126C171.388 484.022 172.372 483.988 173.439 484.003C173.904 484.003 173.904 484.003 174.377 484.007C175.028 484.007 175.683 484.015 176.333 484.022C177.34 484.033 178.343 484.037 179.345 484.041C179.977 484.041 180.613 484.048 181.245 484.052C181.547 484.052 181.846 484.055 182.16 484.055C184.272 484.081 184.272 484.081 184.695 484.498C184.729 485.242 184.737 485.986 184.733 486.73C184.729 487.411 184.729 487.411 184.729 488.103C184.726 488.813 184.726 488.813 184.718 489.542C184.718 490.022 184.714 490.498 184.714 490.989C184.711 492.172 184.703 493.359 184.695 494.542C184.196 494.664 183.697 494.787 183.182 494.914C183.152 498.585 183.14 502.253 183.152 505.924C183.159 507.628 183.159 509.332 183.14 511.039C183.125 512.687 183.129 514.331 183.14 515.979C183.144 516.608 183.14 517.233 183.129 517.858C183.061 522.136 183.061 522.136 185.221 525.77C185.789 526.287 186.368 526.793 186.966 527.276C187.495 527.753 187.495 527.753 188.033 528.24C188.464 528.593 188.464 528.593 188.903 528.95C193.776 533.183 196.221 539.221 196.803 545.504C196.856 546.802 196.86 548.1 196.86 549.402C196.86 549.785 196.86 550.168 196.864 550.563C196.868 551.842 196.868 553.122 196.871 554.398C196.871 555.317 196.875 556.239 196.879 557.158C196.886 559.911 196.89 562.663 196.894 565.416C196.894 566.714 196.898 568.012 196.898 569.311C196.905 573.626 196.909 577.944 196.913 582.259C196.913 583.379 196.913 584.495 196.917 585.615C196.917 585.894 196.917 586.169 196.917 586.455C196.917 590.964 196.928 595.469 196.939 599.973C196.955 604.605 196.958 609.236 196.962 613.867C196.962 616.463 196.966 619.06 196.974 621.66C196.985 624.104 196.985 626.544 196.981 628.988C196.981 629.885 196.985 630.781 196.989 631.678C196.996 632.902 196.992 634.122 196.989 635.345C196.992 635.703 196.996 636.056 197 636.42C196.97 639.352 196.039 641.688 194.022 643.894C188.57 648.782 181.366 649.15 174.37 648.964C169.235 648.726 163.915 647.074 160.264 643.362C158.467 640.806 157.99 638.749 158.017 635.654C158.017 635.264 158.013 634.873 158.009 634.471C158.005 633.169 158.009 631.867 158.013 630.562C158.013 629.628 158.009 628.691 158.005 627.753C157.998 625.477 158.001 623.2 158.005 620.924C158.009 619.067 158.009 617.215 158.005 615.362C158.005 615.098 158.005 614.834 158.005 614.563C158.005 614.027 158.005 613.488 158.005 612.952C158.001 607.919 158.005 602.886 158.013 597.853C158.02 593.549 158.02 589.242 158.013 584.934C158.005 579.923 158.001 574.913 158.005 569.902C158.005 569.366 158.005 568.831 158.005 568.295C158.009 567.901 158.009 567.901 158.009 567.495C158.009 565.65 158.005 563.802 158.001 561.957C157.998 559.461 158.001 556.968 158.009 554.472C158.013 553.561 158.013 552.649 158.009 551.738C157.983 543.443 158.785 536.308 164.865 530.01C166.118 528.809 167.415 527.66 168.743 526.536C170.015 525.372 170.643 524.769 170.84 523.013C170.847 522.493 170.847 521.972 170.843 521.451C170.843 521.168 170.847 520.882 170.847 520.588C170.855 519.647 170.851 518.706 170.847 517.765C170.847 517.114 170.847 516.459 170.851 515.804C170.851 514.435 170.851 513.063 170.843 511.694C170.836 509.938 170.84 508.179 170.847 506.423C170.851 505.073 170.851 503.722 170.847 502.372C170.847 501.725 170.847 501.077 170.851 500.43C170.855 499.523 170.847 498.619 170.843 497.715C170.843 497.447 170.847 497.179 170.851 496.9C170.847 495.453 170.847 495.453 170.128 494.237C169.939 494.092 169.754 493.947 169.561 493.798C169.421 492.905 169.421 492.905 169.424 491.856C169.424 491.48 169.424 491.101 169.424 490.714C169.428 490.32 169.436 489.925 169.443 489.52C169.44 488.928 169.44 488.928 169.44 488.326C169.459 485.391 169.459 485.391 170.317 484.126Z" fill="#6C55F9"/>
<path d="M195.317 274.126C196.388 274.022 197.372 273.988 198.439 274.003C198.904 274.003 198.904 274.003 199.377 274.007C200.028 274.007 200.683 274.015 201.333 274.022C202.34 274.033 203.343 274.037 204.345 274.041C204.977 274.041 205.613 274.048 206.245 274.052C206.547 274.052 206.846 274.055 207.16 274.055C209.272 274.081 209.272 274.081 209.695 274.498C209.729 275.242 209.737 275.986 209.733 276.73C209.729 277.411 209.729 277.411 209.729 278.103C209.726 278.813 209.726 278.813 209.718 279.542C209.718 280.022 209.714 280.498 209.714 280.989C209.711 282.172 209.703 283.359 209.695 284.542C209.196 284.664 208.697 284.787 208.182 284.914C208.152 288.585 208.14 292.253 208.152 295.924C208.159 297.628 208.159 299.332 208.14 301.039C208.125 302.687 208.129 304.331 208.14 305.979C208.144 306.608 208.14 307.233 208.129 307.858C208.061 312.136 208.061 312.136 210.221 315.77C210.789 316.287 211.368 316.793 211.966 317.276C212.495 317.753 212.495 317.753 213.033 318.24C213.464 318.593 213.464 318.593 213.903 318.95C218.776 323.183 221.221 329.221 221.803 335.504C221.856 336.802 221.86 338.1 221.86 339.402C221.86 339.785 221.86 340.168 221.864 340.563C221.868 341.842 221.868 343.122 221.871 344.398C221.871 345.317 221.875 346.239 221.879 347.158C221.886 349.911 221.89 352.663 221.894 355.416C221.894 356.714 221.898 358.012 221.898 359.311C221.905 363.626 221.909 367.944 221.913 372.259C221.913 373.379 221.913 374.495 221.917 375.615C221.917 375.894 221.917 376.169 221.917 376.455C221.917 380.964 221.928 385.469 221.939 389.973C221.955 394.605 221.958 399.236 221.962 403.867C221.962 406.463 221.966 409.06 221.974 411.66C221.985 414.104 221.985 416.544 221.981 418.988C221.981 419.885 221.985 420.781 221.989 421.678C221.996 422.902 221.992 424.122 221.989 425.345C221.992 425.703 221.996 426.056 222 426.42C221.97 429.352 221.039 431.688 219.022 433.894C213.57 438.782 206.366 439.15 199.37 438.964C194.235 438.726 188.915 437.074 185.264 433.362C183.467 430.806 182.99 428.749 183.017 425.654C183.017 425.264 183.013 424.873 183.009 424.471C183.005 423.169 183.009 421.867 183.013 420.562C183.013 419.628 183.009 418.691 183.005 417.753C182.998 415.477 183.001 413.2 183.005 410.924C183.009 409.067 183.009 407.215 183.005 405.362C183.005 405.098 183.005 404.834 183.005 404.563C183.005 404.027 183.005 403.488 183.005 402.952C183.001 397.919 183.005 392.886 183.013 387.853C183.02 383.549 183.02 379.242 183.013 374.934C183.005 369.923 183.001 364.913 183.005 359.902C183.005 359.366 183.005 358.831 183.005 358.295C183.009 357.901 183.009 357.901 183.009 357.495C183.009 355.65 183.005 353.802 183.001 351.957C182.998 349.461 183.001 346.968 183.009 344.472C183.013 343.561 183.013 342.649 183.009 341.738C182.983 333.443 183.785 326.308 189.865 320.01C191.118 318.809 192.415 317.66 193.743 316.536C195.015 315.372 195.643 314.769 195.84 313.013C195.847 312.493 195.847 311.972 195.843 311.451C195.843 311.168 195.847 310.882 195.847 310.588C195.855 309.647 195.851 308.706 195.847 307.765C195.847 307.114 195.847 306.459 195.851 305.804C195.851 304.435 195.851 303.063 195.843 301.694C195.836 299.938 195.84 298.179 195.847 296.423C195.851 295.073 195.851 293.722 195.847 292.372C195.847 291.725 195.847 291.077 195.851 290.43C195.855 289.523 195.847 288.619 195.843 287.715C195.843 287.447 195.847 287.179 195.851 286.9C195.847 285.453 195.847 285.453 195.128 284.237C194.939 284.092 194.754 283.947 194.561 283.798C194.421 282.905 194.421 282.905 194.424 281.856C194.424 281.48 194.424 281.101 194.424 280.714C194.428 280.32 194.436 279.925 194.443 279.52C194.44 278.928 194.44 278.928 194.44 278.326C194.459 275.391 194.459 275.391 195.317 274.126Z" fill="#6C55F9"/>
<path d="M94.3174 274.126C95.3882 274.022 96.3719 273.988 97.4389 274.003C97.9043 274.003 97.9043 274.003 98.3773 274.007C99.0281 274.007 99.6827 274.015 100.333 274.022C101.34 274.033 102.343 274.037 103.345 274.041C103.977 274.041 104.613 274.048 105.245 274.052C105.547 274.052 105.846 274.055 106.16 274.055C108.272 274.081 108.272 274.081 108.695 274.498C108.729 275.242 108.737 275.986 108.733 276.73C108.729 277.411 108.729 277.411 108.729 278.103C108.726 278.813 108.726 278.813 108.718 279.542C108.718 280.022 108.714 280.498 108.714 280.989C108.711 282.172 108.703 283.359 108.695 284.542C108.196 284.664 107.697 284.787 107.182 284.914C107.152 288.585 107.14 292.253 107.152 295.924C107.159 297.628 107.159 299.332 107.14 301.039C107.125 302.687 107.129 304.331 107.14 305.979C107.144 306.608 107.14 307.233 107.129 307.858C107.061 312.136 107.061 312.136 109.221 315.77C109.789 316.287 110.368 316.793 110.966 317.276C111.495 317.753 111.495 317.753 112.033 318.24C112.464 318.593 112.464 318.593 112.903 318.95C117.776 323.183 120.221 329.221 120.803 335.504C120.856 336.802 120.86 338.1 120.86 339.402C120.86 339.785 120.86 340.168 120.864 340.563C120.868 341.842 120.868 343.122 120.871 344.398C120.871 345.317 120.875 346.239 120.879 347.158C120.886 349.911 120.89 352.663 120.894 355.416C120.894 356.714 120.898 358.012 120.898 359.311C120.905 363.626 120.909 367.944 120.913 372.259C120.913 373.379 120.913 374.495 120.917 375.615C120.917 375.894 120.917 376.169 120.917 376.455C120.917 380.964 120.928 385.469 120.939 389.973C120.955 394.605 120.958 399.236 120.962 403.867C120.962 406.463 120.966 409.06 120.974 411.66C120.985 414.104 120.985 416.544 120.981 418.988C120.981 419.885 120.985 420.781 120.989 421.678C120.996 422.902 120.992 424.122 120.989 425.345C120.992 425.703 120.996 426.056 121 426.42C120.97 429.352 120.039 431.688 118.022 433.894C112.57 438.782 105.366 439.15 98.3697 438.964C93.2353 438.726 87.9154 437.074 84.2641 433.362C82.4669 430.806 81.9901 428.749 82.0166 425.654C82.0166 425.264 82.0128 424.873 82.0091 424.471C82.0053 423.169 82.0091 421.867 82.0128 420.562C82.0128 419.628 82.0091 418.691 82.0053 417.753C81.9977 415.477 82.0015 413.2 82.0053 410.924C82.0091 409.067 82.0091 407.215 82.0053 405.362C82.0053 405.098 82.0053 404.834 82.0053 404.563C82.0053 404.027 82.0053 403.488 82.0053 402.952C82.0015 397.919 82.0053 392.886 82.0128 387.853C82.0204 383.549 82.0204 379.242 82.0128 374.934C82.0053 369.923 82.0015 364.913 82.0053 359.902C82.0053 359.366 82.0053 358.831 82.0053 358.295C82.0091 357.901 82.0091 357.901 82.0091 357.495C82.0091 355.65 82.0053 353.802 82.0015 351.957C81.9977 349.461 82.0015 346.968 82.0091 344.472C82.0128 343.561 82.0128 342.649 82.0091 341.738C81.9826 333.443 82.7847 326.308 88.8651 320.01C90.1175 318.809 91.4153 317.66 92.7434 316.536C94.0147 315.372 94.6428 314.769 94.8396 313.013C94.8471 312.493 94.8471 311.972 94.8433 311.451C94.8433 311.168 94.8471 310.882 94.8471 310.588C94.8547 309.647 94.8509 308.706 94.8471 307.765C94.8471 307.114 94.8471 306.459 94.8509 305.804C94.8509 304.435 94.8509 303.063 94.8433 301.694C94.8358 299.938 94.8396 298.179 94.8471 296.423C94.8509 295.073 94.8509 293.722 94.8471 292.372C94.8471 291.725 94.8471 291.077 94.8509 290.43C94.8547 289.523 94.8471 288.619 94.8433 287.715C94.8433 287.447 94.8471 287.179 94.8509 286.9C94.8471 285.453 94.8471 285.453 94.1282 284.237C93.939 284.092 93.7536 283.947 93.5607 283.798C93.4207 282.905 93.4207 282.905 93.4245 281.856C93.4245 281.48 93.4245 281.101 93.4245 280.714C93.4282 280.32 93.4358 279.925 93.4434 279.52C93.4396 278.928 93.4396 278.928 93.4396 278.326C93.4585 275.391 93.4585 275.391 94.3174 274.126Z" fill="#6C55F9"/>
<path d="M94.3174 65.1261C95.3882 65.022 96.3719 64.9885 97.4389 65.0034C97.9043 65.0034 97.9043 65.0034 98.3773 65.0071C99.0281 65.0071 99.6827 65.0145 100.333 65.022C101.34 65.0331 102.343 65.0368 103.345 65.0406C103.977 65.0406 104.613 65.048 105.245 65.0517C105.547 65.0517 105.846 65.0554 106.16 65.0554C108.272 65.0815 108.272 65.0815 108.695 65.4981C108.729 66.2421 108.737 66.986 108.733 67.73C108.729 68.4107 108.729 68.4107 108.729 69.1026C108.726 69.8131 108.726 69.8131 108.718 70.5422C108.718 71.0221 108.714 71.4982 108.714 71.9892C108.711 73.1721 108.703 74.3588 108.695 75.5417C108.196 75.6644 107.697 75.7872 107.182 75.9137C107.152 79.5852 107.14 83.2529 107.152 86.9244C107.159 88.6281 107.159 90.3318 107.14 92.0392C107.125 93.6871 107.129 95.3313 107.14 96.9792C107.144 97.6078 107.14 98.2328 107.129 98.8577C107.061 103.136 107.061 103.136 109.221 106.77C109.789 107.287 110.368 107.793 110.966 108.276C111.495 108.753 111.495 108.753 112.033 109.24C112.464 109.593 112.464 109.593 112.903 109.95C117.776 114.183 120.221 120.221 120.803 126.504C120.856 127.802 120.86 129.1 120.86 130.402C120.86 130.785 120.86 131.168 120.864 131.563C120.868 132.842 120.868 134.122 120.871 135.398C120.871 136.317 120.875 137.239 120.879 138.158C120.886 140.911 120.89 143.663 120.894 146.416C120.894 147.714 120.898 149.012 120.898 150.311C120.905 154.626 120.909 158.944 120.913 163.259C120.913 164.379 120.913 165.495 120.917 166.615C120.917 166.894 120.917 167.169 120.917 167.455C120.917 171.964 120.928 176.469 120.939 180.973C120.955 185.605 120.958 190.236 120.962 194.867C120.962 197.463 120.966 200.06 120.974 202.66C120.985 205.104 120.985 207.544 120.981 209.988C120.981 210.885 120.985 211.781 120.989 212.678C120.996 213.902 120.992 215.122 120.989 216.345C120.992 216.703 120.996 217.056 121 217.42C120.97 220.352 120.039 222.688 118.022 224.894C112.57 229.782 105.366 230.15 98.3697 229.964C93.2353 229.726 87.9154 228.074 84.2641 224.362C82.4669 221.806 81.9901 219.749 82.0166 216.654C82.0166 216.264 82.0128 215.873 82.0091 215.471C82.0053 214.169 82.0091 212.867 82.0128 211.562C82.0128 210.628 82.0091 209.691 82.0053 208.753C81.9977 206.477 82.0015 204.2 82.0053 201.924C82.0091 200.067 82.0091 198.215 82.0053 196.362C82.0053 196.098 82.0053 195.834 82.0053 195.563C82.0053 195.027 82.0053 194.488 82.0053 193.952C82.0015 188.919 82.0053 183.886 82.0128 178.853C82.0204 174.549 82.0204 170.242 82.0128 165.934C82.0053 160.923 82.0015 155.913 82.0053 150.902C82.0053 150.366 82.0053 149.831 82.0053 149.295C82.0091 148.901 82.0091 148.901 82.0091 148.495C82.0091 146.65 82.0053 144.802 82.0015 142.957C81.9977 140.461 82.0015 137.968 82.0091 135.472C82.0128 134.561 82.0128 133.649 82.0091 132.738C81.9826 124.443 82.7847 117.308 88.8651 111.01C90.1175 109.809 91.4153 108.66 92.7434 107.536C94.0147 106.372 94.6428 105.769 94.8396 104.013C94.8471 103.493 94.8471 102.972 94.8433 102.451C94.8433 102.168 94.8471 101.882 94.8471 101.588C94.8547 100.647 94.8509 99.7058 94.8471 98.7647C94.8471 98.1137 94.8471 97.459 94.8509 96.8044C94.8509 95.4354 94.8509 94.0628 94.8433 92.6939C94.8358 90.9381 94.8396 89.1787 94.8471 87.4229C94.8509 86.0726 94.8509 84.7223 94.8471 83.372C94.8471 82.7247 94.8471 82.0775 94.8509 81.4302C94.8547 80.5226 94.8471 79.6186 94.8433 78.7147C94.8433 78.4469 94.8471 78.1791 94.8509 77.9001C94.8471 76.4531 94.8471 76.4531 94.1282 75.2367C93.939 75.0916 93.7536 74.9465 93.5607 74.7977C93.4207 73.905 93.4207 73.905 93.4245 72.856C93.4245 72.4803 93.4245 72.1008 93.4245 71.714C93.4282 71.3197 93.4358 70.9254 93.4434 70.5199C93.4396 69.9284 93.4396 69.9284 93.4396 69.3258C93.4585 66.3909 93.4585 66.3909 94.3174 65.1261Z" fill="#6C55F9"/>
<path d="M168.317 65.1261C169.388 65.022 170.372 64.9885 171.439 65.0034C171.904 65.0034 171.904 65.0034 172.377 65.0071C173.028 65.0071 173.683 65.0145 174.333 65.022C175.34 65.0331 176.343 65.0368 177.345 65.0406C177.977 65.0406 178.613 65.048 179.245 65.0517C179.547 65.0517 179.846 65.0554 180.16 65.0554C182.272 65.0815 182.272 65.0815 182.695 65.4981C182.729 66.2421 182.737 66.986 182.733 67.73C182.729 68.4107 182.729 68.4107 182.729 69.1026C182.726 69.8131 182.726 69.8131 182.718 70.5422C182.718 71.0221 182.714 71.4982 182.714 71.9892C182.711 73.1721 182.703 74.3588 182.695 75.5417C182.196 75.6644 181.697 75.7872 181.182 75.9137C181.152 79.5852 181.14 83.2529 181.152 86.9244C181.159 88.6281 181.159 90.3318 181.14 92.0392C181.125 93.6871 181.129 95.3313 181.14 96.9792C181.144 97.6078 181.14 98.2328 181.129 98.8577C181.061 103.136 181.061 103.136 183.221 106.77C183.789 107.287 184.368 107.793 184.966 108.276C185.495 108.753 185.495 108.753 186.033 109.24C186.464 109.593 186.464 109.593 186.903 109.95C191.776 114.183 194.221 120.221 194.803 126.504C194.856 127.802 194.86 129.1 194.86 130.402C194.86 130.785 194.86 131.168 194.864 131.563C194.868 132.842 194.868 134.122 194.871 135.398C194.871 136.317 194.875 137.239 194.879 138.158C194.886 140.911 194.89 143.663 194.894 146.416C194.894 147.714 194.898 149.012 194.898 150.311C194.905 154.626 194.909 158.944 194.913 163.259C194.913 164.379 194.913 165.495 194.917 166.615C194.917 166.894 194.917 167.169 194.917 167.455C194.917 171.964 194.928 176.469 194.939 180.973C194.955 185.605 194.958 190.236 194.962 194.867C194.962 197.463 194.966 200.06 194.974 202.66C194.985 205.104 194.985 207.544 194.981 209.988C194.981 210.885 194.985 211.781 194.989 212.678C194.996 213.902 194.992 215.122 194.989 216.345C194.992 216.703 194.996 217.056 195 217.42C194.97 220.352 194.039 222.688 192.022 224.894C186.57 229.782 179.366 230.15 172.37 229.964C167.235 229.726 161.915 228.074 158.264 224.362C156.467 221.806 155.99 219.749 156.017 216.654C156.017 216.264 156.013 215.873 156.009 215.471C156.005 214.169 156.009 212.867 156.013 211.562C156.013 210.628 156.009 209.691 156.005 208.753C155.998 206.477 156.001 204.2 156.005 201.924C156.009 200.067 156.009 198.215 156.005 196.362C156.005 196.098 156.005 195.834 156.005 195.563C156.005 195.027 156.005 194.488 156.005 193.952C156.001 188.919 156.005 183.886 156.013 178.853C156.02 174.549 156.02 170.242 156.013 165.934C156.005 160.923 156.001 155.913 156.005 150.902C156.005 150.366 156.005 149.831 156.005 149.295C156.009 148.901 156.009 148.901 156.009 148.495C156.009 146.65 156.005 144.802 156.001 142.957C155.998 140.461 156.001 137.968 156.009 135.472C156.013 134.561 156.013 133.649 156.009 132.738C155.983 124.443 156.785 117.308 162.865 111.01C164.118 109.809 165.415 108.66 166.743 107.536C168.015 106.372 168.643 105.769 168.84 104.013C168.847 103.493 168.847 102.972 168.843 102.451C168.843 102.168 168.847 101.882 168.847 101.588C168.855 100.647 168.851 99.7058 168.847 98.7647C168.847 98.1137 168.847 97.459 168.851 96.8044C168.851 95.4354 168.851 94.0628 168.843 92.6939C168.836 90.9381 168.84 89.1787 168.847 87.4229C168.851 86.0726 168.851 84.7223 168.847 83.372C168.847 82.7247 168.847 82.0775 168.851 81.4302C168.855 80.5226 168.847 79.6186 168.843 78.7147C168.843 78.4469 168.847 78.1791 168.851 77.9001C168.847 76.4531 168.847 76.4531 168.128 75.2367C167.939 75.0916 167.754 74.9465 167.561 74.7977C167.421 73.905 167.421 73.905 167.424 72.856C167.424 72.4803 167.424 72.1008 167.424 71.714C167.428 71.3197 167.436 70.9254 167.443 70.5199C167.44 69.9284 167.44 69.9284 167.44 69.3258C167.459 66.3909 167.459 66.3909 168.317 65.1261Z" fill="#6C55F9"/>
<path d="M240.317 63.1261C241.388 63.022 242.372 62.9885 243.439 63.0034C243.904 63.0034 243.904 63.0034 244.377 63.0071C245.028 63.0071 245.683 63.0145 246.333 63.022C247.34 63.0331 248.343 63.0368 249.345 63.0406C249.977 63.0406 250.613 63.048 251.245 63.0517C251.547 63.0517 251.846 63.0554 252.16 63.0554C254.272 63.0815 254.272 63.0815 254.695 63.4981C254.729 64.2421 254.737 64.986 254.733 65.73C254.729 66.4107 254.729 66.4107 254.729 67.1026C254.726 67.8131 254.726 67.8131 254.718 68.5422C254.718 69.0221 254.714 69.4982 254.714 69.9892C254.711 71.1721 254.703 72.3588 254.695 73.5417C254.196 73.6644 253.697 73.7872 253.182 73.9137C253.152 77.5852 253.14 81.2529 253.152 84.9244C253.159 86.6281 253.159 88.3318 253.14 90.0392C253.125 91.6871 253.129 93.3313 253.14 94.9792C253.144 95.6078 253.14 96.2328 253.129 96.8577C253.061 101.136 253.061 101.136 255.221 104.77C255.789 105.287 256.368 105.793 256.966 106.276C257.495 106.753 257.495 106.753 258.033 107.24C258.464 107.593 258.464 107.593 258.903 107.95C263.776 112.183 266.221 118.221 266.803 124.504C266.856 125.802 266.86 127.1 266.86 128.402C266.86 128.785 266.86 129.168 266.864 129.563C266.868 130.842 266.868 132.122 266.871 133.398C266.871 134.317 266.875 135.239 266.879 136.158C266.886 138.911 266.89 141.663 266.894 144.416C266.894 145.714 266.898 147.012 266.898 148.311C266.905 152.626 266.909 156.944 266.913 161.259C266.913 162.379 266.913 163.495 266.917 164.615C266.917 164.894 266.917 165.169 266.917 165.455C266.917 169.964 266.928 174.469 266.939 178.973C266.955 183.605 266.958 188.236 266.962 192.867C266.962 195.463 266.966 198.06 266.974 200.66C266.985 203.104 266.985 205.544 266.981 207.988C266.981 208.885 266.985 209.781 266.989 210.678C266.996 211.902 266.992 213.122 266.989 214.345C266.992 214.703 266.996 215.056 267 215.42C266.97 218.352 266.039 220.688 264.022 222.894C258.57 227.782 251.366 228.15 244.37 227.964C239.235 227.726 233.915 226.074 230.264 222.362C228.467 219.806 227.99 217.749 228.017 214.654C228.017 214.264 228.013 213.873 228.009 213.471C228.005 212.169 228.009 210.867 228.013 209.562C228.013 208.628 228.009 207.691 228.005 206.753C227.998 204.477 228.001 202.2 228.005 199.924C228.009 198.067 228.009 196.215 228.005 194.362C228.005 194.098 228.005 193.834 228.005 193.563C228.005 193.027 228.005 192.488 228.005 191.952C228.001 186.919 228.005 181.886 228.013 176.853C228.02 172.549 228.02 168.242 228.013 163.934C228.005 158.923 228.001 153.913 228.005 148.902C228.005 148.366 228.005 147.831 228.005 147.295C228.009 146.901 228.009 146.901 228.009 146.495C228.009 144.65 228.005 142.802 228.001 140.957C227.998 138.461 228.001 135.968 228.009 133.472C228.013 132.561 228.013 131.649 228.009 130.738C227.983 122.443 228.785 115.308 234.865 109.01C236.118 107.809 237.415 106.66 238.743 105.536C240.015 104.372 240.643 103.769 240.84 102.013C240.847 101.493 240.847 100.972 240.843 100.451C240.843 100.168 240.847 99.8819 240.847 99.5881C240.855 98.647 240.851 97.7058 240.847 96.7647C240.847 96.1137 240.847 95.459 240.851 94.8044C240.851 93.4354 240.851 92.0628 240.843 90.6939C240.836 88.9381 240.84 87.1787 240.847 85.4229C240.851 84.0726 240.851 82.7223 240.847 81.372C240.847 80.7247 240.847 80.0775 240.851 79.4302C240.855 78.5226 240.847 77.6186 240.843 76.7147C240.843 76.4469 240.847 76.1791 240.851 75.9001C240.847 74.4531 240.847 74.4531 240.128 73.2367C239.939 73.0916 239.754 72.9465 239.561 72.7977C239.421 71.905 239.421 71.905 239.424 70.856C239.424 70.4803 239.424 70.1008 239.424 69.714C239.428 69.3197 239.436 68.9254 239.443 68.5199C239.44 67.9284 239.44 67.9284 239.44 67.3258C239.459 64.3909 239.459 64.3909 240.317 63.1261Z" fill="#6C55F9"/>
<rect width="9.69648" height="79.5111" transform="matrix(-1 0 0 1 291.272 461.553)" fill="#DBDBDB"/>
<rect width="9.69648" height="232.716" transform="matrix(0 -1 -1 0 290.302 471.249)" fill="#DBDBDB"/>
<g filter="url(#filter0_d_57_274)">
<rect x="58.5143" y="560.457" width="19.393" height="232.716" transform="rotate(-90 58.5143 560.457)" fill="#FAC14D"/>
<rect x="59.0143" y="559.957" width="18.393" height="231.716" transform="rotate(-90 59.0143 559.957)" stroke="#575757"/>
</g>
<rect x="59.0143" y="661.77" width="18.393" height="231.716" transform="rotate(-90 59.0143 661.77)" fill="#FAC14D" stroke="#575757"/>
<rect x="59.0143" y="586.137" width="18.393" height="231.716" transform="rotate(-90 59.0143 586.137)" fill="#FAC14D" stroke="#575757"/>
<rect x="59.0143" y="611.348" width="18.393" height="231.716" transform="rotate(-90 59.0143 611.348)" fill="#FAC14D" stroke="#575757"/>
<rect x="59.0143" y="636.559" width="18.393" height="231.716" transform="rotate(-90 59.0143 636.559)" fill="#FAC14D" stroke="#575757"/>
<rect x="59.0143" y="559.987" width="17.4233" height="83.3594" fill="#FAC14D" stroke="#575757"/>
<rect x="273.307" y="559.987" width="17.4233" height="83.3594" fill="#FAC14D" stroke="#575757"/>
<g filter="url(#filter1_di_57_274)">
<circle cx="282.503" cy="550.76" r="2.90894" fill="#E9E7F4"/>
</g>
<g filter="url(#filter2_di_57_274)">
<circle cx="68.2107" cy="550.76" r="2.90894" fill="#E9E7F4"/>
</g>
<g filter="url(#filter3_di_57_274)">
<circle cx="282.503" cy="652.573" r="2.90894" fill="#E9E7F4"/>
</g>
<g filter="url(#filter4_di_57_274)">
<circle cx="68.2107" cy="652.573" r="2.90894" fill="#E9E7F4"/>
</g>
<rect width="5" height="80" transform="matrix(-1 0 0 1 62.9999 461.298)" fill="#999999"/>
<rect width="5.81789" height="81.4504" transform="matrix(-1 0 0 1 64.3741 251.139)" fill="#555555" fill-opacity="0.5"/>
<rect width="5.81789" height="232.716" transform="matrix(0 -1 -1 0 291.23 461.553)" fill="#555555" fill-opacity="0.3"/>
<rect x="58.5143" y="559.487" width="18.4233" height="3.87859" fill="black" fill-opacity="0.25"/>
<rect x="272.807" y="559.487" width="18.4233" height="3.87859" fill="black" fill-opacity="0.25"/>
<rect x="287.351" y="642.877" width="79.5111" height="3.87859" transform="rotate(-90 287.351 642.877)" fill="black" fill-opacity="0.25"/>
<rect x="58.5143" y="642.877" width="79.5111" height="3.87859" transform="rotate(-90 58.5143 642.877)" fill="black" fill-opacity="0.25"/>
<rect x="58.5143" y="559.487" width="15.5144" height="3.87859" transform="rotate(-90 58.5143 559.487)" fill="black" fill-opacity="0.25"/>
<rect x="287.351" y="559.487" width="15.5144" height="3.87859" transform="rotate(-90 287.351 559.487)" fill="black" fill-opacity="0.25"/>
<rect x="58.5143" y="659.361" width="16.484" height="3.87859" transform="rotate(-90 58.5143 659.361)" fill="black" fill-opacity="0.25"/>
<rect x="287.351" y="659.361" width="16.484" height="3.87859" transform="rotate(-90 287.351 659.361)" fill="black" fill-opacity="0.25"/>
<rect x="58.5143" y="541.064" width="232.716" height="2.90894" fill="black" fill-opacity="0.25"/>
<rect x="58.5143" y="659.361" width="232.716" height="2.90894" fill="black" fill-opacity="0.25"/>
<rect x="76.9376" y="567.244" width="195.869" height="2.90894" fill="black" fill-opacity="0.25"/>
<rect x="76.9376" y="559.487" width="195.869" height="0.969648" fill="black" fill-opacity="0.25"/>
<rect x="76.9376" y="592.455" width="195.869" height="2.90894" fill="black" fill-opacity="0.25"/>
<rect x="76.9376" y="617.666" width="195.869" height="2.90894" fill="black" fill-opacity="0.25"/>
<rect width="9.69648" height="79.5111" transform="matrix(-1 0 0 1 291.272 251.139)" fill="#DBDBDB"/>
<rect width="9.69648" height="232.716" transform="matrix(0 -1 -1 0 291.272 260.835)" fill="#DBDBDB"/>
<g filter="url(#filter5_d_57_274)">
<rect x="58.5144" y="350.043" width="19.393" height="232.716" transform="rotate(-90 58.5144 350.043)" fill="#FAC14D"/>
<rect x="59.0144" y="349.543" width="18.393" height="231.716" transform="rotate(-90 59.0144 349.543)" stroke="#575757"/>
</g>
<rect x="59.0144" y="451.356" width="18.393" height="231.716" transform="rotate(-90 59.0144 451.356)" fill="#FAC14D" stroke="#575757"/>
<rect x="59.0144" y="375.723" width="18.393" height="231.716" transform="rotate(-90 59.0144 375.723)" fill="#FAC14D" stroke="#575757"/>
<rect x="59.0144" y="400.934" width="18.393" height="231.716" transform="rotate(-90 59.0144 400.934)" fill="#FAC14D" stroke="#575757"/>
<rect x="59.0144" y="426.145" width="18.393" height="231.716" transform="rotate(-90 59.0144 426.145)" fill="#FAC14D" stroke="#575757"/>
<rect x="59.0144" y="349.573" width="17.4233" height="83.3594" fill="#FAC14D" stroke="#575757"/>
<rect x="273.307" y="349.573" width="17.4233" height="83.3594" fill="#FAC14D" stroke="#575757"/>
<g filter="url(#filter6_di_57_274)">
<circle cx="282.503" cy="340.346" r="2.90894" fill="#E9E7F4"/>
</g>
<g filter="url(#filter7_di_57_274)">
<circle cx="68.2108" cy="340.346" r="2.90894" fill="#E9E7F4"/>
</g>
<g filter="url(#filter8_di_57_274)">
<circle cx="282.503" cy="442.159" r="2.90894" fill="#E9E7F4"/>
</g>
<g filter="url(#filter9_di_57_274)">
<circle cx="68.2108" cy="442.159" r="2.90894" fill="#E9E7F4"/>
</g>
<rect width="5.81789" height="79.5111" transform="matrix(-1 0 0 1 64.3323 251.139)" fill="#999999"/>
<rect width="5.81789" height="79.5111" transform="matrix(-1 0 0 1 64.3323 40.7252)" fill="#A8A8A8"/>
<rect x="58.5144" y="349.073" width="18.4233" height="3.87859" fill="black" fill-opacity="0.25"/>
<rect x="272.807" y="349.073" width="18.4233" height="3.87859" fill="black" fill-opacity="0.25"/>
<rect x="287.351" y="432.463" width="79.5111" height="3.87859" transform="rotate(-90 287.351 432.463)" fill="black" fill-opacity="0.25"/>
<rect x="58.5144" y="432.463" width="79.5111" height="3.87859" transform="rotate(-90 58.5144 432.463)" fill="black" fill-opacity="0.25"/>
<rect x="58.5144" y="349.073" width="15.5144" height="3.87859" transform="rotate(-90 58.5144 349.073)" fill="black" fill-opacity="0.25"/>
<rect x="287.351" y="349.073" width="15.5144" height="3.87859" transform="rotate(-90 287.351 349.073)" fill="black" fill-opacity="0.25"/>
<rect x="58.5144" y="448.947" width="16.484" height="3.87859" transform="rotate(-90 58.5144 448.947)" fill="black" fill-opacity="0.25"/>
<rect x="287.351" y="448.947" width="16.484" height="3.87859" transform="rotate(-90 287.351 448.947)" fill="black" fill-opacity="0.25"/>
<rect x="58.5144" y="330.65" width="232.716" height="2.90894" fill="black" fill-opacity="0.25"/>
<rect x="58.5144" y="448.947" width="232.716" height="2.90894" fill="black" fill-opacity="0.25"/>
<rect x="76.9376" y="356.83" width="195.869" height="2.90894" fill="black" fill-opacity="0.25"/>
<rect x="76.9376" y="349.073" width="195.869" height="0.969648" fill="black" fill-opacity="0.25"/>
<rect x="76.9376" y="382.041" width="195.869" height="2.90894" fill="black" fill-opacity="0.25"/>
<rect x="76.9376" y="407.252" width="195.869" height="2.90894" fill="black" fill-opacity="0.25"/>
<rect width="9.69648" height="94.0559" transform="matrix(-1 0 0 1 291.272 40.7252)" fill="#DBDBDB"/>
<rect width="9.69648" height="232.716" transform="matrix(0 -1 -1 0 291.272 50.4217)" fill="#DBDBDB"/>
<g filter="url(#filter10_d_57_274)">
<rect x="58.5144" y="139.629" width="19.393" height="232.716" transform="rotate(-90 58.5144 139.629)" fill="#FAC14D"/>
<rect x="59.0144" y="139.129" width="18.393" height="231.716" transform="rotate(-90 59.0144 139.129)" stroke="#575757"/>
</g>
<rect x="59.0144" y="240.942" width="18.393" height="231.716" transform="rotate(-90 59.0144 240.942)" fill="#FAC14D" stroke="#575757"/>
<rect x="59.0144" y="165.31" width="18.393" height="231.716" transform="rotate(-90 59.0144 165.31)" fill="#FAC14D" stroke="#575757"/>
<rect x="59.0144" y="190.521" width="18.393" height="231.716" transform="rotate(-90 59.0144 190.521)" fill="#FAC14D" stroke="#575757"/>
<rect x="59.0144" y="215.731" width="18.393" height="231.716" transform="rotate(-90 59.0144 215.731)" fill="#FAC14D" stroke="#575757"/>
<rect x="59.0144" y="139.16" width="17.4233" height="83.3594" fill="#FAC14D" stroke="#575757"/>
<rect x="273.307" y="139.16" width="17.4233" height="83.3594" fill="#FAC14D" stroke="#575757"/>
<rect width="5.81789" height="79.5111" transform="matrix(-1 0 0 1 64.3324 40.7252)" fill="#999999"/>
<g filter="url(#filter11_di_57_274)">
<circle cx="282.503" cy="129.933" r="2.90894" fill="#E9E7F4"/>
</g>
<g filter="url(#filter12_di_57_274)">
<circle cx="68.2108" cy="129.933" r="2.90894" fill="#E9E7F4"/>
</g>
<g filter="url(#filter13_di_57_274)">
<circle cx="282.503" cy="231.746" r="2.90894" fill="#E9E7F4"/>
</g>
<g filter="url(#filter14_di_57_274)">
<circle cx="68.2108" cy="231.746" r="2.90894" fill="#E9E7F4"/>
</g>
<rect x="58.5144" y="138.66" width="18.4233" height="3.87859" fill="black" fill-opacity="0.25"/>
<rect x="272.807" y="138.66" width="18.4233" height="3.87859" fill="black" fill-opacity="0.25"/>
<rect x="287.351" y="222.049" width="79.5111" height="3.87859" transform="rotate(-90 287.351 222.049)" fill="black" fill-opacity="0.25"/>
<rect x="58.5144" y="222.049" width="79.5111" height="3.87859" transform="rotate(-90 58.5144 222.049)" fill="black" fill-opacity="0.25"/>
<rect x="58.5144" y="138.66" width="15.5144" height="3.87859" transform="rotate(-90 58.5144 138.66)" fill="black" fill-opacity="0.25"/>
<rect x="287.351" y="138.66" width="15.5144" height="3.87859" transform="rotate(-90 287.351 138.66)" fill="black" fill-opacity="0.25"/>
<rect x="58.5144" y="238.533" width="16.484" height="3.87859" transform="rotate(-90 58.5144 238.533)" fill="black" fill-opacity="0.25"/>
<rect x="287.351" y="238.533" width="16.484" height="3.87859" transform="rotate(-90 287.351 238.533)" fill="black" fill-opacity="0.25"/>
<rect x="58.5144" y="120.236" width="232.716" height="2.90894" fill="black" fill-opacity="0.25"/>
<rect x="58.5144" y="238.533" width="232.716" height="2.90894" fill="black" fill-opacity="0.25"/>
<rect x="76.9376" y="146.417" width="195.869" height="2.90894" fill="black" fill-opacity="0.25"/>
<rect x="76.9376" y="138.66" width="195.869" height="0.969648" fill="black" fill-opacity="0.25"/>
<rect x="76.9376" y="171.628" width="195.869" height="2.90894" fill="black" fill-opacity="0.25"/>
<rect x="76.9376" y="196.839" width="195.869" height="2.90894" fill="black" fill-opacity="0.25"/>
<rect x="43" y="671.966" width="9.69648" height="263.744" transform="rotate(-90 43 671.966)" fill="black"/>
<rect x="43" y="461.552" width="9.69648" height="263.744" transform="rotate(-90 43 461.552)" fill="black"/>
<rect x="43" y="251.139" width="9.69648" height="263.744" transform="rotate(-90 43 251.139)" fill="black"/>
<rect x="43" y="40.9689" width="10.0078" height="263.843" transform="rotate(-90 43 40.9689)" fill="black"/>
<rect x="48.8599" y="5.81793" width="9.69648" height="681.663" fill="black"/>
<rect x="291.272" y="5.81793" width="9.69648" height="681.663" fill="black"/>
<g filter="url(#filter15_i_57_274)">
<path d="M306.786 2.00001C306.786 0.895437 305.891 0 304.786 0H300.968V687.48H306.786V2.00001Z" fill="#787878"/>
</g>
<rect x="56.5751" y="671.966" width="235.624" height="5.81789" fill="black" fill-opacity="0.25"/>
<g filter="url(#filter16_i_57_274)">
<rect x="58.4667" y="25.5023" width="232.91" height="5.45882" fill="#787878"/>
</g>
<g filter="url(#filter17_i_57_274)">
<path d="M43 687.481H58.5144V691.298C58.5144 692.403 57.6189 693.298 56.5144 693.298H45C43.8954 693.298 43 692.403 43 691.298V687.481Z" fill="#787878"/>
</g>
<g filter="url(#filter18_i_57_274)">
<path d="M291.23 687.481H306.744V691.298C306.744 692.403 305.849 693.298 304.744 693.298H293.23C292.125 693.298 291.23 692.403 291.23 691.298V687.481Z" fill="#787878"/>
</g>
<g filter="url(#filter19_i_57_274)">
<path d="M48.8599 0H45.042C43.9374 0 43.042 0.895431 43.042 2V687.48H48.8599V0Z" fill="#787878"/>
</g>
<g filter="url(#filter20_i_57_274)">
<path d="M306.786 5.81793L291.272 5.81793L291.272 2.00005C291.272 0.895476 292.167 4.56239e-05 293.272 4.55273e-05L304.786 4.45207e-05C305.891 4.44241e-05 306.786 0.895475 306.786 2.00004L306.786 5.81793Z" fill="#787878"/>
</g>
<g filter="url(#filter21_i_57_274)">
<path d="M58.5564 5.81793L43.042 5.81793L43.042 2.00005C43.042 0.895476 43.9375 4.56239e-05 45.042 4.55273e-05L56.5564 4.45207e-05C57.661 4.44241e-05 58.5564 0.895475 58.5564 2.00004L58.5564 5.81793Z" fill="#787878"/>
</g>
<defs>
<filter id="filter0_d_57_274" x="58.5143" y="541.064" width="232.715" height="19.3929" filterUnits="userSpaceOnUse" color-interpolation-filters="sRGB">
<feFlood flood-opacity="0" result="BackgroundImageFix"/>
<feColorMatrix in="SourceAlpha" type="matrix" values="0 0 0 0 0 0 0 0 0 0 0 0 0 0 0 0 0 0 127 0" result="hardAlpha"/>
<feOffset/>
<feComposite in2="hardAlpha" operator="out"/>
<feColorMatrix type="matrix" values="0 0 0 0 0 0 0 0 0 0 0 0 0 0 0 0 0 0 0.25 0"/>
<feBlend mode="normal" in2="BackgroundImageFix" result="effect1_dropShadow_57_274"/>
<feBlend mode="normal" in="SourceGraphic" in2="effect1_dropShadow_57_274" result="shape"/>
</filter>
<filter id="filter1_di_57_274" x="279.594" y="547.851" width="6.31787" height="6.31787" filterUnits="userSpaceOnUse" color-interpolation-filters="sRGB">
<feFlood flood-opacity="0" result="BackgroundImageFix"/>
<feColorMatrix in="SourceAlpha" type="matrix" values="0 0 0 0 0 0 0 0 0 0 0 0 0 0 0 0 0 0 127 0" result="hardAlpha"/>
<feOffset dx="0.5" dy="0.5"/>
<feComposite in2="hardAlpha" operator="out"/>
<feColorMatrix type="matrix" values="0 0 0 0 0 0 0 0 0 0 0 0 0 0 0 0 0 0 0.25 0"/>
<feBlend mode="normal" in2="BackgroundImageFix" result="effect1_dropShadow_57_274"/>
<feBlend mode="normal" in="SourceGraphic" in2="effect1_dropShadow_57_274" result="shape"/>
<feColorMatrix in="SourceAlpha" type="matrix" values="0 0 0 0 0 0 0 0 0 0 0 0 0 0 0 0 0 0 127 0" result="hardAlpha"/>
<feOffset dx="0.5" dy="0.5"/>
<feComposite in2="hardAlpha" operator="arithmetic" k2="-1" k3="1"/>
<feColorMatrix type="matrix" values="0 0 0 0 0 0 0 0 0 0 0 0 0 0 0 0 0 0 0.25 0"/>
<feBlend mode="normal" in2="shape" result="effect2_innerShadow_57_274"/>
</filter>
<filter id="filter2_di_57_274" x="65.3018" y="547.851" width="6.31787" height="6.31787" filterUnits="userSpaceOnUse" color-interpolation-filters="sRGB">
<feFlood flood-opacity="0" result="BackgroundImageFix"/>
<feColorMatrix in="SourceAlpha" type="matrix" values="0 0 0 0 0 0 0 0 0 0 0 0 0 0 0 0 0 0 127 0" result="hardAlpha"/>
<feOffset dx="0.5" dy="0.5"/>
<feComposite in2="hardAlpha" operator="out"/>
<feColorMatrix type="matrix" values="0 0 0 0 0 0 0 0 0 0 0 0 0 0 0 0 0 0 0.25 0"/>
<feBlend mode="normal" in2="BackgroundImageFix" result="effect1_dropShadow_57_274"/>
<feBlend mode="normal" in="SourceGraphic" in2="effect1_dropShadow_57_274" result="shape"/>
<feColorMatrix in="SourceAlpha" type="matrix" values="0 0 0 0 0 0 0 0 0 0 0 0 0 0 0 0 0 0 127 0" result="hardAlpha"/>
<feOffset dx="0.5" dy="0.5"/>
<feComposite in2="hardAlpha" operator="arithmetic" k2="-1" k3="1"/>
<feColorMatrix type="matrix" values="0 0 0 0 0 0 0 0 0 0 0 0 0 0 0 0 0 0 0.25 0"/>
<feBlend mode="normal" in2="shape" result="effect2_innerShadow_57_274"/>
</filter>
<filter id="filter3_di_57_274" x="279.594" y="649.664" width="6.31787" height="6.31787" filterUnits="userSpaceOnUse" color-interpolation-filters="sRGB">
<feFlood flood-opacity="0" result="BackgroundImageFix"/>
<feColorMatrix in="SourceAlpha" type="matrix" values="0 0 0 0 0 0 0 0 0 0 0 0 0 0 0 0 0 0 127 0" result="hardAlpha"/>
<feOffset dx="0.5" dy="0.5"/>
<feComposite in2="hardAlpha" operator="out"/>
<feColorMatrix type="matrix" values="0 0 0 0 0 0 0 0 0 0 0 0 0 0 0 0 0 0 0.25 0"/>
<feBlend mode="normal" in2="BackgroundImageFix" result="effect1_dropShadow_57_274"/>
<feBlend mode="normal" in="SourceGraphic" in2="effect1_dropShadow_57_274" result="shape"/>
<feColorMatrix in="SourceAlpha" type="matrix" values="0 0 0 0 0 0 0 0 0 0 0 0 0 0 0 0 0 0 127 0" result="hardAlpha"/>
<feOffset dx="0.5" dy="0.5"/>
<feComposite in2="hardAlpha" operator="arithmetic" k2="-1" k3="1"/>
<feColorMatrix type="matrix" values="0 0 0 0 0 0 0 0 0 0 0 0 0 0 0 0 0 0 0.25 0"/>
<feBlend mode="normal" in2="shape" result="effect2_innerShadow_57_274"/>
</filter>
<filter id="filter4_di_57_274" x="65.3018" y="649.664" width="6.31787" height="6.31787" filterUnits="userSpaceOnUse" color-interpolation-filters="sRGB">
<feFlood flood-opacity="0" result="BackgroundImageFix"/>
<feColorMatrix in="SourceAlpha" type="matrix" values="0 0 0 0 0 0 0 0 0 0 0 0 0 0 0 0 0 0 127 0" result="hardAlpha"/>
<feOffset dx="0.5" dy="0.5"/>
<feComposite in2="hardAlpha" operator="out"/>
<feColorMatrix type="matrix" values="0 0 0 0 0 0 0 0 0 0 0 0 0 0 0 0 0 0 0.25 0"/>
<feBlend mode="normal" in2="BackgroundImageFix" result="effect1_dropShadow_57_274"/>
<feBlend mode="normal" in="SourceGraphic" in2="effect1_dropShadow_57_274" result="shape"/>
<feColorMatrix in="SourceAlpha" type="matrix" values="0 0 0 0 0 0 0 0 0 0 0 0 0 0 0 0 0 0 127 0" result="hardAlpha"/>
<feOffset dx="0.5" dy="0.5"/>
<feComposite in2="hardAlpha" operator="arithmetic" k2="-1" k3="1"/>
<feColorMatrix type="matrix" values="0 0 0 0 0 0 0 0 0 0 0 0 0 0 0 0 0 0 0.25 0"/>
<feBlend mode="normal" in2="shape" result="effect2_innerShadow_57_274"/>
</filter>
<filter id="filter5_d_57_274" x="58.5144" y="330.65" width="232.716" height="19.3929" filterUnits="userSpaceOnUse" color-interpolation-filters="sRGB">
<feFlood flood-opacity="0" result="BackgroundImageFix"/>
<feColorMatrix in="SourceAlpha" type="matrix" values="0 0 0 0 0 0 0 0 0 0 0 0 0 0 0 0 0 0 127 0" result="hardAlpha"/>
<feOffset/>
<feComposite in2="hardAlpha" operator="out"/>
<feColorMatrix type="matrix" values="0 0 0 0 0 0 0 0 0 0 0 0 0 0 0 0 0 0 0.25 0"/>
<feBlend mode="normal" in2="BackgroundImageFix" result="effect1_dropShadow_57_274"/>
<feBlend mode="normal" in="SourceGraphic" in2="effect1_dropShadow_57_274" result="shape"/>
</filter>
<filter id="filter6_di_57_274" x="279.594" y="337.437" width="6.31787" height="6.31787" filterUnits="userSpaceOnUse" color-interpolation-filters="sRGB">
<feFlood flood-opacity="0" result="BackgroundImageFix"/>
<feColorMatrix in="SourceAlpha" type="matrix" values="0 0 0 0 0 0 0 0 0 0 0 0 0 0 0 0 0 0 127 0" result="hardAlpha"/>
<feOffset dx="0.5" dy="0.5"/>
<feComposite in2="hardAlpha" operator="out"/>
<feColorMatrix type="matrix" values="0 0 0 0 0 0 0 0 0 0 0 0 0 0 0 0 0 0 0.25 0"/>
<feBlend mode="normal" in2="BackgroundImageFix" result="effect1_dropShadow_57_274"/>
<feBlend mode="normal" in="SourceGraphic" in2="effect1_dropShadow_57_274" result="shape"/>
<feColorMatrix in="SourceAlpha" type="matrix" values="0 0 0 0 0 0 0 0 0 0 0 0 0 0 0 0 0 0 127 0" result="hardAlpha"/>
<feOffset dx="0.5" dy="0.5"/>
<feComposite in2="hardAlpha" operator="arithmetic" k2="-1" k3="1"/>
<feColorMatrix type="matrix" values="0 0 0 0 0 0 0 0 0 0 0 0 0 0 0 0 0 0 0.25 0"/>
<feBlend mode="normal" in2="shape" result="effect2_innerShadow_57_274"/>
</filter>
<filter id="filter7_di_57_274" x="65.3019" y="337.437" width="6.31787" height="6.31787" filterUnits="userSpaceOnUse" color-interpolation-filters="sRGB">
<feFlood flood-opacity="0" result="BackgroundImageFix"/>
<feColorMatrix in="SourceAlpha" type="matrix" values="0 0 0 0 0 0 0 0 0 0 0 0 0 0 0 0 0 0 127 0" result="hardAlpha"/>
<feOffset dx="0.5" dy="0.5"/>
<feComposite in2="hardAlpha" operator="out"/>
<feColorMatrix type="matrix" values="0 0 0 0 0 0 0 0 0 0 0 0 0 0 0 0 0 0 0.25 0"/>
<feBlend mode="normal" in2="BackgroundImageFix" result="effect1_dropShadow_57_274"/>
<feBlend mode="normal" in="SourceGraphic" in2="effect1_dropShadow_57_274" result="shape"/>
<feColorMatrix in="SourceAlpha" type="matrix" values="0 0 0 0 0 0 0 0 0 0 0 0 0 0 0 0 0 0 127 0" result="hardAlpha"/>
<feOffset dx="0.5" dy="0.5"/>
<feComposite in2="hardAlpha" operator="arithmetic" k2="-1" k3="1"/>
<feColorMatrix type="matrix" values="0 0 0 0 0 0 0 0 0 0 0 0 0 0 0 0 0 0 0.25 0"/>
<feBlend mode="normal" in2="shape" result="effect2_innerShadow_57_274"/>
</filter>
<filter id="filter8_di_57_274" x="279.594" y="439.25" width="6.31787" height="6.31787" filterUnits="userSpaceOnUse" color-interpolation-filters="sRGB">
<feFlood flood-opacity="0" result="BackgroundImageFix"/>
<feColorMatrix in="SourceAlpha" type="matrix" values="0 0 0 0 0 0 0 0 0 0 0 0 0 0 0 0 0 0 127 0" result="hardAlpha"/>
<feOffset dx="0.5" dy="0.5"/>
<feComposite in2="hardAlpha" operator="out"/>
<feColorMatrix type="matrix" values="0 0 0 0 0 0 0 0 0 0 0 0 0 0 0 0 0 0 0.25 0"/>
<feBlend mode="normal" in2="BackgroundImageFix" result="effect1_dropShadow_57_274"/>
<feBlend mode="normal" in="SourceGraphic" in2="effect1_dropShadow_57_274" result="shape"/>
<feColorMatrix in="SourceAlpha" type="matrix" values="0 0 0 0 0 0 0 0 0 0 0 0 0 0 0 0 0 0 127 0" result="hardAlpha"/>
<feOffset dx="0.5" dy="0.5"/>
<feComposite in2="hardAlpha" operator="arithmetic" k2="-1" k3="1"/>
<feColorMatrix type="matrix" values="0 0 0 0 0 0 0 0 0 0 0 0 0 0 0 0 0 0 0.25 0"/>
<feBlend mode="normal" in2="shape" result="effect2_innerShadow_57_274"/>
</filter>
<filter id="filter9_di_57_274" x="65.3019" y="439.25" width="6.31787" height="6.31787" filterUnits="userSpaceOnUse" color-interpolation-filters="sRGB">
<feFlood flood-opacity="0" result="BackgroundImageFix"/>
<feColorMatrix in="SourceAlpha" type="matrix" values="0 0 0 0 0 0 0 0 0 0 0 0 0 0 0 0 0 0 127 0" result="hardAlpha"/>
<feOffset dx="0.5" dy="0.5"/>
<feComposite in2="hardAlpha" operator="out"/>
<feColorMatrix type="matrix" values="0 0 0 0 0 0 0 0 0 0 0 0 0 0 0 0 0 0 0.25 0"/>
<feBlend mode="normal" in2="BackgroundImageFix" result="effect1_dropShadow_57_274"/>
<feBlend mode="normal" in="SourceGraphic" in2="effect1_dropShadow_57_274" result="shape"/>
<feColorMatrix in="SourceAlpha" type="matrix" values="0 0 0 0 0 0 0 0 0 0 0 0 0 0 0 0 0 0 127 0" result="hardAlpha"/>
<feOffset dx="0.5" dy="0.5"/>
<feComposite in2="hardAlpha" operator="arithmetic" k2="-1" k3="1"/>
<feColorMatrix type="matrix" values="0 0 0 0 0 0 0 0 0 0 0 0 0 0 0 0 0 0 0.25 0"/>
<feBlend mode="normal" in2="shape" result="effect2_innerShadow_57_274"/>
</filter>
<filter id="filter10_d_57_274" x="58.5144" y="120.236" width="232.716" height="19.3929" filterUnits="userSpaceOnUse" color-interpolation-filters="sRGB">
<feFlood flood-opacity="0" result="BackgroundImageFix"/>
<feColorMatrix in="SourceAlpha" type="matrix" values="0 0 0 0 0 0 0 0 0 0 0 0 0 0 0 0 0 0 127 0" result="hardAlpha"/>
<feOffset/>
<feComposite in2="hardAlpha" operator="out"/>
<feColorMatrix type="matrix" values="0 0 0 0 0 0 0 0 0 0 0 0 0 0 0 0 0 0 0.25 0"/>
<feBlend mode="normal" in2="BackgroundImageFix" result="effect1_dropShadow_57_274"/>
<feBlend mode="normal" in="SourceGraphic" in2="effect1_dropShadow_57_274" result="shape"/>
</filter>
<filter id="filter11_di_57_274" x="279.594" y="127.024" width="6.31787" height="6.31787" filterUnits="userSpaceOnUse" color-interpolation-filters="sRGB">
<feFlood flood-opacity="0" result="BackgroundImageFix"/>
<feColorMatrix in="SourceAlpha" type="matrix" values="0 0 0 0 0 0 0 0 0 0 0 0 0 0 0 0 0 0 127 0" result="hardAlpha"/>
<feOffset dx="0.5" dy="0.5"/>
<feComposite in2="hardAlpha" operator="out"/>
<feColorMatrix type="matrix" values="0 0 0 0 0 0 0 0 0 0 0 0 0 0 0 0 0 0 0.25 0"/>
<feBlend mode="normal" in2="BackgroundImageFix" result="effect1_dropShadow_57_274"/>
<feBlend mode="normal" in="SourceGraphic" in2="effect1_dropShadow_57_274" result="shape"/>
<feColorMatrix in="SourceAlpha" type="matrix" values="0 0 0 0 0 0 0 0 0 0 0 0 0 0 0 0 0 0 127 0" result="hardAlpha"/>
<feOffset dx="0.5" dy="0.5"/>
<feComposite in2="hardAlpha" operator="arithmetic" k2="-1" k3="1"/>
<feColorMatrix type="matrix" values="0 0 0 0 0 0 0 0 0 0 0 0 0 0 0 0 0 0 0.25 0"/>
<feBlend mode="normal" in2="shape" result="effect2_innerShadow_57_274"/>
</filter>
<filter id="filter12_di_57_274" x="65.3019" y="127.024" width="6.31787" height="6.31787" filterUnits="userSpaceOnUse" color-interpolation-filters="sRGB">
<feFlood flood-opacity="0" result="BackgroundImageFix"/>
<feColorMatrix in="SourceAlpha" type="matrix" values="0 0 0 0 0 0 0 0 0 0 0 0 0 0 0 0 0 0 127 0" result="hardAlpha"/>
<feOffset dx="0.5" dy="0.5"/>
<feComposite in2="hardAlpha" operator="out"/>
<feColorMatrix type="matrix" values="0 0 0 0 0 0 0 0 0 0 0 0 0 0 0 0 0 0 0.25 0"/>
<feBlend mode="normal" in2="BackgroundImageFix" result="effect1_dropShadow_57_274"/>
<feBlend mode="normal" in="SourceGraphic" in2="effect1_dropShadow_57_274" result="shape"/>
<feColorMatrix in="SourceAlpha" type="matrix" values="0 0 0 0 0 0 0 0 0 0 0 0 0 0 0 0 0 0 127 0" result="hardAlpha"/>
<feOffset dx="0.5" dy="0.5"/>
<feComposite in2="hardAlpha" operator="arithmetic" k2="-1" k3="1"/>
<feColorMatrix type="matrix" values="0 0 0 0 0 0 0 0 0 0 0 0 0 0 0 0 0 0 0.25 0"/>
<feBlend mode="normal" in2="shape" result="effect2_innerShadow_57_274"/>
</filter>
<filter id="filter13_di_57_274" x="279.594" y="228.837" width="6.31787" height="6.31787" filterUnits="userSpaceOnUse" color-interpolation-filters="sRGB">
<feFlood flood-opacity="0" result="BackgroundImageFix"/>
<feColorMatrix in="SourceAlpha" type="matrix" values="0 0 0 0 0 0 0 0 0 0 0 0 0 0 0 0 0 0 127 0" result="hardAlpha"/>
<feOffset dx="0.5" dy="0.5"/>
<feComposite in2="hardAlpha" operator="out"/>
<feColorMatrix type="matrix" values="0 0 0 0 0 0 0 0 0 0 0 0 0 0 0 0 0 0 0.25 0"/>
<feBlend mode="normal" in2="BackgroundImageFix" result="effect1_dropShadow_57_274"/>
<feBlend mode="normal" in="SourceGraphic" in2="effect1_dropShadow_57_274" result="shape"/>
<feColorMatrix in="SourceAlpha" type="matrix" values="0 0 0 0 0 0 0 0 0 0 0 0 0 0 0 0 0 0 127 0" result="hardAlpha"/>
<feOffset dx="0.5" dy="0.5"/>
<feComposite in2="hardAlpha" operator="arithmetic" k2="-1" k3="1"/>
<feColorMatrix type="matrix" values="0 0 0 0 0 0 0 0 0 0 0 0 0 0 0 0 0 0 0.25 0"/>
<feBlend mode="normal" in2="shape" result="effect2_innerShadow_57_274"/>
</filter>
<filter id="filter14_di_57_274" x="65.3019" y="228.837" width="6.31787" height="6.31787" filterUnits="userSpaceOnUse" color-interpolation-filters="sRGB">
<feFlood flood-opacity="0" result="BackgroundImageFix"/>
<feColorMatrix in="SourceAlpha" type="matrix" values="0 0 0 0 0 0 0 0 0 0 0 0 0 0 0 0 0 0 127 0" result="hardAlpha"/>
<feOffset dx="0.5" dy="0.5"/>
<feComposite in2="hardAlpha" operator="out"/>
<feColorMatrix type="matrix" values="0 0 0 0 0 0 0 0 0 0 0 0 0 0 0 0 0 0 0.25 0"/>
<feBlend mode="normal" in2="BackgroundImageFix" result="effect1_dropShadow_57_274"/>
<feBlend mode="normal" in="SourceGraphic" in2="effect1_dropShadow_57_274" result="shape"/>
<feColorMatrix in="SourceAlpha" type="matrix" values="0 0 0 0 0 0 0 0 0 0 0 0 0 0 0 0 0 0 127 0" result="hardAlpha"/>
<feOffset dx="0.5" dy="0.5"/>
<feComposite in2="hardAlpha" operator="arithmetic" k2="-1" k3="1"/>
<feColorMatrix type="matrix" values="0 0 0 0 0 0 0 0 0 0 0 0 0 0 0 0 0 0 0.25 0"/>
<feBlend mode="normal" in2="shape" result="effect2_innerShadow_57_274"/>
</filter>
<filter id="filter15_i_57_274" x="300.968" y="0" width="5.81787" height="687.48" filterUnits="userSpaceOnUse" color-interpolation-filters="sRGB">
<feFlood flood-opacity="0" result="BackgroundImageFix"/>
<feBlend mode="normal" in="SourceGraphic" in2="BackgroundImageFix" result="shape"/>
<feColorMatrix in="SourceAlpha" type="matrix" values="0 0 0 0 0 0 0 0 0 0 0 0 0 0 0 0 0 0 127 0" result="hardAlpha"/>
<feOffset dx="4"/>
<feComposite in2="hardAlpha" operator="arithmetic" k2="-1" k3="1"/>
<feColorMatrix type="matrix" values="0 0 0 0 0 0 0 0 0 0 0 0 0 0 0 0 0 0 0.25 0"/>
<feBlend mode="normal" in2="shape" result="effect1_innerShadow_57_274"/>
</filter>
<filter id="filter16_i_57_274" x="58.4667" y="25.5023" width="232.91" height="5.4588" filterUnits="userSpaceOnUse" color-interpolation-filters="sRGB">
<feFlood flood-opacity="0" result="BackgroundImageFix"/>
<feBlend mode="normal" in="SourceGraphic" in2="BackgroundImageFix" result="shape"/>
<feColorMatrix in="SourceAlpha" type="matrix" values="0 0 0 0 0 0 0 0 0 0 0 0 0 0 0 0 0 0 127 0" result="hardAlpha"/>
<feOffset dy="4"/>
<feComposite in2="hardAlpha" operator="arithmetic" k2="-1" k3="1"/>
<feColorMatrix type="matrix" values="0 0 0 0 0 0 0 0 0 0 0 0 0 0 0 0 0 0 0.25 0"/>
<feBlend mode="normal" in2="shape" result="effect1_innerShadow_57_274"/>
</filter>
<filter id="filter17_i_57_274" x="43" y="687.481" width="15.5144" height="5.81787" filterUnits="userSpaceOnUse" color-interpolation-filters="sRGB">
<feFlood flood-opacity="0" result="BackgroundImageFix"/>
<feBlend mode="normal" in="SourceGraphic" in2="BackgroundImageFix" result="shape"/>
<feColorMatrix in="SourceAlpha" type="matrix" values="0 0 0 0 0 0 0 0 0 0 0 0 0 0 0 0 0 0 127 0" result="hardAlpha"/>
<feOffset dy="4"/>
<feComposite in2="hardAlpha" operator="arithmetic" k2="-1" k3="1"/>
<feColorMatrix type="matrix" values="0 0 0 0 0 0 0 0 0 0 0 0 0 0 0 0 0 0 0.25 0"/>
<feBlend mode="normal" in2="shape" result="effect1_innerShadow_57_274"/>
</filter>
<filter id="filter18_i_57_274" x="291.23" y="687.481" width="15.5144" height="5.81787" filterUnits="userSpaceOnUse" color-interpolation-filters="sRGB">
<feFlood flood-opacity="0" result="BackgroundImageFix"/>
<feBlend mode="normal" in="SourceGraphic" in2="BackgroundImageFix" result="shape"/>
<feColorMatrix in="SourceAlpha" type="matrix" values="0 0 0 0 0 0 0 0 0 0 0 0 0 0 0 0 0 0 127 0" result="hardAlpha"/>
<feOffset dy="4"/>
<feComposite in2="hardAlpha" operator="arithmetic" k2="-1" k3="1"/>
<feColorMatrix type="matrix" values="0 0 0 0 0 0 0 0 0 0 0 0 0 0 0 0 0 0 0.25 0"/>
<feBlend mode="normal" in2="shape" result="effect1_innerShadow_57_274"/>
</filter>
<filter id="filter19_i_57_274" x="43.042" y="0" width="5.81787" height="687.48" filterUnits="userSpaceOnUse" color-interpolation-filters="sRGB">
<feFlood flood-opacity="0" result="BackgroundImageFix"/>
<feBlend mode="normal" in="SourceGraphic" in2="BackgroundImageFix" result="shape"/>
<feColorMatrix in="SourceAlpha" type="matrix" values="0 0 0 0 0 0 0 0 0 0 0 0 0 0 0 0 0 0 127 0" result="hardAlpha"/>
<feOffset dx="4"/>
<feComposite in2="hardAlpha" operator="arithmetic" k2="-1" k3="1"/>
<feColorMatrix type="matrix" values="0 0 0 0 0 0 0 0 0 0 0 0 0 0 0 0 0 0 0.25 0"/>
<feBlend mode="normal" in2="shape" result="effect1_innerShadow_57_274"/>
</filter>
<filter id="filter20_i_57_274" x="291.272" y="6.10352e-05" width="15.5144" height="5.81787" filterUnits="userSpaceOnUse" color-interpolation-filters="sRGB">
<feFlood flood-opacity="0" result="BackgroundImageFix"/>
<feBlend mode="normal" in="SourceGraphic" in2="BackgroundImageFix" result="shape"/>
<feColorMatrix in="SourceAlpha" type="matrix" values="0 0 0 0 0 0 0 0 0 0 0 0 0 0 0 0 0 0 127 0" result="hardAlpha"/>
<feOffset dy="4"/>
<feComposite in2="hardAlpha" operator="arithmetic" k2="-1" k3="1"/>
<feColorMatrix type="matrix" values="0 0 0 0 0 0 0 0 0 0 0 0 0 0 0 0 0 0 0.25 0"/>
<feBlend mode="normal" in2="shape" result="effect1_innerShadow_57_274"/>
</filter>
<filter id="filter21_i_57_274" x="43.042" y="6.10352e-05" width="15.5144" height="5.81787" filterUnits="userSpaceOnUse" color-interpolation-filters="sRGB">
<feFlood flood-opacity="0" result="BackgroundImageFix"/>
<feBlend mode="normal" in="SourceGraphic" in2="BackgroundImageFix" result="shape"/>
<feColorMatrix in="SourceAlpha" type="matrix" values="0 0 0 0 0 0 0 0 0 0 0 0 0 0 0 0 0 0 127 0" result="hardAlpha"/>
<feOffset dy="4"/>
<feComposite in2="hardAlpha" operator="arithmetic" k2="-1" k3="1"/>
<feColorMatrix type="matrix" values="0 0 0 0 0 0 0 0 0 0 0 0 0 0 0 0 0 0 0.25 0"/>
<feBlend mode="normal" in2="shape" result="effect1_innerShadow_57_274"/>
</filter>
</defs>
</svg>
