<svg width="400" height="399" viewBox="0 0 400 399" fill="none" xmlns="http://www.w3.org/2000/svg">
<path d="M42.86 330.461C120.193 321.128 284.54 317.052 339.36 352.961C390.46 386.434 336.561 395.832 307.46 393.433C277.46 390.961 285.46 386.434 195.961 390.961C129.887 394.303 109.158 408.372 47.9608 386.434C-5.03948 367.433 -24.04 338.535 42.86 330.461Z" fill="#E9E7F4"/>
<path d="M102.683 152.126C101.612 152.022 100.628 151.988 99.5612 152.003C99.0958 152.003 99.0958 152.003 98.6229 152.007C97.9721 152.007 97.3175 152.015 96.6667 152.022C95.6602 152.033 94.6576 152.037 93.6549 152.041C93.023 152.041 92.3874 152.048 91.7555 152.052C91.4528 152.052 91.1539 152.055 90.8398 152.055C88.7285 152.081 88.7285 152.081 88.3047 152.498C88.2707 153.242 88.2631 153.986 88.2669 154.73C88.2707 155.411 88.2707 155.411 88.2707 156.103C88.2745 156.813 88.2745 156.813 88.282 157.542C88.282 158.022 88.2858 158.498 88.2858 158.989C88.2896 160.172 88.2972 161.359 88.3047 162.542C88.8042 162.664 89.3036 162.787 89.8182 162.914C89.8485 166.585 89.8598 170.253 89.8485 173.924C89.8409 175.628 89.8409 177.332 89.8598 179.039C89.875 180.687 89.8712 182.331 89.8598 183.979C89.8561 184.608 89.8598 185.233 89.8712 185.858C89.9393 190.136 89.9393 190.136 87.7788 193.77C87.2113 194.287 86.6324 194.793 86.0345 195.276C85.5048 195.753 85.5048 195.753 84.9675 196.24C84.5362 196.593 84.5362 196.593 84.0973 196.95C79.2239 201.183 76.7796 207.221 76.1969 213.504C76.144 214.802 76.1402 216.1 76.1402 217.402C76.1402 217.785 76.1402 218.168 76.1364 218.563C76.1326 219.842 76.1326 221.122 76.1288 222.398C76.1288 223.317 76.125 224.239 76.1213 225.158C76.1137 227.911 76.1099 230.663 76.1061 233.416C76.1061 234.714 76.1023 236.012 76.1023 237.311C76.0948 241.626 76.091 245.944 76.0872 250.259C76.0872 251.379 76.0872 252.495 76.0834 253.615C76.0834 253.894 76.0834 254.169 76.0834 254.455C76.0834 258.964 76.0721 263.469 76.0607 267.973C76.0456 272.605 76.0418 277.236 76.038 281.867C76.038 284.463 76.0342 287.06 76.0267 289.66C76.0153 292.104 76.0153 294.544 76.0191 296.988C76.0191 297.885 76.0153 298.781 76.0115 299.678C76.004 300.902 76.0077 302.122 76.0115 303.345C76.0077 303.703 76.004 304.056 76.0002 304.42C76.0305 307.352 76.9612 309.688 78.9779 311.894C84.4302 316.782 91.6344 317.15 98.6304 316.964C103.765 316.726 109.085 315.074 112.736 311.362C114.533 308.806 115.01 306.749 114.984 303.654C114.984 303.264 114.987 302.873 114.991 302.471C114.995 301.169 114.991 299.867 114.987 298.562C114.987 297.628 114.991 296.691 114.995 295.753C115.002 293.477 114.999 291.2 114.995 288.924C114.991 287.067 114.991 285.215 114.995 283.362C114.995 283.098 114.995 282.834 114.995 282.563C114.995 282.027 114.995 281.488 114.995 280.952C114.999 275.919 114.995 270.886 114.987 265.853C114.98 261.549 114.98 257.242 114.987 252.934C114.995 247.923 114.999 242.913 114.995 237.902C114.995 237.366 114.995 236.831 114.995 236.295C114.991 235.901 114.991 235.901 114.991 235.495C114.991 233.65 114.995 231.802 114.999 229.957C115.002 227.461 114.999 224.968 114.991 222.472C114.987 221.561 114.987 220.649 114.991 219.738C115.018 211.443 114.215 204.308 108.135 198.01C106.883 196.809 105.585 195.66 104.257 194.536C102.985 193.372 102.357 192.769 102.161 191.013C102.153 190.493 102.153 189.972 102.157 189.451C102.157 189.168 102.153 188.882 102.153 188.588C102.145 187.647 102.149 186.706 102.153 185.765C102.153 185.114 102.153 184.459 102.149 183.804C102.149 182.435 102.149 181.063 102.157 179.694C102.164 177.938 102.161 176.179 102.153 174.423C102.149 173.073 102.149 171.722 102.153 170.372C102.153 169.725 102.153 169.077 102.149 168.43C102.145 167.523 102.153 166.619 102.157 165.715C102.157 165.447 102.153 165.179 102.149 164.9C102.153 163.453 102.153 163.453 102.872 162.237C103.061 162.092 103.247 161.947 103.44 161.798C103.58 160.905 103.58 160.905 103.576 159.856C103.576 159.48 103.576 159.101 103.576 158.714C103.572 158.32 103.564 157.925 103.557 157.52C103.561 156.928 103.561 156.928 103.561 156.326C103.542 153.391 103.542 153.391 102.683 152.126Z" fill="#6C55F9"/>
<path d="M150.683 152.126C149.612 152.022 148.628 151.988 147.561 152.003C147.096 152.003 147.096 152.003 146.623 152.007C145.972 152.007 145.318 152.015 144.667 152.022C143.66 152.033 142.658 152.037 141.655 152.041C141.023 152.041 140.387 152.048 139.755 152.052C139.453 152.052 139.154 152.055 138.84 152.055C136.729 152.081 136.729 152.081 136.305 152.498C136.271 153.242 136.263 153.986 136.267 154.73C136.271 155.411 136.271 155.411 136.271 156.103C136.274 156.813 136.274 156.813 136.282 157.542C136.282 158.022 136.286 158.498 136.286 158.989C136.29 160.172 136.297 161.359 136.305 162.542C136.804 162.664 137.304 162.787 137.818 162.914C137.848 166.585 137.86 170.253 137.848 173.924C137.841 175.628 137.841 177.332 137.86 179.039C137.875 180.687 137.871 182.331 137.86 183.979C137.856 184.608 137.86 185.233 137.871 185.858C137.939 190.136 137.939 190.136 135.779 193.77C135.211 194.287 134.632 194.793 134.035 195.276C133.505 195.753 133.505 195.753 132.968 196.24C132.536 196.593 132.536 196.593 132.097 196.95C127.224 201.183 124.78 207.221 124.197 213.504C124.144 214.802 124.14 216.1 124.14 217.402C124.14 217.785 124.14 218.168 124.136 218.563C124.133 219.842 124.133 221.122 124.129 222.398C124.129 223.317 124.125 224.239 124.121 225.158C124.114 227.911 124.11 230.663 124.106 233.416C124.106 234.714 124.102 236.012 124.102 237.311C124.095 241.626 124.091 245.944 124.087 250.259C124.087 251.379 124.087 252.495 124.083 253.615C124.083 253.894 124.083 254.169 124.083 254.455C124.083 258.964 124.072 263.469 124.061 267.973C124.046 272.605 124.042 277.236 124.038 281.867C124.038 284.463 124.034 287.06 124.027 289.66C124.015 292.104 124.015 294.544 124.019 296.988C124.019 297.885 124.015 298.781 124.012 299.678C124.004 300.902 124.008 302.122 124.012 303.345C124.008 303.703 124.004 304.056 124 304.42C124.03 307.352 124.961 309.688 126.978 311.894C132.43 316.782 139.634 317.15 146.63 316.964C151.765 316.726 157.085 315.074 160.736 311.362C162.533 308.806 163.01 306.749 162.984 303.654C162.984 303.264 162.987 302.873 162.991 302.471C162.995 301.169 162.991 299.867 162.987 298.562C162.987 297.628 162.991 296.691 162.995 295.753C163.002 293.477 162.999 291.2 162.995 288.924C162.991 287.067 162.991 285.215 162.995 283.362C162.995 283.098 162.995 282.834 162.995 282.563C162.995 282.027 162.995 281.488 162.995 280.952C162.999 275.919 162.995 270.886 162.987 265.853C162.98 261.549 162.98 257.242 162.987 252.934C162.995 247.923 162.999 242.913 162.995 237.902C162.995 237.366 162.995 236.831 162.995 236.295C162.991 235.901 162.991 235.901 162.991 235.495C162.991 233.65 162.995 231.802 162.999 229.957C163.002 227.461 162.999 224.968 162.991 222.472C162.987 221.561 162.987 220.649 162.991 219.738C163.018 211.443 162.215 204.308 156.135 198.01C154.883 196.809 153.585 195.66 152.257 194.536C150.985 193.372 150.357 192.769 150.161 191.013C150.153 190.493 150.153 189.972 150.157 189.451C150.157 189.168 150.153 188.882 150.153 188.588C150.145 187.647 150.149 186.706 150.153 185.765C150.153 185.114 150.153 184.459 150.149 183.804C150.149 182.435 150.149 181.063 150.157 179.694C150.164 177.938 150.161 176.179 150.153 174.423C150.149 173.073 150.149 171.722 150.153 170.372C150.153 169.725 150.153 169.077 150.149 168.43C150.145 167.523 150.153 166.619 150.157 165.715C150.157 165.447 150.153 165.179 150.149 164.9C150.153 163.453 150.153 163.453 150.872 162.237C151.061 162.092 151.247 161.947 151.44 161.798C151.58 160.905 151.58 160.905 151.576 159.856C151.576 159.48 151.576 159.101 151.576 158.714C151.572 158.32 151.564 157.925 151.557 157.52C151.561 156.928 151.561 156.928 151.561 156.326C151.542 153.391 151.542 153.391 150.683 152.126Z" fill="#6C55F9"/>
<path d="M198.683 152.126C197.612 152.022 196.628 151.988 195.561 152.003C195.096 152.003 195.096 152.003 194.623 152.007C193.972 152.007 193.318 152.015 192.667 152.022C191.66 152.033 190.658 152.037 189.655 152.041C189.023 152.041 188.387 152.048 187.755 152.052C187.453 152.052 187.154 152.055 186.84 152.055C184.729 152.081 184.729 152.081 184.305 152.498C184.271 153.242 184.263 153.986 184.267 154.73C184.271 155.411 184.271 155.411 184.271 156.103C184.274 156.813 184.274 156.813 184.282 157.542C184.282 158.022 184.286 158.498 184.286 158.989C184.29 160.172 184.297 161.359 184.305 162.542C184.804 162.664 185.304 162.787 185.818 162.914C185.848 166.585 185.86 170.253 185.848 173.924C185.841 175.628 185.841 177.332 185.86 179.039C185.875 180.687 185.871 182.331 185.86 183.979C185.856 184.608 185.86 185.233 185.871 185.858C185.939 190.136 185.939 190.136 183.779 193.77C183.211 194.287 182.632 194.793 182.035 195.276C181.505 195.753 181.505 195.753 180.968 196.24C180.536 196.593 180.536 196.593 180.097 196.95C175.224 201.183 172.78 207.221 172.197 213.504C172.144 214.802 172.14 216.1 172.14 217.402C172.14 217.785 172.14 218.168 172.136 218.563C172.133 219.842 172.133 221.122 172.129 222.398C172.129 223.317 172.125 224.239 172.121 225.158C172.114 227.911 172.11 230.663 172.106 233.416C172.106 234.714 172.102 236.012 172.102 237.311C172.095 241.626 172.091 245.944 172.087 250.259C172.087 251.379 172.087 252.495 172.083 253.615C172.083 253.894 172.083 254.169 172.083 254.455C172.083 258.964 172.072 263.469 172.061 267.973C172.046 272.605 172.042 277.236 172.038 281.867C172.038 284.463 172.034 287.06 172.027 289.66C172.015 292.104 172.015 294.544 172.019 296.988C172.019 297.885 172.015 298.781 172.012 299.678C172.004 300.902 172.008 302.122 172.012 303.345C172.008 303.703 172.004 304.056 172 304.42C172.03 307.352 172.961 309.688 174.978 311.894C180.43 316.782 187.634 317.15 194.63 316.964C199.765 316.726 205.085 315.074 208.736 311.362C210.533 308.806 211.01 306.749 210.984 303.654C210.984 303.264 210.987 302.873 210.991 302.471C210.995 301.169 210.991 299.867 210.987 298.562C210.987 297.628 210.991 296.691 210.995 295.753C211.002 293.477 210.999 291.2 210.995 288.924C210.991 287.067 210.991 285.215 210.995 283.362C210.995 283.098 210.995 282.834 210.995 282.563C210.995 282.027 210.995 281.488 210.995 280.952C210.999 275.919 210.995 270.886 210.987 265.853C210.98 261.549 210.98 257.242 210.987 252.934C210.995 247.923 210.999 242.913 210.995 237.902C210.995 237.366 210.995 236.831 210.995 236.295C210.991 235.901 210.991 235.901 210.991 235.495C210.991 233.65 210.995 231.802 210.999 229.957C211.002 227.461 210.999 224.968 210.991 222.472C210.987 221.561 210.987 220.649 210.991 219.738C211.018 211.443 210.215 204.308 204.135 198.01C202.883 196.809 201.585 195.66 200.257 194.536C198.985 193.372 198.357 192.769 198.161 191.013C198.153 190.493 198.153 189.972 198.157 189.451C198.157 189.168 198.153 188.882 198.153 188.588C198.145 187.647 198.149 186.706 198.153 185.765C198.153 185.114 198.153 184.459 198.149 183.804C198.149 182.435 198.149 181.063 198.157 179.694C198.164 177.938 198.161 176.179 198.153 174.423C198.149 173.073 198.149 171.722 198.153 170.372C198.153 169.725 198.153 169.077 198.149 168.43C198.145 167.523 198.153 166.619 198.157 165.715C198.157 165.447 198.153 165.179 198.149 164.9C198.153 163.453 198.153 163.453 198.872 162.237C199.061 162.092 199.247 161.947 199.44 161.798C199.58 160.905 199.58 160.905 199.576 159.856C199.576 159.48 199.576 159.101 199.576 158.714C199.572 158.32 199.564 157.925 199.557 157.52C199.561 156.928 199.561 156.928 199.561 156.326C199.542 153.391 199.542 153.391 198.683 152.126Z" fill="#6C55F9"/>
<path d="M246.683 152.126C245.612 152.022 244.628 151.988 243.561 152.003C243.096 152.003 243.096 152.003 242.623 152.007C241.972 152.007 241.318 152.015 240.667 152.022C239.66 152.033 238.658 152.037 237.655 152.041C237.023 152.041 236.387 152.048 235.755 152.052C235.453 152.052 235.154 152.055 234.84 152.055C232.729 152.081 232.729 152.081 232.305 152.498C232.271 153.242 232.263 153.986 232.267 154.73C232.271 155.411 232.271 155.411 232.271 156.103C232.274 156.813 232.274 156.813 232.282 157.542C232.282 158.022 232.286 158.498 232.286 158.989C232.29 160.172 232.297 161.359 232.305 162.542C232.804 162.664 233.304 162.787 233.818 162.914C233.848 166.585 233.86 170.253 233.848 173.924C233.841 175.628 233.841 177.332 233.86 179.039C233.875 180.687 233.871 182.331 233.86 183.979C233.856 184.608 233.86 185.233 233.871 185.858C233.939 190.136 233.939 190.136 231.779 193.77C231.211 194.287 230.632 194.793 230.035 195.276C229.505 195.753 229.505 195.753 228.968 196.24C228.536 196.593 228.536 196.593 228.097 196.95C223.224 201.183 220.78 207.221 220.197 213.504C220.144 214.802 220.14 216.1 220.14 217.402C220.14 217.785 220.14 218.168 220.136 218.563C220.133 219.842 220.133 221.122 220.129 222.398C220.129 223.317 220.125 224.239 220.121 225.158C220.114 227.911 220.11 230.663 220.106 233.416C220.106 234.714 220.102 236.012 220.102 237.311C220.095 241.626 220.091 245.944 220.087 250.259C220.087 251.379 220.087 252.495 220.083 253.615C220.083 253.894 220.083 254.169 220.083 254.455C220.083 258.964 220.072 263.469 220.061 267.973C220.046 272.605 220.042 277.236 220.038 281.867C220.038 284.463 220.034 287.06 220.027 289.66C220.015 292.104 220.015 294.544 220.019 296.988C220.019 297.885 220.015 298.781 220.012 299.678C220.004 300.902 220.008 302.122 220.012 303.345C220.008 303.703 220.004 304.056 220 304.42C220.03 307.352 220.961 309.688 222.978 311.894C228.43 316.782 235.634 317.15 242.63 316.964C247.765 316.726 253.085 315.074 256.736 311.362C258.533 308.806 259.01 306.749 258.984 303.654C258.984 303.264 258.987 302.873 258.991 302.471C258.995 301.169 258.991 299.867 258.987 298.562C258.987 297.628 258.991 296.691 258.995 295.753C259.002 293.477 258.999 291.2 258.995 288.924C258.991 287.067 258.991 285.215 258.995 283.362C258.995 283.098 258.995 282.834 258.995 282.563C258.995 282.027 258.995 281.488 258.995 280.952C258.999 275.919 258.995 270.886 258.987 265.853C258.98 261.549 258.98 257.242 258.987 252.934C258.995 247.923 258.999 242.913 258.995 237.902C258.995 237.366 258.995 236.831 258.995 236.295C258.991 235.901 258.991 235.901 258.991 235.495C258.991 233.65 258.995 231.802 258.999 229.957C259.002 227.461 258.999 224.968 258.991 222.472C258.987 221.561 258.987 220.649 258.991 219.738C259.018 211.443 258.215 204.308 252.135 198.01C250.883 196.809 249.585 195.66 248.257 194.536C246.985 193.372 246.357 192.769 246.161 191.013C246.153 190.493 246.153 189.972 246.157 189.451C246.157 189.168 246.153 188.882 246.153 188.588C246.145 187.647 246.149 186.706 246.153 185.765C246.153 185.114 246.153 184.459 246.149 183.804C246.149 182.435 246.149 181.063 246.157 179.694C246.164 177.938 246.161 176.179 246.153 174.423C246.149 173.073 246.149 171.722 246.153 170.372C246.153 169.725 246.153 169.077 246.149 168.43C246.145 167.523 246.153 166.619 246.157 165.715C246.157 165.447 246.153 165.179 246.149 164.9C246.153 163.453 246.153 163.453 246.872 162.237C247.061 162.092 247.247 161.947 247.44 161.798C247.58 160.905 247.58 160.905 247.576 159.856C247.576 159.48 247.576 159.101 247.576 158.714C247.572 158.32 247.564 157.925 247.557 157.52C247.561 156.928 247.561 156.928 247.561 156.326C247.542 153.391 247.542 153.391 246.683 152.126Z" fill="#6C55F9"/>
<g filter="url(#filter0_d_57_273)">
<rect width="19.393" height="232.716" transform="matrix(0 -1 -1 0 284 225.393)" fill="#FAC14D"/>
<rect x="-0.5" y="-0.5" width="18.393" height="231.716" transform="matrix(0 -1 -1 0 283 224.393)" stroke="#575757"/>
</g>
<rect x="-0.5" y="-0.5" width="18.393" height="231.716" transform="matrix(0 -1 -1 0 283 326.206)" fill="#FAC14D" stroke="#575757"/>
<rect x="-0.5" y="-0.5" width="18.393" height="231.716" transform="matrix(0 -1 -1 0 283 250.573)" fill="#FAC14D" stroke="#575757"/>
<rect x="-0.5" y="-0.5" width="18.393" height="231.716" transform="matrix(0 -1 -1 0 283 275.784)" fill="#FAC14D" stroke="#575757"/>
<rect x="-0.5" y="-0.5" width="18.393" height="231.716" transform="matrix(0 -1 -1 0 283 300.995)" fill="#FAC14D" stroke="#575757"/>
<rect x="-0.5" y="0.5" width="17.4233" height="83.3594" transform="matrix(-1 0 0 1 283 224.423)" fill="#FAC14D" stroke="#575757"/>
<rect x="-0.5" y="0.5" width="17.4233" height="83.3594" transform="matrix(-1 0 0 1 68.7079 224.423)" fill="#FAC14D" stroke="#575757"/>
<g filter="url(#filter1_di_57_273)">
<circle cx="2.90894" cy="2.90894" r="2.90894" transform="matrix(-1 0 0 1 62.9204 212.787)" fill="#D9D9D9"/>
</g>
<g filter="url(#filter2_di_57_273)">
<circle cx="2.90894" cy="2.90894" r="2.90894" transform="matrix(-1 0 0 1 277.213 212.787)" fill="#D9D9D9"/>
</g>
<g filter="url(#filter3_di_57_273)">
<circle cx="2.90894" cy="2.90894" r="2.90894" transform="matrix(-1 0 0 1 62.9204 314.6)" fill="#D9D9D9"/>
</g>
<g filter="url(#filter4_di_57_273)">
<circle cx="2.90894" cy="2.90894" r="2.90894" transform="matrix(-1 0 0 1 277.213 314.6)" fill="#D9D9D9"/>
</g>
<rect width="18.4233" height="3.87859" transform="matrix(-1 0 0 1 284 224.423)" fill="black" fill-opacity="0.25"/>
<rect width="18.4233" height="3.87859" transform="matrix(-1 0 0 1 69.7079 224.423)" fill="black" fill-opacity="0.25"/>
<rect width="79.5111" height="3.87859" transform="matrix(0 -1 -1 0 55.1633 307.813)" fill="black" fill-opacity="0.25"/>
<rect width="79.5111" height="3.87859" transform="matrix(0 -1 -1 0 284 307.813)" fill="black" fill-opacity="0.25"/>
<rect width="15.5144" height="3.87859" transform="matrix(0 -1 -1 0 284 224.423)" fill="black" fill-opacity="0.25"/>
<rect width="15.5144" height="3.87859" transform="matrix(0 -1 -1 0 55.1633 224.423)" fill="black" fill-opacity="0.25"/>
<rect width="16.484" height="3.87859" transform="matrix(0 -1 -1 0 284 324.297)" fill="black" fill-opacity="0.25"/>
<rect width="16.484" height="3.87859" transform="matrix(0 -1 -1 0 55.1633 324.297)" fill="black" fill-opacity="0.25"/>
<rect width="232.716" height="2.90894" transform="matrix(-1 0 0 1 284 206)" fill="black" fill-opacity="0.25"/>
<rect width="232.716" height="2.90894" transform="matrix(-1 0 0 1 284 324.297)" fill="black" fill-opacity="0.25"/>
<rect width="195.869" height="2.90894" transform="matrix(-1 0 0 1 265.577 232.18)" fill="black" fill-opacity="0.25"/>
<rect width="195.869" height="0.969648" transform="matrix(-1 0 0 1 265.577 224.423)" fill="black" fill-opacity="0.25"/>
<rect width="195.869" height="2.90894" transform="matrix(-1 0 0 1 265.577 257.391)" fill="black" fill-opacity="0.25"/>
<rect width="195.869" height="2.90894" transform="matrix(-1 0 0 1 265.577 282.602)" fill="black" fill-opacity="0.25"/>
<path d="M352.988 305.598C352.159 304.163 350.325 303.672 348.89 304.5L292.598 337C291.163 337.828 290.672 339.663 291.5 341.098L293 343.696C294.933 347.044 299.214 348.191 302.562 346.258L355.39 315.758C356.825 314.93 357.316 313.095 356.488 311.66L352.988 305.598Z" fill="black"/>
<path d="M352.988 305.598C352.159 304.163 350.325 303.672 348.89 304.5L292.598 337C291.163 337.828 290.672 339.663 291.5 341.098L293 343.696C294.933 347.044 299.214 348.191 302.562 346.258L355.39 315.758C356.825 314.93 357.316 313.095 356.488 311.66L352.988 305.598Z" stroke="white"/>
<rect x="-0.378917" y="0.597011" width="91.66" height="13" rx="2.5" transform="matrix(-0.975928 0.218093 0.218093 0.975928 381.068 1.93429)" fill="black" stroke="white"/>
<rect x="-0.378917" y="0.597011" width="69" height="19" rx="2.5" transform="matrix(-0.975928 0.218093 0.218093 0.975928 375.534 0.0970107)" fill="black" stroke="white"/>
<rect x="-0.5" y="0.5" width="43" height="13" rx="2.5" transform="matrix(-1 0 0 1 334.589 96.7731)" fill="black" stroke="white"/>
<rect width="326" height="13" rx="3" transform="matrix(4.37114e-08 1 1 -4.37114e-08 292 12)" fill="black"/>
<rect width="326" height="13" rx="3" transform="matrix(4.37114e-08 1 1 -4.37114e-08 292 12)" stroke="white"/>
<rect width="121" height="13" rx="6.5" transform="matrix(4.37114e-08 1 1 -4.37114e-08 335 185)" fill="black"/>
<rect width="121" height="13" rx="6.5" transform="matrix(4.37114e-08 1 1 -4.37114e-08 335 185)" stroke="white"/>
<circle cx="42.5" cy="42.5" r="35.5" transform="matrix(-1 0 0 1 400 284)" fill="white" stroke="black" stroke-width="14"/>
<circle cx="42.5" cy="42.5" r="42" transform="matrix(-1 0 0 1 400 284)" stroke="white"/>
<path d="M305 337C305 335.343 303.657 334 302 334H36.0002C34.3433 334 33.0002 335.343 33.0002 337V345C33.0002 346.657 34.3433 348 36.0002 348H297C301.418 348 305 344.418 305 340V337Z" fill="black"/>
<path d="M305 337C305 335.343 303.657 334 302 334H36.0002C34.3433 334 33.0002 335.343 33.0002 337V345C33.0002 346.657 34.3433 348 36.0002 348H297C301.418 348 305 344.418 305 340V337Z" stroke="white"/>
<defs>
<filter id="filter0_d_57_273" x="51.2847" y="206" width="232.716" height="19.3929" filterUnits="userSpaceOnUse" color-interpolation-filters="sRGB">
<feFlood flood-opacity="0" result="BackgroundImageFix"/>
<feColorMatrix in="SourceAlpha" type="matrix" values="0 0 0 0 0 0 0 0 0 0 0 0 0 0 0 0 0 0 127 0" result="hardAlpha"/>
<feOffset/>
<feComposite in2="hardAlpha" operator="out"/>
<feColorMatrix type="matrix" values="0 0 0 0 0 0 0 0 0 0 0 0 0 0 0 0 0 0 0.25 0"/>
<feBlend mode="normal" in2="BackgroundImageFix" result="effect1_dropShadow_57_273"/>
<feBlend mode="normal" in="SourceGraphic" in2="effect1_dropShadow_57_273" result="shape"/>
</filter>
<filter id="filter1_di_57_273" x="57.1025" y="212.787" width="6.31787" height="6.31787" filterUnits="userSpaceOnUse" color-interpolation-filters="sRGB">
<feFlood flood-opacity="0" result="BackgroundImageFix"/>
<feColorMatrix in="SourceAlpha" type="matrix" values="0 0 0 0 0 0 0 0 0 0 0 0 0 0 0 0 0 0 127 0" result="hardAlpha"/>
<feOffset dx="0.5" dy="0.5"/>
<feComposite in2="hardAlpha" operator="out"/>
<feColorMatrix type="matrix" values="0 0 0 0 0 0 0 0 0 0 0 0 0 0 0 0 0 0 0.25 0"/>
<feBlend mode="normal" in2="BackgroundImageFix" result="effect1_dropShadow_57_273"/>
<feBlend mode="normal" in="SourceGraphic" in2="effect1_dropShadow_57_273" result="shape"/>
<feColorMatrix in="SourceAlpha" type="matrix" values="0 0 0 0 0 0 0 0 0 0 0 0 0 0 0 0 0 0 127 0" result="hardAlpha"/>
<feOffset dx="0.5" dy="0.5"/>
<feComposite in2="hardAlpha" operator="arithmetic" k2="-1" k3="1"/>
<feColorMatrix type="matrix" values="0 0 0 0 0 0 0 0 0 0 0 0 0 0 0 0 0 0 0.25 0"/>
<feBlend mode="normal" in2="shape" result="effect2_innerShadow_57_273"/>
</filter>
<filter id="filter2_di_57_273" x="271.395" y="212.787" width="6.31787" height="6.31787" filterUnits="userSpaceOnUse" color-interpolation-filters="sRGB">
<feFlood flood-opacity="0" result="BackgroundImageFix"/>
<feColorMatrix in="SourceAlpha" type="matrix" values="0 0 0 0 0 0 0 0 0 0 0 0 0 0 0 0 0 0 127 0" result="hardAlpha"/>
<feOffset dx="0.5" dy="0.5"/>
<feComposite in2="hardAlpha" operator="out"/>
<feColorMatrix type="matrix" values="0 0 0 0 0 0 0 0 0 0 0 0 0 0 0 0 0 0 0.25 0"/>
<feBlend mode="normal" in2="BackgroundImageFix" result="effect1_dropShadow_57_273"/>
<feBlend mode="normal" in="SourceGraphic" in2="effect1_dropShadow_57_273" result="shape"/>
<feColorMatrix in="SourceAlpha" type="matrix" values="0 0 0 0 0 0 0 0 0 0 0 0 0 0 0 0 0 0 127 0" result="hardAlpha"/>
<feOffset dx="0.5" dy="0.5"/>
<feComposite in2="hardAlpha" operator="arithmetic" k2="-1" k3="1"/>
<feColorMatrix type="matrix" values="0 0 0 0 0 0 0 0 0 0 0 0 0 0 0 0 0 0 0.25 0"/>
<feBlend mode="normal" in2="shape" result="effect2_innerShadow_57_273"/>
</filter>
<filter id="filter3_di_57_273" x="57.1025" y="314.6" width="6.31787" height="6.31787" filterUnits="userSpaceOnUse" color-interpolation-filters="sRGB">
<feFlood flood-opacity="0" result="BackgroundImageFix"/>
<feColorMatrix in="SourceAlpha" type="matrix" values="0 0 0 0 0 0 0 0 0 0 0 0 0 0 0 0 0 0 127 0" result="hardAlpha"/>
<feOffset dx="0.5" dy="0.5"/>
<feComposite in2="hardAlpha" operator="out"/>
<feColorMatrix type="matrix" values="0 0 0 0 0 0 0 0 0 0 0 0 0 0 0 0 0 0 0.25 0"/>
<feBlend mode="normal" in2="BackgroundImageFix" result="effect1_dropShadow_57_273"/>
<feBlend mode="normal" in="SourceGraphic" in2="effect1_dropShadow_57_273" result="shape"/>
<feColorMatrix in="SourceAlpha" type="matrix" values="0 0 0 0 0 0 0 0 0 0 0 0 0 0 0 0 0 0 127 0" result="hardAlpha"/>
<feOffset dx="0.5" dy="0.5"/>
<feComposite in2="hardAlpha" operator="arithmetic" k2="-1" k3="1"/>
<feColorMatrix type="matrix" values="0 0 0 0 0 0 0 0 0 0 0 0 0 0 0 0 0 0 0.25 0"/>
<feBlend mode="normal" in2="shape" result="effect2_innerShadow_57_273"/>
</filter>
<filter id="filter4_di_57_273" x="271.395" y="314.6" width="6.31787" height="6.31787" filterUnits="userSpaceOnUse" color-interpolation-filters="sRGB">
<feFlood flood-opacity="0" result="BackgroundImageFix"/>
<feColorMatrix in="SourceAlpha" type="matrix" values="0 0 0 0 0 0 0 0 0 0 0 0 0 0 0 0 0 0 127 0" result="hardAlpha"/>
<feOffset dx="0.5" dy="0.5"/>
<feComposite in2="hardAlpha" operator="out"/>
<feColorMatrix type="matrix" values="0 0 0 0 0 0 0 0 0 0 0 0 0 0 0 0 0 0 0.25 0"/>
<feBlend mode="normal" in2="BackgroundImageFix" result="effect1_dropShadow_57_273"/>
<feBlend mode="normal" in="SourceGraphic" in2="effect1_dropShadow_57_273" result="shape"/>
<feColorMatrix in="SourceAlpha" type="matrix" values="0 0 0 0 0 0 0 0 0 0 0 0 0 0 0 0 0 0 127 0" result="hardAlpha"/>
<feOffset dx="0.5" dy="0.5"/>
<feComposite in2="hardAlpha" operator="arithmetic" k2="-1" k3="1"/>
<feColorMatrix type="matrix" values="0 0 0 0 0 0 0 0 0 0 0 0 0 0 0 0 0 0 0.25 0"/>
<feBlend mode="normal" in2="shape" result="effect2_innerShadow_57_273"/>
</filter>
</defs>
</svg>
