<svg width="477" height="768" viewBox="0 0 477 768" fill="none" xmlns="http://www.w3.org/2000/svg">
<rect width="477" height="768" fill="#F6F5FC"/>
<path d="M211.317 343.126C212.388 343.022 213.372 342.988 214.439 343.003C214.904 343.003 214.904 343.003 215.377 343.007C216.028 343.007 216.683 343.015 217.333 343.022C218.34 343.033 219.343 343.037 220.345 343.041C220.977 343.041 221.613 343.048 222.245 343.052C222.547 343.052 222.846 343.055 223.16 343.055C225.272 343.081 225.272 343.081 225.695 343.498C225.729 344.242 225.737 344.986 225.733 345.73C225.729 346.411 225.729 346.411 225.729 347.103C225.726 347.813 225.726 347.813 225.718 348.542C225.718 349.022 225.714 349.498 225.714 349.989C225.711 351.172 225.703 352.359 225.695 353.542C225.196 353.664 224.697 353.787 224.182 353.914C224.152 357.585 224.14 361.253 224.152 364.924C224.159 366.628 224.159 368.332 224.14 370.039C224.125 371.687 224.129 373.331 224.14 374.979C224.144 375.608 224.14 376.233 224.129 376.858C224.061 381.136 224.061 381.136 226.221 384.77C226.789 385.287 227.368 385.793 227.966 386.276C228.495 386.753 228.495 386.753 229.033 387.24C229.464 387.593 229.464 387.593 229.903 387.95C234.776 392.183 237.221 398.221 237.803 404.504C237.856 405.802 237.86 407.1 237.86 408.402C237.86 408.785 237.86 409.168 237.864 409.563C237.868 410.842 237.868 412.122 237.871 413.398C237.871 414.317 237.875 415.239 237.879 416.158C237.886 418.911 237.89 421.663 237.894 424.416C237.894 425.714 237.898 427.012 237.898 428.311C237.905 432.626 237.909 436.944 237.913 441.259C237.913 442.379 237.913 443.495 237.917 444.615C237.917 444.894 237.917 445.169 237.917 445.455C237.917 449.964 237.928 454.469 237.939 458.973C237.955 463.605 237.958 468.236 237.962 472.867C237.962 475.463 237.966 478.06 237.974 480.66C237.985 483.104 237.985 485.544 237.981 487.988C237.981 488.885 237.985 489.781 237.989 490.678C237.996 491.902 237.992 493.122 237.989 494.345C237.992 494.703 237.996 495.056 238 495.42C237.97 498.352 237.039 500.688 235.022 502.894C229.57 507.782 222.366 508.15 215.37 507.964C210.235 507.726 204.915 506.074 201.264 502.362C199.467 499.806 198.99 497.749 199.017 494.654C199.017 494.264 199.013 493.873 199.009 493.471C199.005 492.169 199.009 490.867 199.013 489.562C199.013 488.628 199.009 487.691 199.005 486.753C198.998 484.477 199.001 482.2 199.005 479.924C199.009 478.067 199.009 476.215 199.005 474.362C199.005 474.098 199.005 473.834 199.005 473.563C199.005 473.027 199.005 472.488 199.005 471.952C199.001 466.919 199.005 461.886 199.013 456.853C199.02 452.549 199.02 448.242 199.013 443.934C199.005 438.923 199.001 433.913 199.005 428.902C199.005 428.366 199.005 427.831 199.005 427.295C199.009 426.901 199.009 426.901 199.009 426.495C199.009 424.65 199.005 422.802 199.001 420.957C198.998 418.461 199.001 415.968 199.009 413.472C199.013 412.561 199.013 411.649 199.009 410.738C198.983 402.443 199.785 395.308 205.865 389.01C207.118 387.809 208.415 386.66 209.743 385.536C211.015 384.372 211.643 383.769 211.84 382.013C211.847 381.493 211.847 380.972 211.843 380.451C211.843 380.168 211.847 379.882 211.847 379.588C211.855 378.647 211.851 377.706 211.847 376.765C211.847 376.114 211.847 375.459 211.851 374.804C211.851 373.435 211.851 372.063 211.843 370.694C211.836 368.938 211.84 367.179 211.847 365.423C211.851 364.073 211.851 362.722 211.847 361.372C211.847 360.725 211.847 360.077 211.851 359.43C211.855 358.523 211.847 357.619 211.843 356.715C211.843 356.447 211.847 356.179 211.851 355.9C211.847 354.453 211.847 354.453 211.128 353.237C210.939 353.092 210.754 352.947 210.561 352.798C210.421 351.905 210.421 351.905 210.424 350.856C210.424 350.48 210.424 350.101 210.424 349.714C210.428 349.32 210.436 348.925 210.443 348.52C210.44 347.928 210.44 347.928 210.44 347.326C210.459 344.391 210.459 344.391 211.317 343.126Z" fill="#6C55F9"/>
<path d="M211.317 553.126C212.388 553.022 213.372 552.988 214.439 553.003C214.904 553.003 214.904 553.003 215.377 553.007C216.028 553.007 216.683 553.015 217.333 553.022C218.34 553.033 219.343 553.037 220.345 553.041C220.977 553.041 221.613 553.048 222.245 553.052C222.547 553.052 222.846 553.055 223.16 553.055C225.272 553.081 225.272 553.081 225.695 553.498C225.729 554.242 225.737 554.986 225.733 555.73C225.729 556.411 225.729 556.411 225.729 557.103C225.726 557.813 225.726 557.813 225.718 558.542C225.718 559.022 225.714 559.498 225.714 559.989C225.711 561.172 225.703 562.359 225.695 563.542C225.196 563.664 224.697 563.787 224.182 563.914C224.152 567.585 224.14 571.253 224.152 574.924C224.159 576.628 224.159 578.332 224.14 580.039C224.125 581.687 224.129 583.331 224.14 584.979C224.144 585.608 224.14 586.233 224.129 586.858C224.061 591.136 224.061 591.136 226.221 594.77C226.789 595.287 227.368 595.793 227.966 596.276C228.495 596.753 228.495 596.753 229.033 597.24C229.464 597.593 229.464 597.593 229.903 597.95C234.776 602.183 237.221 608.221 237.803 614.504C237.856 615.802 237.86 617.1 237.86 618.402C237.86 618.785 237.86 619.168 237.864 619.563C237.868 620.842 237.868 622.122 237.871 623.398C237.871 624.317 237.875 625.239 237.879 626.158C237.886 628.911 237.89 631.663 237.894 634.416C237.894 635.714 237.898 637.012 237.898 638.311C237.905 642.626 237.909 646.944 237.913 651.259C237.913 652.379 237.913 653.495 237.917 654.615C237.917 654.894 237.917 655.169 237.917 655.455C237.917 659.964 237.928 664.469 237.939 668.973C237.955 673.605 237.958 678.236 237.962 682.867C237.962 685.463 237.966 688.06 237.974 690.66C237.985 693.104 237.985 695.544 237.981 697.988C237.981 698.885 237.985 699.781 237.989 700.678C237.996 701.902 237.992 703.122 237.989 704.345C237.992 704.703 237.996 705.056 238 705.42C237.97 708.352 237.039 710.688 235.022 712.894C229.57 717.782 222.366 718.15 215.37 717.964C210.235 717.726 204.915 716.074 201.264 712.362C199.467 709.806 198.99 707.749 199.017 704.654C199.017 704.264 199.013 703.873 199.009 703.471C199.005 702.169 199.009 700.867 199.013 699.562C199.013 698.628 199.009 697.691 199.005 696.753C198.998 694.477 199.001 692.2 199.005 689.924C199.009 688.067 199.009 686.215 199.005 684.362C199.005 684.098 199.005 683.834 199.005 683.563C199.005 683.027 199.005 682.488 199.005 681.952C199.001 676.919 199.005 671.886 199.013 666.853C199.02 662.549 199.02 658.242 199.013 653.934C199.005 648.923 199.001 643.913 199.005 638.902C199.005 638.366 199.005 637.831 199.005 637.295C199.009 636.901 199.009 636.901 199.009 636.495C199.009 634.65 199.005 632.802 199.001 630.957C198.998 628.461 199.001 625.968 199.009 623.472C199.013 622.561 199.013 621.649 199.009 620.738C198.983 612.443 199.785 605.308 205.865 599.01C207.118 597.809 208.415 596.66 209.743 595.536C211.015 594.372 211.643 593.769 211.84 592.013C211.847 591.493 211.847 590.972 211.843 590.451C211.843 590.168 211.847 589.882 211.847 589.588C211.855 588.647 211.851 587.706 211.847 586.765C211.847 586.114 211.847 585.459 211.851 584.804C211.851 583.435 211.851 582.063 211.843 580.694C211.836 578.938 211.84 577.179 211.847 575.423C211.851 574.073 211.851 572.722 211.847 571.372C211.847 570.725 211.847 570.077 211.851 569.43C211.855 568.523 211.847 567.619 211.843 566.715C211.843 566.447 211.847 566.179 211.851 565.9C211.847 564.453 211.847 564.453 211.128 563.237C210.939 563.092 210.754 562.947 210.561 562.798C210.421 561.905 210.421 561.905 210.424 560.856C210.424 560.48 210.424 560.101 210.424 559.714C210.428 559.32 210.436 558.925 210.443 558.52C210.44 557.928 210.44 557.928 210.44 557.326C210.459 554.391 210.459 554.391 211.317 553.126Z" fill="#6C55F9"/>
<path d="M94.3174 553.126C95.3882 553.022 96.3719 552.988 97.4389 553.003C97.9043 553.003 97.9043 553.003 98.3773 553.007C99.0281 553.007 99.6827 553.015 100.333 553.022C101.34 553.033 102.343 553.037 103.345 553.041C103.977 553.041 104.613 553.048 105.245 553.052C105.547 553.052 105.846 553.055 106.16 553.055C108.272 553.081 108.272 553.081 108.695 553.498C108.729 554.242 108.737 554.986 108.733 555.73C108.729 556.411 108.729 556.411 108.729 557.103C108.726 557.813 108.726 557.813 108.718 558.542C108.718 559.022 108.714 559.498 108.714 559.989C108.711 561.172 108.703 562.359 108.695 563.542C108.196 563.664 107.697 563.787 107.182 563.914C107.152 567.585 107.14 571.253 107.152 574.924C107.159 576.628 107.159 578.332 107.14 580.039C107.125 581.687 107.129 583.331 107.14 584.979C107.144 585.608 107.14 586.233 107.129 586.858C107.061 591.136 107.061 591.136 109.221 594.77C109.789 595.287 110.368 595.793 110.966 596.276C111.495 596.753 111.495 596.753 112.033 597.24C112.464 597.593 112.464 597.593 112.903 597.95C117.776 602.183 120.221 608.221 120.803 614.504C120.856 615.802 120.86 617.1 120.86 618.402C120.86 618.785 120.86 619.168 120.864 619.563C120.868 620.842 120.868 622.122 120.871 623.398C120.871 624.317 120.875 625.239 120.879 626.158C120.886 628.911 120.89 631.663 120.894 634.416C120.894 635.714 120.898 637.012 120.898 638.311C120.905 642.626 120.909 646.944 120.913 651.259C120.913 652.379 120.913 653.495 120.917 654.615C120.917 654.894 120.917 655.169 120.917 655.455C120.917 659.964 120.928 664.469 120.939 668.973C120.955 673.605 120.958 678.236 120.962 682.867C120.962 685.463 120.966 688.06 120.974 690.66C120.985 693.104 120.985 695.544 120.981 697.988C120.981 698.885 120.985 699.781 120.989 700.678C120.996 701.902 120.992 703.122 120.989 704.345C120.992 704.703 120.996 705.056 121 705.42C120.97 708.352 120.039 710.688 118.022 712.894C112.57 717.782 105.366 718.15 98.3697 717.964C93.2353 717.726 87.9154 716.074 84.2641 712.362C82.4669 709.806 81.9901 707.749 82.0166 704.654C82.0166 704.264 82.0128 703.873 82.0091 703.471C82.0053 702.169 82.0091 700.867 82.0128 699.562C82.0128 698.628 82.0091 697.691 82.0053 696.753C81.9977 694.477 82.0015 692.2 82.0053 689.924C82.0091 688.067 82.0091 686.215 82.0053 684.362C82.0053 684.098 82.0053 683.834 82.0053 683.563C82.0053 683.027 82.0053 682.488 82.0053 681.952C82.0015 676.919 82.0053 671.886 82.0128 666.853C82.0204 662.549 82.0204 658.242 82.0128 653.934C82.0053 648.923 82.0015 643.913 82.0053 638.902C82.0053 638.366 82.0053 637.831 82.0053 637.295C82.0091 636.901 82.0091 636.901 82.0091 636.495C82.0091 634.65 82.0053 632.802 82.0015 630.957C81.9977 628.461 82.0015 625.968 82.0091 623.472C82.0128 622.561 82.0128 621.649 82.0091 620.738C81.9826 612.443 82.7847 605.308 88.8651 599.01C90.1175 597.809 91.4153 596.66 92.7434 595.536C94.0147 594.372 94.6428 593.769 94.8396 592.013C94.8471 591.493 94.8471 590.972 94.8433 590.451C94.8433 590.168 94.8471 589.882 94.8471 589.588C94.8547 588.647 94.8509 587.706 94.8471 586.765C94.8471 586.114 94.8471 585.459 94.8509 584.804C94.8509 583.435 94.8509 582.063 94.8433 580.694C94.8358 578.938 94.8396 577.179 94.8471 575.423C94.8509 574.073 94.8509 572.722 94.8471 571.372C94.8471 570.725 94.8471 570.077 94.8509 569.43C94.8547 568.523 94.8471 567.619 94.8433 566.715C94.8433 566.447 94.8471 566.179 94.8509 565.9C94.8471 564.453 94.8471 564.453 94.1282 563.237C93.939 563.092 93.7536 562.947 93.5607 562.798C93.4207 561.905 93.4207 561.905 93.4245 560.856C93.4245 560.48 93.4245 560.101 93.4245 559.714C93.4282 559.32 93.4358 558.925 93.4434 558.52C93.4396 557.928 93.4396 557.928 93.4396 557.326C93.4585 554.391 93.4585 554.391 94.3174 553.126Z" fill="#6C55F9"/>
<path d="M141.317 553.126C142.388 553.022 143.372 552.988 144.439 553.003C144.904 553.003 144.904 553.003 145.377 553.007C146.028 553.007 146.683 553.015 147.333 553.022C148.34 553.033 149.343 553.037 150.345 553.041C150.977 553.041 151.613 553.048 152.245 553.052C152.547 553.052 152.846 553.055 153.16 553.055C155.272 553.081 155.272 553.081 155.695 553.498C155.729 554.242 155.737 554.986 155.733 555.73C155.729 556.411 155.729 556.411 155.729 557.103C155.726 557.813 155.726 557.813 155.718 558.542C155.718 559.022 155.714 559.498 155.714 559.989C155.711 561.172 155.703 562.359 155.695 563.542C155.196 563.664 154.697 563.787 154.182 563.914C154.152 567.585 154.14 571.253 154.152 574.924C154.159 576.628 154.159 578.332 154.14 580.039C154.125 581.687 154.129 583.331 154.14 584.979C154.144 585.608 154.14 586.233 154.129 586.858C154.061 591.136 154.061 591.136 156.221 594.77C156.789 595.287 157.368 595.793 157.966 596.276C158.495 596.753 158.495 596.753 159.033 597.24C159.464 597.593 159.464 597.593 159.903 597.95C164.776 602.183 167.221 608.221 167.803 614.504C167.856 615.802 167.86 617.1 167.86 618.402C167.86 618.785 167.86 619.168 167.864 619.563C167.868 620.842 167.868 622.122 167.871 623.398C167.871 624.317 167.875 625.239 167.879 626.158C167.886 628.911 167.89 631.663 167.894 634.416C167.894 635.714 167.898 637.012 167.898 638.311C167.905 642.626 167.909 646.944 167.913 651.259C167.913 652.379 167.913 653.495 167.917 654.615C167.917 654.894 167.917 655.169 167.917 655.455C167.917 659.964 167.928 664.469 167.939 668.973C167.955 673.605 167.958 678.236 167.962 682.867C167.962 685.463 167.966 688.06 167.974 690.66C167.985 693.104 167.985 695.544 167.981 697.988C167.981 698.885 167.985 699.781 167.989 700.678C167.996 701.902 167.992 703.122 167.989 704.345C167.992 704.703 167.996 705.056 168 705.42C167.97 708.352 167.039 710.688 165.022 712.894C159.57 717.782 152.366 718.15 145.37 717.964C140.235 717.726 134.915 716.074 131.264 712.362C129.467 709.806 128.99 707.749 129.017 704.654C129.017 704.264 129.013 703.873 129.009 703.471C129.005 702.169 129.009 700.867 129.013 699.562C129.013 698.628 129.009 697.691 129.005 696.753C128.998 694.477 129.001 692.2 129.005 689.924C129.009 688.067 129.009 686.215 129.005 684.362C129.005 684.098 129.005 683.834 129.005 683.563C129.005 683.027 129.005 682.488 129.005 681.952C129.001 676.919 129.005 671.886 129.013 666.853C129.02 662.549 129.02 658.242 129.013 653.934C129.005 648.923 129.001 643.913 129.005 638.902C129.005 638.366 129.005 637.831 129.005 637.295C129.009 636.901 129.009 636.901 129.009 636.495C129.009 634.65 129.005 632.802 129.001 630.957C128.998 628.461 129.001 625.968 129.009 623.472C129.013 622.561 129.013 621.649 129.009 620.738C128.983 612.443 129.785 605.308 135.865 599.01C137.118 597.809 138.415 596.66 139.743 595.536C141.015 594.372 141.643 593.769 141.84 592.013C141.847 591.493 141.847 590.972 141.843 590.451C141.843 590.168 141.847 589.882 141.847 589.588C141.855 588.647 141.851 587.706 141.847 586.765C141.847 586.114 141.847 585.459 141.851 584.804C141.851 583.435 141.851 582.063 141.843 580.694C141.836 578.938 141.84 577.179 141.847 575.423C141.851 574.073 141.851 572.722 141.847 571.372C141.847 570.725 141.847 570.077 141.851 569.43C141.855 568.523 141.847 567.619 141.843 566.715C141.843 566.447 141.847 566.179 141.851 565.9C141.847 564.453 141.847 564.453 141.128 563.237C140.939 563.092 140.754 562.947 140.561 562.798C140.421 561.905 140.421 561.905 140.424 560.856C140.424 560.48 140.424 560.101 140.424 559.714C140.428 559.32 140.436 558.925 140.443 558.52C140.44 557.928 140.44 557.928 140.44 557.326C140.459 554.391 140.459 554.391 141.317 553.126Z" fill="#6C55F9"/>
<path d="M166.317 343.126C167.388 343.022 168.372 342.988 169.439 343.003C169.904 343.003 169.904 343.003 170.377 343.007C171.028 343.007 171.683 343.015 172.333 343.022C173.34 343.033 174.343 343.037 175.345 343.041C175.977 343.041 176.613 343.048 177.245 343.052C177.547 343.052 177.846 343.055 178.16 343.055C180.272 343.081 180.272 343.081 180.695 343.498C180.729 344.242 180.737 344.986 180.733 345.73C180.729 346.411 180.729 346.411 180.729 347.103C180.726 347.813 180.726 347.813 180.718 348.542C180.718 349.022 180.714 349.498 180.714 349.989C180.711 351.172 180.703 352.359 180.695 353.542C180.196 353.664 179.697 353.787 179.182 353.914C179.152 357.585 179.14 361.253 179.152 364.924C179.159 366.628 179.159 368.332 179.14 370.039C179.125 371.687 179.129 373.331 179.14 374.979C179.144 375.608 179.14 376.233 179.129 376.858C179.061 381.136 179.061 381.136 181.221 384.77C181.789 385.287 182.368 385.793 182.966 386.276C183.495 386.753 183.495 386.753 184.033 387.24C184.464 387.593 184.464 387.593 184.903 387.95C189.776 392.183 192.221 398.221 192.803 404.504C192.856 405.802 192.86 407.1 192.86 408.402C192.86 408.785 192.86 409.168 192.864 409.563C192.868 410.842 192.868 412.122 192.871 413.398C192.871 414.317 192.875 415.239 192.879 416.158C192.886 418.911 192.89 421.663 192.894 424.416C192.894 425.714 192.898 427.012 192.898 428.311C192.905 432.626 192.909 436.944 192.913 441.259C192.913 442.379 192.913 443.495 192.917 444.615C192.917 444.894 192.917 445.169 192.917 445.455C192.917 449.964 192.928 454.469 192.939 458.973C192.955 463.605 192.958 468.236 192.962 472.867C192.962 475.463 192.966 478.06 192.974 480.66C192.985 483.104 192.985 485.544 192.981 487.988C192.981 488.885 192.985 489.781 192.989 490.678C192.996 491.902 192.992 493.122 192.989 494.345C192.992 494.703 192.996 495.056 193 495.42C192.97 498.352 192.039 500.688 190.022 502.894C184.57 507.782 177.366 508.15 170.37 507.964C165.235 507.726 159.915 506.074 156.264 502.362C154.467 499.806 153.99 497.749 154.017 494.654C154.017 494.264 154.013 493.873 154.009 493.471C154.005 492.169 154.009 490.867 154.013 489.562C154.013 488.628 154.009 487.691 154.005 486.753C153.998 484.477 154.001 482.2 154.005 479.924C154.009 478.067 154.009 476.215 154.005 474.362C154.005 474.098 154.005 473.834 154.005 473.563C154.005 473.027 154.005 472.488 154.005 471.952C154.001 466.919 154.005 461.886 154.013 456.853C154.02 452.549 154.02 448.242 154.013 443.934C154.005 438.923 154.001 433.913 154.005 428.902C154.005 428.366 154.005 427.831 154.005 427.295C154.009 426.901 154.009 426.901 154.009 426.495C154.009 424.65 154.005 422.802 154.001 420.957C153.998 418.461 154.001 415.968 154.009 413.472C154.013 412.561 154.013 411.649 154.009 410.738C153.983 402.443 154.785 395.308 160.865 389.01C162.118 387.809 163.415 386.66 164.743 385.536C166.015 384.372 166.643 383.769 166.84 382.013C166.847 381.493 166.847 380.972 166.843 380.451C166.843 380.168 166.847 379.882 166.847 379.588C166.855 378.647 166.851 377.706 166.847 376.765C166.847 376.114 166.847 375.459 166.851 374.804C166.851 373.435 166.851 372.063 166.843 370.694C166.836 368.938 166.84 367.179 166.847 365.423C166.851 364.073 166.851 362.722 166.847 361.372C166.847 360.725 166.847 360.077 166.851 359.43C166.855 358.523 166.847 357.619 166.843 356.715C166.843 356.447 166.847 356.179 166.851 355.9C166.847 354.453 166.847 354.453 166.128 353.237C165.939 353.092 165.754 352.947 165.561 352.798C165.421 351.905 165.421 351.905 165.424 350.856C165.424 350.48 165.424 350.101 165.424 349.714C165.428 349.32 165.436 348.925 165.443 348.52C165.44 347.928 165.44 347.928 165.44 347.326C165.459 344.391 165.459 344.391 166.317 343.126Z" fill="#6C55F9"/>
<path d="M65.3174 343.126C66.3882 343.022 67.3719 342.988 68.4389 343.003C68.9043 343.003 68.9043 343.003 69.3773 343.007C70.0281 343.007 70.6827 343.015 71.3335 343.022C72.3399 343.033 73.3426 343.037 74.3453 343.041C74.9772 343.041 75.6128 343.048 76.2447 343.052C76.5474 343.052 76.8463 343.055 77.1604 343.055C79.2717 343.081 79.2717 343.081 79.6954 343.498C79.7295 344.242 79.7371 344.986 79.7333 345.73C79.7295 346.411 79.7295 346.411 79.7295 347.103C79.7257 347.813 79.7257 347.813 79.7181 348.542C79.7181 349.022 79.7144 349.498 79.7144 349.989C79.7106 351.172 79.703 352.359 79.6954 353.542C79.196 353.664 78.6965 353.787 78.182 353.914C78.1517 357.585 78.1403 361.253 78.1517 364.924C78.1593 366.628 78.1593 368.332 78.1403 370.039C78.1252 371.687 78.129 373.331 78.1403 374.979C78.1441 375.608 78.1403 376.233 78.129 376.858C78.0609 381.136 78.0609 381.136 80.2214 384.77C80.7889 385.287 81.3678 385.793 81.9657 386.276C82.4954 386.753 82.4954 386.753 83.0327 387.24C83.464 387.593 83.464 387.593 83.9029 387.95C88.7763 392.183 91.2206 398.221 91.8033 404.504C91.8562 405.802 91.86 407.1 91.86 408.402C91.86 408.785 91.86 409.168 91.8638 409.563C91.8676 410.842 91.8676 412.122 91.8714 413.398C91.8714 414.317 91.8751 415.239 91.8789 416.158C91.8865 418.911 91.8903 421.663 91.8941 424.416C91.8941 425.714 91.8978 427.012 91.8978 428.311C91.9054 432.626 91.9092 436.944 91.913 441.259C91.913 442.379 91.913 443.495 91.9168 444.615C91.9168 444.894 91.9168 445.169 91.9168 445.455C91.9168 449.964 91.9281 454.469 91.9395 458.973C91.9546 463.605 91.9584 468.236 91.9622 472.867C91.9622 475.463 91.9659 478.06 91.9735 480.66C91.9849 483.104 91.9849 485.544 91.9811 487.988C91.9811 488.885 91.9849 489.781 91.9887 490.678C91.9962 491.902 91.9924 493.122 91.9887 494.345C91.9924 494.703 91.9962 495.056 92 495.42C91.9697 498.352 91.0389 500.688 89.0222 502.894C83.5699 507.782 76.3658 508.15 69.3697 507.964C64.2353 507.726 58.9154 506.074 55.2641 502.362C53.4669 499.806 52.9901 497.749 53.0166 494.654C53.0166 494.264 53.0128 493.873 53.0091 493.471C53.0053 492.169 53.0091 490.867 53.0128 489.562C53.0128 488.628 53.0091 487.691 53.0053 486.753C52.9977 484.477 53.0015 482.2 53.0053 479.924C53.0091 478.067 53.0091 476.215 53.0053 474.362C53.0053 474.098 53.0053 473.834 53.0053 473.563C53.0053 473.027 53.0053 472.488 53.0053 471.952C53.0015 466.919 53.0053 461.886 53.0128 456.853C53.0204 452.549 53.0204 448.242 53.0128 443.934C53.0053 438.923 53.0015 433.913 53.0053 428.902C53.0053 428.366 53.0053 427.831 53.0053 427.295C53.0091 426.901 53.0091 426.901 53.0091 426.495C53.0091 424.65 53.0053 422.802 53.0015 420.957C52.9977 418.461 53.0015 415.968 53.0091 413.472C53.0128 412.561 53.0128 411.649 53.0091 410.738C52.9826 402.443 53.7847 395.308 59.8651 389.01C61.1175 387.809 62.4153 386.66 63.7434 385.536C65.0147 384.372 65.6428 383.769 65.8396 382.013C65.8471 381.493 65.8471 380.972 65.8433 380.451C65.8433 380.168 65.8471 379.882 65.8471 379.588C65.8547 378.647 65.8509 377.706 65.8471 376.765C65.8471 376.114 65.8471 375.459 65.8509 374.804C65.8509 373.435 65.8509 372.063 65.8433 370.694C65.8358 368.938 65.8396 367.179 65.8471 365.423C65.8509 364.073 65.8509 362.722 65.8471 361.372C65.8471 360.725 65.8471 360.077 65.8509 359.43C65.8547 358.523 65.8471 357.619 65.8433 356.715C65.8433 356.447 65.8471 356.179 65.8509 355.9C65.8471 354.453 65.8471 354.453 65.1282 353.237C64.939 353.092 64.7536 352.947 64.5607 352.798C64.4207 351.905 64.4207 351.905 64.4245 350.856C64.4245 350.48 64.4245 350.101 64.4245 349.714C64.4282 349.32 64.4358 348.925 64.4434 348.52C64.4396 347.928 64.4396 347.928 64.4396 347.326C64.4585 344.391 64.4585 344.391 65.3174 343.126Z" fill="#6C55F9"/>
<path d="M65.3174 134.126C66.3882 134.022 67.3719 133.988 68.4389 134.003C68.9043 134.003 68.9043 134.003 69.3773 134.007C70.0281 134.007 70.6827 134.015 71.3335 134.022C72.3399 134.033 73.3426 134.037 74.3453 134.041C74.9772 134.041 75.6128 134.048 76.2447 134.052C76.5474 134.052 76.8463 134.055 77.1604 134.055C79.2717 134.081 79.2717 134.081 79.6954 134.498C79.7295 135.242 79.7371 135.986 79.7333 136.73C79.7295 137.411 79.7295 137.411 79.7295 138.103C79.7257 138.813 79.7257 138.813 79.7181 139.542C79.7181 140.022 79.7144 140.498 79.7144 140.989C79.7106 142.172 79.703 143.359 79.6954 144.542C79.196 144.664 78.6965 144.787 78.182 144.914C78.1517 148.585 78.1403 152.253 78.1517 155.924C78.1593 157.628 78.1593 159.332 78.1403 161.039C78.1252 162.687 78.129 164.331 78.1403 165.979C78.1441 166.608 78.1403 167.233 78.129 167.858C78.0609 172.136 78.0609 172.136 80.2214 175.77C80.7889 176.287 81.3678 176.793 81.9657 177.276C82.4954 177.753 82.4954 177.753 83.0327 178.24C83.464 178.593 83.464 178.593 83.9029 178.95C88.7763 183.183 91.2206 189.221 91.8033 195.504C91.8562 196.802 91.86 198.1 91.86 199.402C91.86 199.785 91.86 200.168 91.8638 200.563C91.8676 201.842 91.8676 203.122 91.8714 204.398C91.8714 205.317 91.8751 206.239 91.8789 207.158C91.8865 209.911 91.8903 212.663 91.8941 215.416C91.8941 216.714 91.8978 218.012 91.8978 219.311C91.9054 223.626 91.9092 227.944 91.913 232.259C91.913 233.379 91.913 234.495 91.9168 235.615C91.9168 235.894 91.9168 236.169 91.9168 236.455C91.9168 240.964 91.9281 245.469 91.9395 249.973C91.9546 254.605 91.9584 259.236 91.9622 263.867C91.9622 266.463 91.9659 269.06 91.9735 271.66C91.9849 274.104 91.9849 276.544 91.9811 278.988C91.9811 279.885 91.9849 280.781 91.9887 281.678C91.9962 282.902 91.9924 284.122 91.9887 285.345C91.9924 285.703 91.9962 286.056 92 286.42C91.9697 289.352 91.0389 291.688 89.0222 293.894C83.5699 298.782 76.3658 299.15 69.3697 298.964C64.2353 298.726 58.9154 297.074 55.2641 293.362C53.4669 290.806 52.9901 288.749 53.0166 285.654C53.0166 285.264 53.0128 284.873 53.0091 284.471C53.0053 283.169 53.0091 281.867 53.0128 280.562C53.0128 279.628 53.0091 278.691 53.0053 277.753C52.9977 275.477 53.0015 273.2 53.0053 270.924C53.0091 269.067 53.0091 267.215 53.0053 265.362C53.0053 265.098 53.0053 264.834 53.0053 264.563C53.0053 264.027 53.0053 263.488 53.0053 262.952C53.0015 257.919 53.0053 252.886 53.0128 247.853C53.0204 243.549 53.0204 239.242 53.0128 234.934C53.0053 229.923 53.0015 224.913 53.0053 219.902C53.0053 219.366 53.0053 218.831 53.0053 218.295C53.0091 217.901 53.0091 217.901 53.0091 217.495C53.0091 215.65 53.0053 213.802 53.0015 211.957C52.9977 209.461 53.0015 206.968 53.0091 204.472C53.0128 203.561 53.0128 202.649 53.0091 201.738C52.9826 193.443 53.7847 186.308 59.8651 180.01C61.1175 178.809 62.4153 177.66 63.7434 176.536C65.0147 175.372 65.6428 174.769 65.8396 173.013C65.8471 172.493 65.8471 171.972 65.8433 171.451C65.8433 171.168 65.8471 170.882 65.8471 170.588C65.8547 169.647 65.8509 168.706 65.8471 167.765C65.8471 167.114 65.8471 166.459 65.8509 165.804C65.8509 164.435 65.8509 163.063 65.8433 161.694C65.8358 159.938 65.8396 158.179 65.8471 156.423C65.8509 155.073 65.8509 153.722 65.8471 152.372C65.8471 151.725 65.8471 151.077 65.8509 150.43C65.8547 149.523 65.8471 148.619 65.8433 147.715C65.8433 147.447 65.8471 147.179 65.8509 146.9C65.8471 145.453 65.8471 145.453 65.1282 144.237C64.939 144.092 64.7536 143.947 64.5607 143.798C64.4207 142.905 64.4207 142.905 64.4245 141.856C64.4245 141.48 64.4245 141.101 64.4245 140.714C64.4282 140.32 64.4358 139.925 64.4434 139.52C64.4396 138.928 64.4396 138.928 64.4396 138.326C64.4585 135.391 64.4585 135.391 65.3174 134.126Z" fill="#6C55F9"/>
<path d="M139.317 134.126C140.388 134.022 141.372 133.988 142.439 134.003C142.904 134.003 142.904 134.003 143.377 134.007C144.028 134.007 144.683 134.015 145.333 134.022C146.34 134.033 147.343 134.037 148.345 134.041C148.977 134.041 149.613 134.048 150.245 134.052C150.547 134.052 150.846 134.055 151.16 134.055C153.272 134.081 153.272 134.081 153.695 134.498C153.729 135.242 153.737 135.986 153.733 136.73C153.729 137.411 153.729 137.411 153.729 138.103C153.726 138.813 153.726 138.813 153.718 139.542C153.718 140.022 153.714 140.498 153.714 140.989C153.711 142.172 153.703 143.359 153.695 144.542C153.196 144.664 152.697 144.787 152.182 144.914C152.152 148.585 152.14 152.253 152.152 155.924C152.159 157.628 152.159 159.332 152.14 161.039C152.125 162.687 152.129 164.331 152.14 165.979C152.144 166.608 152.14 167.233 152.129 167.858C152.061 172.136 152.061 172.136 154.221 175.77C154.789 176.287 155.368 176.793 155.966 177.276C156.495 177.753 156.495 177.753 157.033 178.24C157.464 178.593 157.464 178.593 157.903 178.95C162.776 183.183 165.221 189.221 165.803 195.504C165.856 196.802 165.86 198.1 165.86 199.402C165.86 199.785 165.86 200.168 165.864 200.563C165.868 201.842 165.868 203.122 165.871 204.398C165.871 205.317 165.875 206.239 165.879 207.158C165.886 209.911 165.89 212.663 165.894 215.416C165.894 216.714 165.898 218.012 165.898 219.311C165.905 223.626 165.909 227.944 165.913 232.259C165.913 233.379 165.913 234.495 165.917 235.615C165.917 235.894 165.917 236.169 165.917 236.455C165.917 240.964 165.928 245.469 165.939 249.973C165.955 254.605 165.958 259.236 165.962 263.867C165.962 266.463 165.966 269.06 165.974 271.66C165.985 274.104 165.985 276.544 165.981 278.988C165.981 279.885 165.985 280.781 165.989 281.678C165.996 282.902 165.992 284.122 165.989 285.345C165.992 285.703 165.996 286.056 166 286.42C165.97 289.352 165.039 291.688 163.022 293.894C157.57 298.782 150.366 299.15 143.37 298.964C138.235 298.726 132.915 297.074 129.264 293.362C127.467 290.806 126.99 288.749 127.017 285.654C127.017 285.264 127.013 284.873 127.009 284.471C127.005 283.169 127.009 281.867 127.013 280.562C127.013 279.628 127.009 278.691 127.005 277.753C126.998 275.477 127.001 273.2 127.005 270.924C127.009 269.067 127.009 267.215 127.005 265.362C127.005 265.098 127.005 264.834 127.005 264.563C127.005 264.027 127.005 263.488 127.005 262.952C127.001 257.919 127.005 252.886 127.013 247.853C127.02 243.549 127.02 239.242 127.013 234.934C127.005 229.923 127.001 224.913 127.005 219.902C127.005 219.366 127.005 218.831 127.005 218.295C127.009 217.901 127.009 217.901 127.009 217.495C127.009 215.65 127.005 213.802 127.001 211.957C126.998 209.461 127.001 206.968 127.009 204.472C127.013 203.561 127.013 202.649 127.009 201.738C126.983 193.443 127.785 186.308 133.865 180.01C135.118 178.809 136.415 177.66 137.743 176.536C139.015 175.372 139.643 174.769 139.84 173.013C139.847 172.493 139.847 171.972 139.843 171.451C139.843 171.168 139.847 170.882 139.847 170.588C139.855 169.647 139.851 168.706 139.847 167.765C139.847 167.114 139.847 166.459 139.851 165.804C139.851 164.435 139.851 163.063 139.843 161.694C139.836 159.938 139.84 158.179 139.847 156.423C139.851 155.073 139.851 153.722 139.847 152.372C139.847 151.725 139.847 151.077 139.851 150.43C139.855 149.523 139.847 148.619 139.843 147.715C139.843 147.447 139.847 147.179 139.851 146.9C139.847 145.453 139.847 145.453 139.128 144.237C138.939 144.092 138.754 143.947 138.561 143.798C138.421 142.905 138.421 142.905 138.424 141.856C138.424 141.48 138.424 141.101 138.424 140.714C138.428 140.32 138.436 139.925 138.443 139.52C138.44 138.928 138.44 138.928 138.44 138.326C138.459 135.391 138.459 135.391 139.317 134.126Z" fill="#6C55F9"/>
<path d="M211.317 132.126C212.388 132.022 213.372 131.988 214.439 132.003C214.904 132.003 214.904 132.003 215.377 132.007C216.028 132.007 216.683 132.015 217.333 132.022C218.34 132.033 219.343 132.037 220.345 132.041C220.977 132.041 221.613 132.048 222.245 132.052C222.547 132.052 222.846 132.055 223.16 132.055C225.272 132.081 225.272 132.081 225.695 132.498C225.729 133.242 225.737 133.986 225.733 134.73C225.729 135.411 225.729 135.411 225.729 136.103C225.726 136.813 225.726 136.813 225.718 137.542C225.718 138.022 225.714 138.498 225.714 138.989C225.711 140.172 225.703 141.359 225.695 142.542C225.196 142.664 224.697 142.787 224.182 142.914C224.152 146.585 224.14 150.253 224.152 153.924C224.159 155.628 224.159 157.332 224.14 159.039C224.125 160.687 224.129 162.331 224.14 163.979C224.144 164.608 224.14 165.233 224.129 165.858C224.061 170.136 224.061 170.136 226.221 173.77C226.789 174.287 227.368 174.793 227.966 175.276C228.495 175.753 228.495 175.753 229.033 176.24C229.464 176.593 229.464 176.593 229.903 176.95C234.776 181.183 237.221 187.221 237.803 193.504C237.856 194.802 237.86 196.1 237.86 197.402C237.86 197.785 237.86 198.168 237.864 198.563C237.868 199.842 237.868 201.122 237.871 202.398C237.871 203.317 237.875 204.239 237.879 205.158C237.886 207.911 237.89 210.663 237.894 213.416C237.894 214.714 237.898 216.012 237.898 217.311C237.905 221.626 237.909 225.944 237.913 230.259C237.913 231.379 237.913 232.495 237.917 233.615C237.917 233.894 237.917 234.169 237.917 234.455C237.917 238.964 237.928 243.469 237.939 247.973C237.955 252.605 237.958 257.236 237.962 261.867C237.962 264.463 237.966 267.06 237.974 269.66C237.985 272.104 237.985 274.544 237.981 276.988C237.981 277.885 237.985 278.781 237.989 279.678C237.996 280.902 237.992 282.122 237.989 283.345C237.992 283.703 237.996 284.056 238 284.42C237.97 287.352 237.039 289.688 235.022 291.894C229.57 296.782 222.366 297.15 215.37 296.964C210.235 296.726 204.915 295.074 201.264 291.362C199.467 288.806 198.99 286.749 199.017 283.654C199.017 283.264 199.013 282.873 199.009 282.471C199.005 281.169 199.009 279.867 199.013 278.562C199.013 277.628 199.009 276.691 199.005 275.753C198.998 273.477 199.001 271.2 199.005 268.924C199.009 267.067 199.009 265.215 199.005 263.362C199.005 263.098 199.005 262.834 199.005 262.563C199.005 262.027 199.005 261.488 199.005 260.952C199.001 255.919 199.005 250.886 199.013 245.853C199.02 241.549 199.02 237.242 199.013 232.934C199.005 227.923 199.001 222.913 199.005 217.902C199.005 217.366 199.005 216.831 199.005 216.295C199.009 215.901 199.009 215.901 199.009 215.495C199.009 213.65 199.005 211.802 199.001 209.957C198.998 207.461 199.001 204.968 199.009 202.472C199.013 201.561 199.013 200.649 199.009 199.738C198.983 191.443 199.785 184.308 205.865 178.01C207.118 176.809 208.415 175.66 209.743 174.536C211.015 173.372 211.643 172.769 211.84 171.013C211.847 170.493 211.847 169.972 211.843 169.451C211.843 169.168 211.847 168.882 211.847 168.588C211.855 167.647 211.851 166.706 211.847 165.765C211.847 165.114 211.847 164.459 211.851 163.804C211.851 162.435 211.851 161.063 211.843 159.694C211.836 157.938 211.84 156.179 211.847 154.423C211.851 153.073 211.851 151.722 211.847 150.372C211.847 149.725 211.847 149.077 211.851 148.43C211.855 147.523 211.847 146.619 211.843 145.715C211.843 145.447 211.847 145.179 211.851 144.9C211.847 143.453 211.847 143.453 211.128 142.237C210.939 142.092 210.754 141.947 210.561 141.798C210.421 140.905 210.421 140.905 210.424 139.856C210.424 139.48 210.424 139.101 210.424 138.714C210.428 138.32 210.436 137.925 210.443 137.52C210.44 136.928 210.44 136.928 210.44 136.326C210.459 133.391 210.459 133.391 211.317 132.126Z" fill="#6C55F9"/>
<rect width="9.69648" height="79.5111" transform="matrix(-1 0 0 1 262.271 530.553)" fill="#DBDBDB"/>
<rect width="9.69648" height="232.716" transform="matrix(0 -1 -1 0 261.302 540.249)" fill="#DBDBDB"/>
<g filter="url(#filter0_d_146_2489)">
<rect x="29.5142" y="629.457" width="19.393" height="232.716" transform="rotate(-90 29.5142 629.457)" fill="#FAC14D"/>
<rect x="30.0142" y="628.957" width="18.393" height="231.716" transform="rotate(-90 30.0142 628.957)" stroke="#575757"/>
</g>
<rect x="30.0142" y="730.77" width="18.393" height="231.716" transform="rotate(-90 30.0142 730.77)" fill="#FAC14D" stroke="#575757"/>
<rect x="30.0142" y="655.137" width="18.393" height="231.716" transform="rotate(-90 30.0142 655.137)" fill="#FAC14D" stroke="#575757"/>
<rect x="30.0142" y="680.348" width="18.393" height="231.716" transform="rotate(-90 30.0142 680.348)" fill="#FAC14D" stroke="#575757"/>
<rect x="30.0142" y="705.559" width="18.393" height="231.716" transform="rotate(-90 30.0142 705.559)" fill="#FAC14D" stroke="#575757"/>
<rect x="30.0142" y="628.987" width="17.4233" height="83.3594" fill="#FAC14D" stroke="#575757"/>
<rect x="244.307" y="628.987" width="17.4233" height="83.3594" fill="#FAC14D" stroke="#575757"/>
<g filter="url(#filter1_di_146_2489)">
<circle cx="253.503" cy="619.76" r="2.90894" fill="#E9E7F4"/>
</g>
<g filter="url(#filter2_di_146_2489)">
<circle cx="39.2107" cy="619.76" r="2.90894" fill="#E9E7F4"/>
</g>
<g filter="url(#filter3_di_146_2489)">
<circle cx="253.503" cy="721.573" r="2.90894" fill="#E9E7F4"/>
</g>
<g filter="url(#filter4_di_146_2489)">
<circle cx="39.2107" cy="721.573" r="2.90894" fill="#E9E7F4"/>
</g>
<rect width="5" height="80" transform="matrix(-1 0 0 1 33.9995 530.298)" fill="#999999"/>
<rect width="5.81789" height="81.4504" transform="matrix(-1 0 0 1 35.3735 320.139)" fill="#555555" fill-opacity="0.5"/>
<rect width="5.81789" height="232.716" transform="matrix(0 -1 -1 0 262.229 530.553)" fill="#555555" fill-opacity="0.3"/>
<rect x="29.5142" y="628.487" width="18.4233" height="3.87859" fill="black" fill-opacity="0.25"/>
<rect x="243.806" y="628.487" width="18.4233" height="3.87859" fill="black" fill-opacity="0.25"/>
<rect x="258.351" y="711.877" width="79.5111" height="3.87859" transform="rotate(-90 258.351 711.877)" fill="black" fill-opacity="0.25"/>
<rect x="29.5142" y="711.877" width="79.5111" height="3.87859" transform="rotate(-90 29.5142 711.877)" fill="black" fill-opacity="0.25"/>
<rect x="29.5142" y="628.487" width="15.5144" height="3.87859" transform="rotate(-90 29.5142 628.487)" fill="black" fill-opacity="0.25"/>
<rect x="258.351" y="628.487" width="15.5144" height="3.87859" transform="rotate(-90 258.351 628.487)" fill="black" fill-opacity="0.25"/>
<rect x="29.5142" y="728.361" width="16.484" height="3.87859" transform="rotate(-90 29.5142 728.361)" fill="black" fill-opacity="0.25"/>
<rect x="258.351" y="728.361" width="16.484" height="3.87859" transform="rotate(-90 258.351 728.361)" fill="black" fill-opacity="0.25"/>
<rect x="29.5142" y="610.064" width="232.716" height="2.90894" fill="black" fill-opacity="0.25"/>
<rect x="29.5142" y="728.361" width="232.716" height="2.90894" fill="black" fill-opacity="0.25"/>
<rect x="47.9375" y="636.244" width="195.869" height="2.90894" fill="black" fill-opacity="0.25"/>
<rect x="47.9375" y="628.487" width="195.869" height="0.969648" fill="black" fill-opacity="0.25"/>
<rect x="47.9375" y="661.455" width="195.869" height="2.90894" fill="black" fill-opacity="0.25"/>
<rect x="47.9375" y="686.666" width="195.869" height="2.90894" fill="black" fill-opacity="0.25"/>
<rect width="9.69648" height="79.5111" transform="matrix(-1 0 0 1 262.271 320.139)" fill="#DBDBDB"/>
<rect width="9.69648" height="232.716" transform="matrix(0 -1 -1 0 262.271 329.835)" fill="#DBDBDB"/>
<g filter="url(#filter5_d_146_2489)">
<rect x="29.5142" y="419.043" width="19.393" height="232.716" transform="rotate(-90 29.5142 419.043)" fill="#FAC14D"/>
<rect x="30.0142" y="418.543" width="18.393" height="231.716" transform="rotate(-90 30.0142 418.543)" stroke="#575757"/>
</g>
<rect x="30.0142" y="520.356" width="18.393" height="231.716" transform="rotate(-90 30.0142 520.356)" fill="#FAC14D" stroke="#575757"/>
<rect x="30.0142" y="444.724" width="18.393" height="231.716" transform="rotate(-90 30.0142 444.724)" fill="#FAC14D" stroke="#575757"/>
<rect x="30.0142" y="469.935" width="18.393" height="231.716" transform="rotate(-90 30.0142 469.935)" fill="#FAC14D" stroke="#575757"/>
<rect x="30.0142" y="495.145" width="18.393" height="231.716" transform="rotate(-90 30.0142 495.145)" fill="#FAC14D" stroke="#575757"/>
<rect x="30.0142" y="418.573" width="17.4233" height="83.3594" fill="#FAC14D" stroke="#575757"/>
<rect x="244.306" y="418.573" width="17.4233" height="83.3594" fill="#FAC14D" stroke="#575757"/>
<g filter="url(#filter6_di_146_2489)">
<circle cx="253.503" cy="409.346" r="2.90894" fill="#E9E7F4"/>
</g>
<g filter="url(#filter7_di_146_2489)">
<circle cx="39.2107" cy="409.346" r="2.90894" fill="#E9E7F4"/>
</g>
<g filter="url(#filter8_di_146_2489)">
<circle cx="253.503" cy="511.159" r="2.90894" fill="#E9E7F4"/>
</g>
<g filter="url(#filter9_di_146_2489)">
<circle cx="39.2107" cy="511.159" r="2.90894" fill="#E9E7F4"/>
</g>
<rect width="5.81789" height="79.5111" transform="matrix(-1 0 0 1 35.332 320.139)" fill="#999999"/>
<rect width="5.81789" height="79.5111" transform="matrix(-1 0 0 1 35.332 109.725)" fill="#A8A8A8"/>
<rect x="29.5142" y="418.073" width="18.4233" height="3.87859" fill="black" fill-opacity="0.25"/>
<rect x="243.806" y="418.073" width="18.4233" height="3.87859" fill="black" fill-opacity="0.25"/>
<rect x="258.351" y="501.463" width="79.5111" height="3.87859" transform="rotate(-90 258.351 501.463)" fill="black" fill-opacity="0.25"/>
<rect x="29.5142" y="501.463" width="79.5111" height="3.87859" transform="rotate(-90 29.5142 501.463)" fill="black" fill-opacity="0.25"/>
<rect x="29.5142" y="418.073" width="15.5144" height="3.87859" transform="rotate(-90 29.5142 418.073)" fill="black" fill-opacity="0.25"/>
<rect x="258.351" y="418.073" width="15.5144" height="3.87859" transform="rotate(-90 258.351 418.073)" fill="black" fill-opacity="0.25"/>
<rect x="29.5142" y="517.947" width="16.484" height="3.87859" transform="rotate(-90 29.5142 517.947)" fill="black" fill-opacity="0.25"/>
<rect x="258.351" y="517.947" width="16.484" height="3.87859" transform="rotate(-90 258.351 517.947)" fill="black" fill-opacity="0.25"/>
<rect x="29.5142" y="399.65" width="232.716" height="2.90894" fill="black" fill-opacity="0.25"/>
<rect x="29.5142" y="517.947" width="232.716" height="2.90894" fill="black" fill-opacity="0.25"/>
<rect x="47.9375" y="425.831" width="195.869" height="2.90894" fill="black" fill-opacity="0.25"/>
<rect x="47.9375" y="418.073" width="195.869" height="0.969648" fill="black" fill-opacity="0.25"/>
<rect x="47.9375" y="451.042" width="195.869" height="2.90894" fill="black" fill-opacity="0.25"/>
<rect x="47.9375" y="476.252" width="195.869" height="2.90894" fill="black" fill-opacity="0.25"/>
<rect width="9.69648" height="94.0559" transform="matrix(-1 0 0 1 262.271 109.725)" fill="#DBDBDB"/>
<rect width="9.69648" height="232.716" transform="matrix(0 -1 -1 0 262.271 119.422)" fill="#DBDBDB"/>
<g filter="url(#filter10_d_146_2489)">
<rect x="29.5142" y="208.63" width="19.393" height="232.716" transform="rotate(-90 29.5142 208.63)" fill="#FAC14D"/>
<rect x="30.0142" y="208.13" width="18.393" height="231.716" transform="rotate(-90 30.0142 208.13)" stroke="#575757"/>
</g>
<rect x="30.0142" y="309.943" width="18.393" height="231.716" transform="rotate(-90 30.0142 309.943)" fill="#FAC14D" stroke="#575757"/>
<rect x="30.0142" y="234.31" width="18.393" height="231.716" transform="rotate(-90 30.0142 234.31)" fill="#FAC14D" stroke="#575757"/>
<rect x="30.0142" y="259.521" width="18.393" height="231.716" transform="rotate(-90 30.0142 259.521)" fill="#FAC14D" stroke="#575757"/>
<rect x="30.0142" y="284.732" width="18.393" height="231.716" transform="rotate(-90 30.0142 284.732)" fill="#FAC14D" stroke="#575757"/>
<rect x="30.0142" y="208.16" width="17.4233" height="83.3594" fill="#FAC14D" stroke="#575757"/>
<rect x="244.307" y="208.16" width="17.4233" height="83.3594" fill="#FAC14D" stroke="#575757"/>
<rect width="5.81789" height="79.5111" transform="matrix(-1 0 0 1 35.332 109.725)" fill="#999999"/>
<g filter="url(#filter11_di_146_2489)">
<circle cx="253.503" cy="198.933" r="2.90894" fill="#E9E7F4"/>
</g>
<g filter="url(#filter12_di_146_2489)">
<circle cx="39.2107" cy="198.933" r="2.90894" fill="#E9E7F4"/>
</g>
<g filter="url(#filter13_di_146_2489)">
<circle cx="253.503" cy="300.746" r="2.90894" fill="#E9E7F4"/>
</g>
<g filter="url(#filter14_di_146_2489)">
<circle cx="39.2107" cy="300.746" r="2.90894" fill="#E9E7F4"/>
</g>
<rect x="29.5142" y="207.66" width="18.4233" height="3.87859" fill="black" fill-opacity="0.25"/>
<rect x="243.806" y="207.66" width="18.4233" height="3.87859" fill="black" fill-opacity="0.25"/>
<rect x="258.351" y="291.05" width="79.5111" height="3.87859" transform="rotate(-90 258.351 291.05)" fill="black" fill-opacity="0.25"/>
<rect x="29.5142" y="291.05" width="79.5111" height="3.87859" transform="rotate(-90 29.5142 291.05)" fill="black" fill-opacity="0.25"/>
<rect x="29.5142" y="207.66" width="15.5144" height="3.87859" transform="rotate(-90 29.5142 207.66)" fill="black" fill-opacity="0.25"/>
<rect x="258.351" y="207.66" width="15.5144" height="3.87859" transform="rotate(-90 258.351 207.66)" fill="black" fill-opacity="0.25"/>
<rect x="29.5142" y="307.534" width="16.484" height="3.87859" transform="rotate(-90 29.5142 307.534)" fill="black" fill-opacity="0.25"/>
<rect x="258.351" y="307.534" width="16.484" height="3.87859" transform="rotate(-90 258.351 307.534)" fill="black" fill-opacity="0.25"/>
<rect x="29.5142" y="189.237" width="232.716" height="2.90894" fill="black" fill-opacity="0.25"/>
<rect x="29.5142" y="307.534" width="232.716" height="2.90894" fill="black" fill-opacity="0.25"/>
<rect x="47.9375" y="215.417" width="195.869" height="2.90894" fill="black" fill-opacity="0.25"/>
<rect x="47.9375" y="207.66" width="195.869" height="0.969648" fill="black" fill-opacity="0.25"/>
<rect x="47.9375" y="240.628" width="195.869" height="2.90894" fill="black" fill-opacity="0.25"/>
<rect x="47.9375" y="265.839" width="195.869" height="2.90894" fill="black" fill-opacity="0.25"/>
<rect x="30" y="741" width="10" height="241" transform="rotate(-90 30 741)" fill="black"/>
<rect x="30" y="531" width="10" height="232" transform="rotate(-90 30 531)" fill="black"/>
<rect x="30" y="320" width="10" height="232" transform="rotate(-90 30 320)" fill="black"/>
<rect x="29" y="110" width="10" height="233" transform="rotate(-90 29 110)" fill="black"/>
<rect x="19.8599" y="74.8179" width="9.69648" height="681.663" fill="black"/>
<rect x="262.272" y="74.8179" width="9.69648" height="681.663" fill="black"/>
<g filter="url(#filter15_i_146_2489)">
<path d="M277.786 71C277.786 69.8954 276.891 69 275.786 69H271.968V756.48H277.786V71Z" fill="#787878"/>
</g>
<rect x="27.5752" y="740.966" width="235.624" height="5.81789" fill="black" fill-opacity="0.25"/>
<g filter="url(#filter16_i_146_2489)">
<rect x="29.4668" y="94.5022" width="232.91" height="5.45882" fill="#787878"/>
</g>
<g filter="url(#filter17_i_146_2489)">
<path d="M14 756.48H29.5144V760.298C29.5144 761.403 28.6189 762.298 27.5144 762.298H16C14.8954 762.298 14 761.403 14 760.298V756.48Z" fill="#787878"/>
</g>
<g filter="url(#filter18_i_146_2489)">
<path d="M262.23 756.48H277.744V760.298C277.744 761.403 276.849 762.298 275.744 762.298H264.23C263.125 762.298 262.23 761.403 262.23 760.298V756.48Z" fill="#787878"/>
</g>
<g filter="url(#filter19_i_146_2489)">
<path d="M19.8599 69H16.042C14.9374 69 14.042 69.8954 14.042 71V756.48H19.8599V69Z" fill="#787878"/>
</g>
<g filter="url(#filter20_i_146_2489)">
<path d="M277.786 74.8179L262.272 74.8179L262.272 71C262.272 69.8954 263.167 69 264.272 69L275.786 69C276.891 69 277.786 69.8954 277.786 71L277.786 74.8179Z" fill="#787878"/>
</g>
<g filter="url(#filter21_i_146_2489)">
<path d="M29.5562 74.8179L14.0418 74.8179L14.0418 71C14.0418 69.8954 14.9372 69 16.0418 69L27.5562 69C28.6607 69 29.5562 69.8954 29.5562 71L29.5562 74.8179Z" fill="#787878"/>
</g>
<circle cx="270" cy="125" r="113.5" fill="white" stroke="#C5C5C5" stroke-width="7"/>
<circle cx="270" cy="125" r="109.5" fill="white" stroke="black" stroke-width="7"/>
<g filter="url(#filter22_i_146_2489)">
<path fill-rule="evenodd" clip-rule="evenodd" d="M168.305 95H256V85H171.807C170.479 88.2557 169.309 91.5921 168.305 95Z" fill="#787878"/>
</g>
<path fill-rule="evenodd" clip-rule="evenodd" d="M164.672 137H237V116H164.376C164.127 118.967 164 121.969 164 125C164 129.057 164.228 133.061 164.672 137Z" fill="#DBDBDB"/>
<path fill-rule="evenodd" clip-rule="evenodd" d="M164.376 116H256V95H168.305C166.318 101.745 164.984 108.769 164.376 116Z" fill="black"/>
<path fill-rule="evenodd" clip-rule="evenodd" d="M256 230.084V116H237V225.762C243.108 227.761 249.46 229.221 256 230.084Z" fill="#DBDBDB"/>
<g filter="url(#filter23_i_146_2489)">
<path fill-rule="evenodd" clip-rule="evenodd" d="M289 229.302V43H277V230.772C281.067 230.507 285.071 230.013 289 229.302Z" fill="#787878"/>
</g>
<path fill-rule="evenodd" clip-rule="evenodd" d="M277 230.772C274.686 230.923 272.352 231 270 231C265.254 231 260.581 230.688 256 230.084V43H277V230.772Z" fill="black"/>
<g filter="url(#filter24_i_146_2489)">
<path fill-rule="evenodd" clip-rule="evenodd" d="M255.836 43.4364L289 43.4364V33C289 31.8954 288.105 31 287 31L257.836 31C256.732 31 255.836 31.8954 255.836 33L255.836 43.4364Z" fill="#787878"/>
</g>
<rect x="258.5" y="116.5" width="28" height="91" fill="#FAC14D" stroke="#6C55F9"/>
<path d="M265.681 194.623C265.681 192.647 266.036 191.133 266.745 190.082C267.442 189.031 268.531 188.505 270.013 188.505C270.938 188.505 271.691 188.72 272.274 189.151C272.844 189.569 273.294 190.177 273.623 190.975C273.952 190.709 274.332 190.43 274.763 190.139C275.181 189.848 275.624 189.563 276.093 189.284C276.549 188.993 277.03 188.714 277.537 188.448C278.031 188.182 278.519 187.935 279 187.707L279 191.032C278.569 191.273 278.132 191.52 277.689 191.773C277.246 192.014 276.815 192.267 276.397 192.533C275.979 192.786 275.586 193.04 275.219 193.293C274.839 193.546 274.497 193.8 274.193 194.053L274.193 195.516L279 195.516L279 198.48L266.023 198.48C265.896 197.834 265.808 197.169 265.757 196.485C265.706 195.788 265.681 195.168 265.681 194.623ZM268.208 194.452C268.208 194.667 268.214 194.864 268.227 195.041C268.24 195.206 268.252 195.364 268.265 195.516L271.837 195.516L271.837 194.68C271.837 193.565 271.698 192.767 271.419 192.286C271.14 191.805 270.665 191.564 269.994 191.564C269.348 191.564 268.892 191.811 268.626 192.305C268.347 192.786 268.208 193.502 268.208 194.452ZM268.569 181.433C268.417 181.065 268.246 180.685 268.056 180.293C267.853 179.887 267.638 179.495 267.41 179.115C267.169 178.735 266.922 178.374 266.669 178.032C266.403 177.677 266.124 177.36 265.833 177.082L265.833 175.106L279 175.106L279 177.937L269.519 177.937C269.772 178.317 270.007 178.741 270.222 179.21C270.425 179.678 270.602 180.134 270.754 180.578L268.569 181.433ZM269.291 157.975C269.772 157.975 270.235 158.07 270.678 158.26C271.121 158.45 271.552 158.697 271.97 159.001C272.375 159.305 272.768 159.647 273.148 160.027C273.528 160.407 273.889 160.781 274.231 161.148C274.408 161.338 274.611 161.547 274.839 161.775C275.054 161.991 275.276 162.2 275.504 162.402C275.732 162.605 275.947 162.789 276.15 162.953C276.34 163.105 276.498 163.2 276.625 163.238L276.625 157.576L279 157.576L279 166.354C278.861 166.38 278.683 166.392 278.468 166.392C278.253 166.392 278.101 166.392 278.012 166.392C277.404 166.392 276.847 166.297 276.34 166.107C275.833 165.905 275.365 165.645 274.934 165.328C274.491 165.012 274.079 164.657 273.699 164.264C273.319 163.859 272.939 163.46 272.559 163.067C272.268 162.763 271.995 162.478 271.742 162.212C271.476 161.946 271.223 161.712 270.982 161.509C270.729 161.307 270.482 161.148 270.241 161.034C269.988 160.92 269.734 160.863 269.481 160.863C268.924 160.863 268.531 161.022 268.303 161.338C268.075 161.655 267.961 162.048 267.961 162.516C267.961 162.858 268.018 163.181 268.132 163.485C268.233 163.777 268.36 164.049 268.512 164.302C268.651 164.543 268.797 164.752 268.949 164.929C269.088 165.107 269.202 165.24 269.291 165.328L267.315 166.734C266.796 166.177 266.371 165.531 266.042 164.796C265.7 164.049 265.529 163.251 265.529 162.402C265.529 161.63 265.618 160.965 265.795 160.407C265.972 159.85 266.226 159.394 266.555 159.039C266.872 158.672 267.264 158.406 267.733 158.241C268.189 158.064 268.708 157.975 269.291 157.975ZM279.285 147.704C279.285 148.046 279.26 148.407 279.209 148.787C279.171 149.167 279.114 149.534 279.038 149.889C278.962 150.244 278.88 150.567 278.791 150.858C278.702 151.149 278.62 151.377 278.544 151.542L276.188 150.991C276.327 150.662 276.479 150.244 276.644 149.737C276.796 149.218 276.872 148.578 276.872 147.818C276.872 146.944 276.707 146.304 276.378 145.899C276.049 145.494 275.605 145.291 275.048 145.291C274.706 145.291 274.421 145.367 274.193 145.519C273.952 145.658 273.762 145.855 273.623 146.108C273.471 146.361 273.37 146.665 273.319 147.02C273.256 147.362 273.224 147.729 273.224 148.122L273.224 149.224L270.944 149.224L270.944 147.97C270.944 147.691 270.919 147.425 270.868 147.172C270.817 146.906 270.735 146.672 270.621 146.469C270.494 146.266 270.33 146.108 270.127 145.994C269.912 145.867 269.646 145.804 269.329 145.804C269.088 145.804 268.879 145.855 268.702 145.956C268.525 146.057 268.379 146.19 268.265 146.355C268.151 146.507 268.069 146.691 268.018 146.906C267.955 147.109 267.923 147.318 267.923 147.533C267.923 148.078 268.005 148.584 268.17 149.053C268.335 149.509 268.537 149.927 268.778 150.307L266.707 151.314C266.58 151.111 266.447 150.877 266.308 150.611C266.169 150.332 266.042 150.028 265.928 149.699C265.814 149.37 265.719 149.021 265.643 148.654C265.567 148.274 265.529 147.875 265.529 147.457C265.529 146.684 265.624 146.019 265.814 145.462C265.991 144.892 266.251 144.423 266.593 144.056C266.922 143.689 267.315 143.416 267.771 143.239C268.214 143.062 268.702 142.973 269.234 142.973C269.753 142.973 270.26 143.119 270.754 143.41C271.235 143.701 271.603 144.094 271.856 144.588C272.135 143.904 272.553 143.378 273.11 143.011C273.655 142.631 274.313 142.441 275.086 142.441C275.694 142.441 276.258 142.542 276.777 142.745C277.284 142.948 277.727 143.264 278.107 143.695C278.474 144.126 278.766 144.677 278.981 145.348C279.184 146.007 279.285 146.792 279.285 147.704ZM269.291 130.612C269.937 131.106 270.64 131.632 271.4 132.189C272.16 132.746 272.939 133.215 273.737 133.595L273.737 130.612L269.291 130.612ZM265.833 127.838L273.737 127.838L273.737 126.432L276.055 126.432L276.055 127.838L279 127.838L279 130.612L276.055 130.612L276.055 136.293L273.984 136.293C273.427 136.014 272.8 135.666 272.103 135.248C271.394 134.83 270.672 134.368 269.937 133.861C269.19 133.342 268.461 132.797 267.752 132.227C267.043 131.657 266.403 131.087 265.833 130.517L265.833 127.838Z" fill="#5500FF"/>
<path d="M406.243 18.024C406.859 16.9827 407.445 15.9413 408.003 14.9C408.56 13.8587 409.073 12.81 409.543 11.754H413.327C412.491 13.3967 411.625 14.988 410.731 16.528C409.836 18.068 408.89 19.6153 407.893 21.17V27H404.461V21.214C403.463 19.6593 402.51 18.1047 401.601 16.55C400.706 14.9953 399.841 13.3967 399.005 11.754H402.987C403.456 12.81 403.962 13.8587 404.505 14.9C405.047 15.9413 405.627 16.9827 406.243 18.024ZM423.87 21.192C423.87 22.1013 423.738 22.9373 423.474 23.7C423.21 24.448 422.829 25.0933 422.33 25.636C421.831 26.164 421.23 26.5747 420.526 26.868C419.837 27.1613 419.059 27.308 418.194 27.308C417.343 27.308 416.566 27.1613 415.862 26.868C415.173 26.5747 414.579 26.164 414.08 25.636C413.581 25.0933 413.193 24.448 412.914 23.7C412.635 22.9373 412.496 22.1013 412.496 21.192C412.496 20.2827 412.635 19.454 412.914 18.706C413.207 17.958 413.603 17.32 414.102 16.792C414.615 16.264 415.217 15.8533 415.906 15.56C416.61 15.2667 417.373 15.12 418.194 15.12C419.03 15.12 419.793 15.2667 420.482 15.56C421.186 15.8533 421.787 16.264 422.286 16.792C422.785 17.32 423.173 17.958 423.452 18.706C423.731 19.454 423.87 20.2827 423.87 21.192ZM420.526 21.192C420.526 20.18 420.321 19.388 419.91 18.816C419.514 18.2293 418.942 17.936 418.194 17.936C417.446 17.936 416.867 18.2293 416.456 18.816C416.045 19.388 415.84 20.18 415.84 21.192C415.84 22.204 416.045 23.0107 416.456 23.612C416.867 24.1987 417.446 24.492 418.194 24.492C418.942 24.492 419.514 24.1987 419.91 23.612C420.321 23.0107 420.526 22.204 420.526 21.192ZM436.287 26.604C435.73 26.7653 435.011 26.912 434.131 27.044C433.251 27.1907 432.327 27.264 431.359 27.264C430.376 27.264 429.555 27.132 428.895 26.868C428.25 26.604 427.736 26.2373 427.355 25.768C426.974 25.284 426.702 24.712 426.541 24.052C426.38 23.392 426.299 22.666 426.299 21.874V15.428H429.577V21.478C429.577 22.534 429.716 23.2967 429.995 23.766C430.274 24.2353 430.794 24.47 431.557 24.47C431.792 24.47 432.041 24.4627 432.305 24.448C432.569 24.4187 432.804 24.3893 433.009 24.36V15.428H436.287V26.604ZM446.338 18.332C446.045 18.2587 445.7 18.1853 445.304 18.112C444.908 18.024 444.483 17.98 444.028 17.98C443.823 17.98 443.574 18.002 443.28 18.046C443.002 18.0753 442.789 18.112 442.642 18.156V27H439.364V16.044C439.951 15.8387 440.64 15.648 441.432 15.472C442.239 15.2813 443.134 15.186 444.116 15.186C444.292 15.186 444.505 15.2007 444.754 15.23C445.004 15.2447 445.253 15.274 445.502 15.318C445.752 15.3473 446.001 15.3913 446.25 15.45C446.5 15.494 446.712 15.5527 446.888 15.626L446.338 18.332ZM389.372 36.578C391.66 36.578 393.413 36.9887 394.63 37.81C395.848 38.6167 396.456 39.878 396.456 41.594C396.456 42.6647 396.207 43.5373 395.708 44.212C395.224 44.872 394.52 45.3927 393.596 45.774C393.904 46.1553 394.227 46.5953 394.564 47.094C394.902 47.578 395.232 48.0913 395.554 48.634C395.892 49.162 396.214 49.7193 396.522 50.306C396.83 50.878 397.116 51.4427 397.38 52H393.53C393.252 51.5013 392.966 50.9953 392.672 50.482C392.394 49.9687 392.1 49.47 391.792 48.986C391.499 48.502 391.206 48.0473 390.912 47.622C390.619 47.182 390.326 46.786 390.032 46.434H388.338V52H384.906V36.974C385.654 36.8273 386.424 36.7247 387.216 36.666C388.023 36.6073 388.742 36.578 389.372 36.578ZM389.57 39.504C389.321 39.504 389.094 39.5113 388.888 39.526C388.698 39.5407 388.514 39.5553 388.338 39.57V43.706H389.306C390.597 43.706 391.521 43.5447 392.078 43.222C392.636 42.8993 392.914 42.3493 392.914 41.572C392.914 40.824 392.628 40.296 392.056 39.988C391.499 39.6653 390.67 39.504 389.57 39.504ZM403.224 49.712C403.546 49.712 403.854 49.7047 404.148 49.69C404.441 49.6753 404.676 49.6533 404.852 49.624V47.138C404.72 47.1087 404.522 47.0793 404.258 47.05C403.994 47.0207 403.752 47.006 403.532 47.006C403.224 47.006 402.93 47.028 402.652 47.072C402.388 47.1013 402.153 47.1673 401.948 47.27C401.742 47.3727 401.581 47.512 401.464 47.688C401.346 47.864 401.288 48.084 401.288 48.348C401.288 48.8613 401.456 49.2207 401.794 49.426C402.146 49.6167 402.622 49.712 403.224 49.712ZM402.96 40.12C403.928 40.12 404.734 40.23 405.38 40.45C406.025 40.67 406.538 40.9853 406.92 41.396C407.316 41.8067 407.594 42.3053 407.756 42.892C407.917 43.4787 407.998 44.1313 407.998 44.85V51.67C407.528 51.7727 406.876 51.89 406.04 52.022C405.204 52.1687 404.192 52.242 403.004 52.242C402.256 52.242 401.574 52.176 400.958 52.044C400.356 51.912 399.836 51.6993 399.396 51.406C398.956 51.098 398.618 50.702 398.384 50.218C398.149 49.734 398.032 49.14 398.032 48.436C398.032 47.7613 398.164 47.1893 398.428 46.72C398.706 46.2507 399.073 45.8767 399.528 45.598C399.982 45.3193 400.503 45.1213 401.09 45.004C401.676 44.872 402.285 44.806 402.916 44.806C403.341 44.806 403.715 44.828 404.038 44.872C404.375 44.9013 404.646 44.9453 404.852 45.004V44.696C404.852 44.1387 404.683 43.6913 404.346 43.354C404.008 43.0167 403.422 42.848 402.586 42.848C402.028 42.848 401.478 42.892 400.936 42.98C400.393 43.0533 399.924 43.1633 399.528 43.31L399.11 40.67C399.3 40.6113 399.535 40.5527 399.814 40.494C400.107 40.4207 400.422 40.362 400.76 40.318C401.097 40.2593 401.449 40.2153 401.816 40.186C402.197 40.142 402.578 40.12 402.96 40.12ZM410.412 46.214C410.412 45.378 410.544 44.5933 410.808 43.86C411.087 43.112 411.483 42.4667 411.996 41.924C412.509 41.3667 413.133 40.9267 413.866 40.604C414.599 40.2813 415.435 40.12 416.374 40.12C416.99 40.12 417.555 40.1787 418.068 40.296C418.581 40.3987 419.08 40.5527 419.564 40.758L418.882 43.376C418.574 43.2587 418.237 43.156 417.87 43.068C417.503 42.98 417.093 42.936 416.638 42.936C415.67 42.936 414.944 43.2367 414.46 43.838C413.991 44.4393 413.756 45.2313 413.756 46.214C413.756 47.2553 413.976 48.062 414.416 48.634C414.871 49.206 415.655 49.492 416.77 49.492C417.166 49.492 417.591 49.4553 418.046 49.382C418.501 49.3087 418.919 49.1913 419.3 49.03L419.762 51.714C419.381 51.8753 418.904 52.0147 418.332 52.132C417.76 52.2493 417.129 52.308 416.44 52.308C415.384 52.308 414.475 52.154 413.712 51.846C412.949 51.5233 412.319 51.0907 411.82 50.548C411.336 50.0053 410.977 49.3673 410.742 48.634C410.522 47.886 410.412 47.0793 410.412 46.214ZM425.24 44.608C425.563 44.256 425.893 43.8893 426.23 43.508C426.582 43.1267 426.919 42.7527 427.242 42.386C427.565 42.0047 427.865 41.6453 428.144 41.308C428.437 40.9707 428.687 40.6773 428.892 40.428H432.786C432.009 41.3227 431.246 42.1807 430.498 43.002C429.765 43.8087 428.958 44.6447 428.078 45.51C428.518 45.906 428.973 46.3827 429.442 46.94C429.911 47.4827 430.366 48.0473 430.806 48.634C431.246 49.2207 431.649 49.8073 432.016 50.394C432.383 50.9807 432.691 51.516 432.94 52H429.178C428.943 51.6187 428.672 51.2007 428.364 50.746C428.071 50.2767 427.755 49.8147 427.418 49.36C427.081 48.8907 426.721 48.4433 426.34 48.018C425.973 47.5927 425.607 47.2333 425.24 46.94V52H421.962V35.456L425.24 34.928V44.608ZM432.745 43.948H439.125V46.918H432.745V43.948ZM441.432 36.754H444.864V52H441.432V36.754ZM451.825 49.206C451.986 49.2207 452.169 49.2353 452.375 49.25C452.595 49.25 452.851 49.25 453.145 49.25C454.861 49.25 456.129 48.8173 456.951 47.952C457.787 47.0867 458.205 45.8913 458.205 44.366C458.205 42.7673 457.809 41.5573 457.017 40.736C456.225 39.9147 454.971 39.504 453.255 39.504C453.02 39.504 452.778 39.5113 452.529 39.526C452.279 39.526 452.045 39.5407 451.825 39.57V49.206ZM461.747 44.366C461.747 45.686 461.541 46.8373 461.131 47.82C460.72 48.8027 460.133 49.6167 459.371 50.262C458.623 50.9073 457.706 51.3913 456.621 51.714C455.535 52.0367 454.318 52.198 452.969 52.198C452.353 52.198 451.634 52.1687 450.813 52.11C449.991 52.066 449.185 51.9633 448.393 51.802V36.952C449.185 36.8053 450.006 36.71 450.857 36.666C451.722 36.6073 452.463 36.578 453.079 36.578C454.384 36.578 455.565 36.7247 456.621 37.018C457.691 37.3113 458.608 37.7733 459.371 38.404C460.133 39.0347 460.72 39.8413 461.131 40.824C461.541 41.8067 461.747 42.9873 461.747 44.366Z" fill="#6C55F9"/>
<circle cx="270" cy="125" r="105" stroke="#7C7C7C" stroke-width="2"/>
<path d="M433.5 69C433.5 67.067 431.933 65.5 430 65.5C428.067 65.5 426.5 67.067 426.5 69L433.5 69ZM430 153L430 156.5L433.5 156.5L433.5 153L430 153ZM293.525 150.525C292.158 151.892 292.158 154.108 293.525 155.475L315.799 177.749C317.166 179.116 319.382 179.116 320.749 177.749C322.116 176.382 322.116 174.166 320.749 172.799L300.95 153L320.749 133.201C322.116 131.834 322.116 129.618 320.749 128.251C319.382 126.884 317.166 126.884 315.799 128.251L293.525 150.525ZM426.5 69L426.5 153L433.5 153L433.5 69L426.5 69ZM430 149.5L296 149.5L296 156.5L430 156.5L430 149.5Z" fill="#FAC14D"/>
<defs>
<filter id="filter0_d_146_2489" x="29.5142" y="610.064" width="232.715" height="19.3931" filterUnits="userSpaceOnUse" color-interpolation-filters="sRGB">
<feFlood flood-opacity="0" result="BackgroundImageFix"/>
<feColorMatrix in="SourceAlpha" type="matrix" values="0 0 0 0 0 0 0 0 0 0 0 0 0 0 0 0 0 0 127 0" result="hardAlpha"/>
<feOffset/>
<feComposite in2="hardAlpha" operator="out"/>
<feColorMatrix type="matrix" values="0 0 0 0 0 0 0 0 0 0 0 0 0 0 0 0 0 0 0.25 0"/>
<feBlend mode="normal" in2="BackgroundImageFix" result="effect1_dropShadow_146_2489"/>
<feBlend mode="normal" in="SourceGraphic" in2="effect1_dropShadow_146_2489" result="shape"/>
</filter>
<filter id="filter1_di_146_2489" x="250.594" y="616.851" width="6.31787" height="6.31787" filterUnits="userSpaceOnUse" color-interpolation-filters="sRGB">
<feFlood flood-opacity="0" result="BackgroundImageFix"/>
<feColorMatrix in="SourceAlpha" type="matrix" values="0 0 0 0 0 0 0 0 0 0 0 0 0 0 0 0 0 0 127 0" result="hardAlpha"/>
<feOffset dx="0.5" dy="0.5"/>
<feComposite in2="hardAlpha" operator="out"/>
<feColorMatrix type="matrix" values="0 0 0 0 0 0 0 0 0 0 0 0 0 0 0 0 0 0 0.25 0"/>
<feBlend mode="normal" in2="BackgroundImageFix" result="effect1_dropShadow_146_2489"/>
<feBlend mode="normal" in="SourceGraphic" in2="effect1_dropShadow_146_2489" result="shape"/>
<feColorMatrix in="SourceAlpha" type="matrix" values="0 0 0 0 0 0 0 0 0 0 0 0 0 0 0 0 0 0 127 0" result="hardAlpha"/>
<feOffset dx="0.5" dy="0.5"/>
<feComposite in2="hardAlpha" operator="arithmetic" k2="-1" k3="1"/>
<feColorMatrix type="matrix" values="0 0 0 0 0 0 0 0 0 0 0 0 0 0 0 0 0 0 0.25 0"/>
<feBlend mode="normal" in2="shape" result="effect2_innerShadow_146_2489"/>
</filter>
<filter id="filter2_di_146_2489" x="36.3018" y="616.851" width="6.31787" height="6.31787" filterUnits="userSpaceOnUse" color-interpolation-filters="sRGB">
<feFlood flood-opacity="0" result="BackgroundImageFix"/>
<feColorMatrix in="SourceAlpha" type="matrix" values="0 0 0 0 0 0 0 0 0 0 0 0 0 0 0 0 0 0 127 0" result="hardAlpha"/>
<feOffset dx="0.5" dy="0.5"/>
<feComposite in2="hardAlpha" operator="out"/>
<feColorMatrix type="matrix" values="0 0 0 0 0 0 0 0 0 0 0 0 0 0 0 0 0 0 0.25 0"/>
<feBlend mode="normal" in2="BackgroundImageFix" result="effect1_dropShadow_146_2489"/>
<feBlend mode="normal" in="SourceGraphic" in2="effect1_dropShadow_146_2489" result="shape"/>
<feColorMatrix in="SourceAlpha" type="matrix" values="0 0 0 0 0 0 0 0 0 0 0 0 0 0 0 0 0 0 127 0" result="hardAlpha"/>
<feOffset dx="0.5" dy="0.5"/>
<feComposite in2="hardAlpha" operator="arithmetic" k2="-1" k3="1"/>
<feColorMatrix type="matrix" values="0 0 0 0 0 0 0 0 0 0 0 0 0 0 0 0 0 0 0.25 0"/>
<feBlend mode="normal" in2="shape" result="effect2_innerShadow_146_2489"/>
</filter>
<filter id="filter3_di_146_2489" x="250.594" y="718.664" width="6.31787" height="6.31787" filterUnits="userSpaceOnUse" color-interpolation-filters="sRGB">
<feFlood flood-opacity="0" result="BackgroundImageFix"/>
<feColorMatrix in="SourceAlpha" type="matrix" values="0 0 0 0 0 0 0 0 0 0 0 0 0 0 0 0 0 0 127 0" result="hardAlpha"/>
<feOffset dx="0.5" dy="0.5"/>
<feComposite in2="hardAlpha" operator="out"/>
<feColorMatrix type="matrix" values="0 0 0 0 0 0 0 0 0 0 0 0 0 0 0 0 0 0 0.25 0"/>
<feBlend mode="normal" in2="BackgroundImageFix" result="effect1_dropShadow_146_2489"/>
<feBlend mode="normal" in="SourceGraphic" in2="effect1_dropShadow_146_2489" result="shape"/>
<feColorMatrix in="SourceAlpha" type="matrix" values="0 0 0 0 0 0 0 0 0 0 0 0 0 0 0 0 0 0 127 0" result="hardAlpha"/>
<feOffset dx="0.5" dy="0.5"/>
<feComposite in2="hardAlpha" operator="arithmetic" k2="-1" k3="1"/>
<feColorMatrix type="matrix" values="0 0 0 0 0 0 0 0 0 0 0 0 0 0 0 0 0 0 0.25 0"/>
<feBlend mode="normal" in2="shape" result="effect2_innerShadow_146_2489"/>
</filter>
<filter id="filter4_di_146_2489" x="36.3018" y="718.664" width="6.31787" height="6.31787" filterUnits="userSpaceOnUse" color-interpolation-filters="sRGB">
<feFlood flood-opacity="0" result="BackgroundImageFix"/>
<feColorMatrix in="SourceAlpha" type="matrix" values="0 0 0 0 0 0 0 0 0 0 0 0 0 0 0 0 0 0 127 0" result="hardAlpha"/>
<feOffset dx="0.5" dy="0.5"/>
<feComposite in2="hardAlpha" operator="out"/>
<feColorMatrix type="matrix" values="0 0 0 0 0 0 0 0 0 0 0 0 0 0 0 0 0 0 0.25 0"/>
<feBlend mode="normal" in2="BackgroundImageFix" result="effect1_dropShadow_146_2489"/>
<feBlend mode="normal" in="SourceGraphic" in2="effect1_dropShadow_146_2489" result="shape"/>
<feColorMatrix in="SourceAlpha" type="matrix" values="0 0 0 0 0 0 0 0 0 0 0 0 0 0 0 0 0 0 127 0" result="hardAlpha"/>
<feOffset dx="0.5" dy="0.5"/>
<feComposite in2="hardAlpha" operator="arithmetic" k2="-1" k3="1"/>
<feColorMatrix type="matrix" values="0 0 0 0 0 0 0 0 0 0 0 0 0 0 0 0 0 0 0.25 0"/>
<feBlend mode="normal" in2="shape" result="effect2_innerShadow_146_2489"/>
</filter>
<filter id="filter5_d_146_2489" x="29.5142" y="399.65" width="232.715" height="19.3931" filterUnits="userSpaceOnUse" color-interpolation-filters="sRGB">
<feFlood flood-opacity="0" result="BackgroundImageFix"/>
<feColorMatrix in="SourceAlpha" type="matrix" values="0 0 0 0 0 0 0 0 0 0 0 0 0 0 0 0 0 0 127 0" result="hardAlpha"/>
<feOffset/>
<feComposite in2="hardAlpha" operator="out"/>
<feColorMatrix type="matrix" values="0 0 0 0 0 0 0 0 0 0 0 0 0 0 0 0 0 0 0.25 0"/>
<feBlend mode="normal" in2="BackgroundImageFix" result="effect1_dropShadow_146_2489"/>
<feBlend mode="normal" in="SourceGraphic" in2="effect1_dropShadow_146_2489" result="shape"/>
</filter>
<filter id="filter6_di_146_2489" x="250.594" y="406.438" width="6.31787" height="6.31787" filterUnits="userSpaceOnUse" color-interpolation-filters="sRGB">
<feFlood flood-opacity="0" result="BackgroundImageFix"/>
<feColorMatrix in="SourceAlpha" type="matrix" values="0 0 0 0 0 0 0 0 0 0 0 0 0 0 0 0 0 0 127 0" result="hardAlpha"/>
<feOffset dx="0.5" dy="0.5"/>
<feComposite in2="hardAlpha" operator="out"/>
<feColorMatrix type="matrix" values="0 0 0 0 0 0 0 0 0 0 0 0 0 0 0 0 0 0 0.25 0"/>
<feBlend mode="normal" in2="BackgroundImageFix" result="effect1_dropShadow_146_2489"/>
<feBlend mode="normal" in="SourceGraphic" in2="effect1_dropShadow_146_2489" result="shape"/>
<feColorMatrix in="SourceAlpha" type="matrix" values="0 0 0 0 0 0 0 0 0 0 0 0 0 0 0 0 0 0 127 0" result="hardAlpha"/>
<feOffset dx="0.5" dy="0.5"/>
<feComposite in2="hardAlpha" operator="arithmetic" k2="-1" k3="1"/>
<feColorMatrix type="matrix" values="0 0 0 0 0 0 0 0 0 0 0 0 0 0 0 0 0 0 0.25 0"/>
<feBlend mode="normal" in2="shape" result="effect2_innerShadow_146_2489"/>
</filter>
<filter id="filter7_di_146_2489" x="36.3018" y="406.438" width="6.31787" height="6.31787" filterUnits="userSpaceOnUse" color-interpolation-filters="sRGB">
<feFlood flood-opacity="0" result="BackgroundImageFix"/>
<feColorMatrix in="SourceAlpha" type="matrix" values="0 0 0 0 0 0 0 0 0 0 0 0 0 0 0 0 0 0 127 0" result="hardAlpha"/>
<feOffset dx="0.5" dy="0.5"/>
<feComposite in2="hardAlpha" operator="out"/>
<feColorMatrix type="matrix" values="0 0 0 0 0 0 0 0 0 0 0 0 0 0 0 0 0 0 0.25 0"/>
<feBlend mode="normal" in2="BackgroundImageFix" result="effect1_dropShadow_146_2489"/>
<feBlend mode="normal" in="SourceGraphic" in2="effect1_dropShadow_146_2489" result="shape"/>
<feColorMatrix in="SourceAlpha" type="matrix" values="0 0 0 0 0 0 0 0 0 0 0 0 0 0 0 0 0 0 127 0" result="hardAlpha"/>
<feOffset dx="0.5" dy="0.5"/>
<feComposite in2="hardAlpha" operator="arithmetic" k2="-1" k3="1"/>
<feColorMatrix type="matrix" values="0 0 0 0 0 0 0 0 0 0 0 0 0 0 0 0 0 0 0.25 0"/>
<feBlend mode="normal" in2="shape" result="effect2_innerShadow_146_2489"/>
</filter>
<filter id="filter8_di_146_2489" x="250.594" y="508.25" width="6.31787" height="6.31787" filterUnits="userSpaceOnUse" color-interpolation-filters="sRGB">
<feFlood flood-opacity="0" result="BackgroundImageFix"/>
<feColorMatrix in="SourceAlpha" type="matrix" values="0 0 0 0 0 0 0 0 0 0 0 0 0 0 0 0 0 0 127 0" result="hardAlpha"/>
<feOffset dx="0.5" dy="0.5"/>
<feComposite in2="hardAlpha" operator="out"/>
<feColorMatrix type="matrix" values="0 0 0 0 0 0 0 0 0 0 0 0 0 0 0 0 0 0 0.25 0"/>
<feBlend mode="normal" in2="BackgroundImageFix" result="effect1_dropShadow_146_2489"/>
<feBlend mode="normal" in="SourceGraphic" in2="effect1_dropShadow_146_2489" result="shape"/>
<feColorMatrix in="SourceAlpha" type="matrix" values="0 0 0 0 0 0 0 0 0 0 0 0 0 0 0 0 0 0 127 0" result="hardAlpha"/>
<feOffset dx="0.5" dy="0.5"/>
<feComposite in2="hardAlpha" operator="arithmetic" k2="-1" k3="1"/>
<feColorMatrix type="matrix" values="0 0 0 0 0 0 0 0 0 0 0 0 0 0 0 0 0 0 0.25 0"/>
<feBlend mode="normal" in2="shape" result="effect2_innerShadow_146_2489"/>
</filter>
<filter id="filter9_di_146_2489" x="36.3018" y="508.25" width="6.31787" height="6.31787" filterUnits="userSpaceOnUse" color-interpolation-filters="sRGB">
<feFlood flood-opacity="0" result="BackgroundImageFix"/>
<feColorMatrix in="SourceAlpha" type="matrix" values="0 0 0 0 0 0 0 0 0 0 0 0 0 0 0 0 0 0 127 0" result="hardAlpha"/>
<feOffset dx="0.5" dy="0.5"/>
<feComposite in2="hardAlpha" operator="out"/>
<feColorMatrix type="matrix" values="0 0 0 0 0 0 0 0 0 0 0 0 0 0 0 0 0 0 0.25 0"/>
<feBlend mode="normal" in2="BackgroundImageFix" result="effect1_dropShadow_146_2489"/>
<feBlend mode="normal" in="SourceGraphic" in2="effect1_dropShadow_146_2489" result="shape"/>
<feColorMatrix in="SourceAlpha" type="matrix" values="0 0 0 0 0 0 0 0 0 0 0 0 0 0 0 0 0 0 127 0" result="hardAlpha"/>
<feOffset dx="0.5" dy="0.5"/>
<feComposite in2="hardAlpha" operator="arithmetic" k2="-1" k3="1"/>
<feColorMatrix type="matrix" values="0 0 0 0 0 0 0 0 0 0 0 0 0 0 0 0 0 0 0.25 0"/>
<feBlend mode="normal" in2="shape" result="effect2_innerShadow_146_2489"/>
</filter>
<filter id="filter10_d_146_2489" x="29.5142" y="189.237" width="232.715" height="19.3931" filterUnits="userSpaceOnUse" color-interpolation-filters="sRGB">
<feFlood flood-opacity="0" result="BackgroundImageFix"/>
<feColorMatrix in="SourceAlpha" type="matrix" values="0 0 0 0 0 0 0 0 0 0 0 0 0 0 0 0 0 0 127 0" result="hardAlpha"/>
<feOffset/>
<feComposite in2="hardAlpha" operator="out"/>
<feColorMatrix type="matrix" values="0 0 0 0 0 0 0 0 0 0 0 0 0 0 0 0 0 0 0.25 0"/>
<feBlend mode="normal" in2="BackgroundImageFix" result="effect1_dropShadow_146_2489"/>
<feBlend mode="normal" in="SourceGraphic" in2="effect1_dropShadow_146_2489" result="shape"/>
</filter>
<filter id="filter11_di_146_2489" x="250.594" y="196.024" width="6.31787" height="6.31787" filterUnits="userSpaceOnUse" color-interpolation-filters="sRGB">
<feFlood flood-opacity="0" result="BackgroundImageFix"/>
<feColorMatrix in="SourceAlpha" type="matrix" values="0 0 0 0 0 0 0 0 0 0 0 0 0 0 0 0 0 0 127 0" result="hardAlpha"/>
<feOffset dx="0.5" dy="0.5"/>
<feComposite in2="hardAlpha" operator="out"/>
<feColorMatrix type="matrix" values="0 0 0 0 0 0 0 0 0 0 0 0 0 0 0 0 0 0 0.25 0"/>
<feBlend mode="normal" in2="BackgroundImageFix" result="effect1_dropShadow_146_2489"/>
<feBlend mode="normal" in="SourceGraphic" in2="effect1_dropShadow_146_2489" result="shape"/>
<feColorMatrix in="SourceAlpha" type="matrix" values="0 0 0 0 0 0 0 0 0 0 0 0 0 0 0 0 0 0 127 0" result="hardAlpha"/>
<feOffset dx="0.5" dy="0.5"/>
<feComposite in2="hardAlpha" operator="arithmetic" k2="-1" k3="1"/>
<feColorMatrix type="matrix" values="0 0 0 0 0 0 0 0 0 0 0 0 0 0 0 0 0 0 0.25 0"/>
<feBlend mode="normal" in2="shape" result="effect2_innerShadow_146_2489"/>
</filter>
<filter id="filter12_di_146_2489" x="36.3018" y="196.024" width="6.31787" height="6.31787" filterUnits="userSpaceOnUse" color-interpolation-filters="sRGB">
<feFlood flood-opacity="0" result="BackgroundImageFix"/>
<feColorMatrix in="SourceAlpha" type="matrix" values="0 0 0 0 0 0 0 0 0 0 0 0 0 0 0 0 0 0 127 0" result="hardAlpha"/>
<feOffset dx="0.5" dy="0.5"/>
<feComposite in2="hardAlpha" operator="out"/>
<feColorMatrix type="matrix" values="0 0 0 0 0 0 0 0 0 0 0 0 0 0 0 0 0 0 0.25 0"/>
<feBlend mode="normal" in2="BackgroundImageFix" result="effect1_dropShadow_146_2489"/>
<feBlend mode="normal" in="SourceGraphic" in2="effect1_dropShadow_146_2489" result="shape"/>
<feColorMatrix in="SourceAlpha" type="matrix" values="0 0 0 0 0 0 0 0 0 0 0 0 0 0 0 0 0 0 127 0" result="hardAlpha"/>
<feOffset dx="0.5" dy="0.5"/>
<feComposite in2="hardAlpha" operator="arithmetic" k2="-1" k3="1"/>
<feColorMatrix type="matrix" values="0 0 0 0 0 0 0 0 0 0 0 0 0 0 0 0 0 0 0.25 0"/>
<feBlend mode="normal" in2="shape" result="effect2_innerShadow_146_2489"/>
</filter>
<filter id="filter13_di_146_2489" x="250.594" y="297.837" width="6.31787" height="6.31787" filterUnits="userSpaceOnUse" color-interpolation-filters="sRGB">
<feFlood flood-opacity="0" result="BackgroundImageFix"/>
<feColorMatrix in="SourceAlpha" type="matrix" values="0 0 0 0 0 0 0 0 0 0 0 0 0 0 0 0 0 0 127 0" result="hardAlpha"/>
<feOffset dx="0.5" dy="0.5"/>
<feComposite in2="hardAlpha" operator="out"/>
<feColorMatrix type="matrix" values="0 0 0 0 0 0 0 0 0 0 0 0 0 0 0 0 0 0 0.25 0"/>
<feBlend mode="normal" in2="BackgroundImageFix" result="effect1_dropShadow_146_2489"/>
<feBlend mode="normal" in="SourceGraphic" in2="effect1_dropShadow_146_2489" result="shape"/>
<feColorMatrix in="SourceAlpha" type="matrix" values="0 0 0 0 0 0 0 0 0 0 0 0 0 0 0 0 0 0 127 0" result="hardAlpha"/>
<feOffset dx="0.5" dy="0.5"/>
<feComposite in2="hardAlpha" operator="arithmetic" k2="-1" k3="1"/>
<feColorMatrix type="matrix" values="0 0 0 0 0 0 0 0 0 0 0 0 0 0 0 0 0 0 0.25 0"/>
<feBlend mode="normal" in2="shape" result="effect2_innerShadow_146_2489"/>
</filter>
<filter id="filter14_di_146_2489" x="36.3018" y="297.837" width="6.31787" height="6.31787" filterUnits="userSpaceOnUse" color-interpolation-filters="sRGB">
<feFlood flood-opacity="0" result="BackgroundImageFix"/>
<feColorMatrix in="SourceAlpha" type="matrix" values="0 0 0 0 0 0 0 0 0 0 0 0 0 0 0 0 0 0 127 0" result="hardAlpha"/>
<feOffset dx="0.5" dy="0.5"/>
<feComposite in2="hardAlpha" operator="out"/>
<feColorMatrix type="matrix" values="0 0 0 0 0 0 0 0 0 0 0 0 0 0 0 0 0 0 0.25 0"/>
<feBlend mode="normal" in2="BackgroundImageFix" result="effect1_dropShadow_146_2489"/>
<feBlend mode="normal" in="SourceGraphic" in2="effect1_dropShadow_146_2489" result="shape"/>
<feColorMatrix in="SourceAlpha" type="matrix" values="0 0 0 0 0 0 0 0 0 0 0 0 0 0 0 0 0 0 127 0" result="hardAlpha"/>
<feOffset dx="0.5" dy="0.5"/>
<feComposite in2="hardAlpha" operator="arithmetic" k2="-1" k3="1"/>
<feColorMatrix type="matrix" values="0 0 0 0 0 0 0 0 0 0 0 0 0 0 0 0 0 0 0.25 0"/>
<feBlend mode="normal" in2="shape" result="effect2_innerShadow_146_2489"/>
</filter>
<filter id="filter15_i_146_2489" x="271.968" y="69" width="5.81787" height="687.48" filterUnits="userSpaceOnUse" color-interpolation-filters="sRGB">
<feFlood flood-opacity="0" result="BackgroundImageFix"/>
<feBlend mode="normal" in="SourceGraphic" in2="BackgroundImageFix" result="shape"/>
<feColorMatrix in="SourceAlpha" type="matrix" values="0 0 0 0 0 0 0 0 0 0 0 0 0 0 0 0 0 0 127 0" result="hardAlpha"/>
<feOffset dx="4"/>
<feComposite in2="hardAlpha" operator="arithmetic" k2="-1" k3="1"/>
<feColorMatrix type="matrix" values="0 0 0 0 0 0 0 0 0 0 0 0 0 0 0 0 0 0 0.25 0"/>
<feBlend mode="normal" in2="shape" result="effect1_innerShadow_146_2489"/>
</filter>
<filter id="filter16_i_146_2489" x="29.4668" y="94.5022" width="232.91" height="5.45874" filterUnits="userSpaceOnUse" color-interpolation-filters="sRGB">
<feFlood flood-opacity="0" result="BackgroundImageFix"/>
<feBlend mode="normal" in="SourceGraphic" in2="BackgroundImageFix" result="shape"/>
<feColorMatrix in="SourceAlpha" type="matrix" values="0 0 0 0 0 0 0 0 0 0 0 0 0 0 0 0 0 0 127 0" result="hardAlpha"/>
<feOffset dy="4"/>
<feComposite in2="hardAlpha" operator="arithmetic" k2="-1" k3="1"/>
<feColorMatrix type="matrix" values="0 0 0 0 0 0 0 0 0 0 0 0 0 0 0 0 0 0 0.25 0"/>
<feBlend mode="normal" in2="shape" result="effect1_innerShadow_146_2489"/>
</filter>
<filter id="filter17_i_146_2489" x="14" y="756.48" width="15.5142" height="5.81787" filterUnits="userSpaceOnUse" color-interpolation-filters="sRGB">
<feFlood flood-opacity="0" result="BackgroundImageFix"/>
<feBlend mode="normal" in="SourceGraphic" in2="BackgroundImageFix" result="shape"/>
<feColorMatrix in="SourceAlpha" type="matrix" values="0 0 0 0 0 0 0 0 0 0 0 0 0 0 0 0 0 0 127 0" result="hardAlpha"/>
<feOffset dy="4"/>
<feComposite in2="hardAlpha" operator="arithmetic" k2="-1" k3="1"/>
<feColorMatrix type="matrix" values="0 0 0 0 0 0 0 0 0 0 0 0 0 0 0 0 0 0 0.25 0"/>
<feBlend mode="normal" in2="shape" result="effect1_innerShadow_146_2489"/>
</filter>
<filter id="filter18_i_146_2489" x="262.23" y="756.48" width="15.5142" height="5.81787" filterUnits="userSpaceOnUse" color-interpolation-filters="sRGB">
<feFlood flood-opacity="0" result="BackgroundImageFix"/>
<feBlend mode="normal" in="SourceGraphic" in2="BackgroundImageFix" result="shape"/>
<feColorMatrix in="SourceAlpha" type="matrix" values="0 0 0 0 0 0 0 0 0 0 0 0 0 0 0 0 0 0 127 0" result="hardAlpha"/>
<feOffset dy="4"/>
<feComposite in2="hardAlpha" operator="arithmetic" k2="-1" k3="1"/>
<feColorMatrix type="matrix" values="0 0 0 0 0 0 0 0 0 0 0 0 0 0 0 0 0 0 0.25 0"/>
<feBlend mode="normal" in2="shape" result="effect1_innerShadow_146_2489"/>
</filter>
<filter id="filter19_i_146_2489" x="14.042" y="69" width="5.81787" height="687.48" filterUnits="userSpaceOnUse" color-interpolation-filters="sRGB">
<feFlood flood-opacity="0" result="BackgroundImageFix"/>
<feBlend mode="normal" in="SourceGraphic" in2="BackgroundImageFix" result="shape"/>
<feColorMatrix in="SourceAlpha" type="matrix" values="0 0 0 0 0 0 0 0 0 0 0 0 0 0 0 0 0 0 127 0" result="hardAlpha"/>
<feOffset dx="4"/>
<feComposite in2="hardAlpha" operator="arithmetic" k2="-1" k3="1"/>
<feColorMatrix type="matrix" values="0 0 0 0 0 0 0 0 0 0 0 0 0 0 0 0 0 0 0.25 0"/>
<feBlend mode="normal" in2="shape" result="effect1_innerShadow_146_2489"/>
</filter>
<filter id="filter20_i_146_2489" x="262.272" y="69" width="15.5142" height="5.81787" filterUnits="userSpaceOnUse" color-interpolation-filters="sRGB">
<feFlood flood-opacity="0" result="BackgroundImageFix"/>
<feBlend mode="normal" in="SourceGraphic" in2="BackgroundImageFix" result="shape"/>
<feColorMatrix in="SourceAlpha" type="matrix" values="0 0 0 0 0 0 0 0 0 0 0 0 0 0 0 0 0 0 127 0" result="hardAlpha"/>
<feOffset dy="4"/>
<feComposite in2="hardAlpha" operator="arithmetic" k2="-1" k3="1"/>
<feColorMatrix type="matrix" values="0 0 0 0 0 0 0 0 0 0 0 0 0 0 0 0 0 0 0.25 0"/>
<feBlend mode="normal" in2="shape" result="effect1_innerShadow_146_2489"/>
</filter>
<filter id="filter21_i_146_2489" x="14.042" y="69" width="15.5142" height="5.81787" filterUnits="userSpaceOnUse" color-interpolation-filters="sRGB">
<feFlood flood-opacity="0" result="BackgroundImageFix"/>
<feBlend mode="normal" in="SourceGraphic" in2="BackgroundImageFix" result="shape"/>
<feColorMatrix in="SourceAlpha" type="matrix" values="0 0 0 0 0 0 0 0 0 0 0 0 0 0 0 0 0 0 127 0" result="hardAlpha"/>
<feOffset dy="4"/>
<feComposite in2="hardAlpha" operator="arithmetic" k2="-1" k3="1"/>
<feColorMatrix type="matrix" values="0 0 0 0 0 0 0 0 0 0 0 0 0 0 0 0 0 0 0.25 0"/>
<feBlend mode="normal" in2="shape" result="effect1_innerShadow_146_2489"/>
</filter>
<filter id="filter22_i_146_2489" x="168.305" y="85" width="87.6948" height="10" filterUnits="userSpaceOnUse" color-interpolation-filters="sRGB">
<feFlood flood-opacity="0" result="BackgroundImageFix"/>
<feBlend mode="normal" in="SourceGraphic" in2="BackgroundImageFix" result="shape"/>
<feColorMatrix in="SourceAlpha" type="matrix" values="0 0 0 0 0 0 0 0 0 0 0 0 0 0 0 0 0 0 127 0" result="hardAlpha"/>
<feOffset dy="4"/>
<feComposite in2="hardAlpha" operator="arithmetic" k2="-1" k3="1"/>
<feColorMatrix type="matrix" values="0 0 0 0 0 0 0 0 0 0 0 0 0 0 0 0 0 0 0.25 0"/>
<feBlend mode="normal" in2="shape" result="effect1_innerShadow_146_2489"/>
</filter>
<filter id="filter23_i_146_2489" x="277" y="43" width="12" height="187.772" filterUnits="userSpaceOnUse" color-interpolation-filters="sRGB">
<feFlood flood-opacity="0" result="BackgroundImageFix"/>
<feBlend mode="normal" in="SourceGraphic" in2="BackgroundImageFix" result="shape"/>
<feColorMatrix in="SourceAlpha" type="matrix" values="0 0 0 0 0 0 0 0 0 0 0 0 0 0 0 0 0 0 127 0" result="hardAlpha"/>
<feOffset dx="4"/>
<feComposite in2="hardAlpha" operator="arithmetic" k2="-1" k3="1"/>
<feColorMatrix type="matrix" values="0 0 0 0 0 0 0 0 0 0 0 0 0 0 0 0 0 0 0.25 0"/>
<feBlend mode="normal" in2="shape" result="effect1_innerShadow_146_2489"/>
</filter>
<filter id="filter24_i_146_2489" x="255.836" y="31" width="33.1636" height="12.4363" filterUnits="userSpaceOnUse" color-interpolation-filters="sRGB">
<feFlood flood-opacity="0" result="BackgroundImageFix"/>
<feBlend mode="normal" in="SourceGraphic" in2="BackgroundImageFix" result="shape"/>
<feColorMatrix in="SourceAlpha" type="matrix" values="0 0 0 0 0 0 0 0 0 0 0 0 0 0 0 0 0 0 127 0" result="hardAlpha"/>
<feOffset dy="4"/>
<feComposite in2="hardAlpha" operator="arithmetic" k2="-1" k3="1"/>
<feColorMatrix type="matrix" values="0 0 0 0 0 0 0 0 0 0 0 0 0 0 0 0 0 0 0.25 0"/>
<feBlend mode="normal" in2="shape" result="effect1_innerShadow_146_2489"/>
</filter>
</defs>
</svg>
